SplineFontDB: 3.2
FontName: KoreeneSans-BlackItalic
FullName: Koreene Sans Black Italic
FamilyName: Koreene Sans Black
Weight: Black
Copyright: (C) Copyright HanYang I&C Co.,Ltd. All rights reserved.
Version: 2.52
ItalicAngle: -9.4
UnderlinePosition: -244
UnderlineWidth: 90
Ascent: 1638
Descent: 410
InvalidEm: 0
sfntRevision: 0x00020147
LayerCount: 2
Layer: 0 1 "Back" 1
Layer: 1 1 "Fore" 0
XUID: [1021 531 -1996577725 4089379]
StyleMap: 0x0001
FSType: 0
OS2Version: 4
OS2_WeightWidthSlopeOnly: 0
OS2_UseTypoMetrics: 1
CreationTime: 1068260456
ModificationTime: 1706984737
PfmFamily: 81
TTFWeight: 900
TTFWidth: 5
LineGap: 512
VLineGap: 0
Panose: 0 0 0 0 0 0 0 0 0 0
OS2TypoAscent: 1940
OS2TypoAOffset: 0
OS2TypoDescent: -470
OS2TypoDOffset: 0
OS2TypoLinegap: 512
OS2WinAscent: 2196
OS2WinAOffset: 0
OS2WinDescent: 726
OS2WinDOffset: 0
HheadAscent: 1940
HheadAOffset: 0
HheadDescent: -470
HheadDOffset: 0
OS2SubXSize: 410
OS2SubYSize: 410
OS2SubXOff: 0
OS2SubYOff: 574
OS2SupXSize: 410
OS2SupYSize: 410
OS2SupXOff: 0
OS2SupYOff: 1926
OS2StrikeYSize: 204
OS2StrikeYPos: 1024
OS2CapHeight: 1470
OS2XHeight: 1080
OS2Vendor: 'HY  '
OS2CodePages: 2000019f.00000000
OS2UnicodeRanges: e10002ff.4000001b.00000000.00000000
Lookup: 1 0 0 "'aalt' Access All Alternates lookup 0" { "'aalt' Access All Alternates lookup 0 subtable"  } ['aalt' ('DFLT' <'dflt' > 'cyrl' <'dflt' > 'grek' <'dflt' > 'hang' <'dflt' > 'jamo' <'dflt' > 'latn' <'dflt' > ) ]
Lookup: 3 0 0 "'aalt' Access All Alternates lookup 1" { "'aalt' Access All Alternates lookup 1 subtable"  } ['aalt' ('DFLT' <'dflt' > 'cyrl' <'dflt' > 'grek' <'dflt' > 'hang' <'dflt' > 'jamo' <'dflt' > 'latn' <'dflt' > ) ]
Lookup: 1 0 0 "'locl' Localized Forms in Latin lookup 2" { "'locl' Localized Forms in Latin lookup 2 subtable"  } ['locl' ('latn' <'MOL ' > ) ]
Lookup: 1 0 0 "'locl' Localized Forms in Latin lookup 3" { "'locl' Localized Forms in Latin lookup 3 subtable"  } ['locl' ('latn' <'ROM ' > ) ]

StartChar: exclam
Encoding: 33 33 4
Width: 590
GlyphClass: 2
Flags: W
LayerCount: 2
Fore
SplineSet
26 -4 m 1,0,-1
 78 312 l 1,1,-1
 426 312 l 1,2,-1
 374 -4 l 1,3,-1
 26 -4 l 1,0,-1
410 422 m 1,4,-1
 134 422 l 1,5,-1
 292 1482 l 1,6,-1
 598 1482 l 1,7,-1
 410 422 l 1,4,-1
EndSplineSet
EndChar

StartChar: quotedbl
Encoding: 34 34 5
Width: 1150
GlyphClass: 2
Flags: W
LayerCount: 2
Fore
SplineSet
660 1006 m 1,0,-1
 948 1624 l 1,1,-1
 1244 1624 l 1,2,-1
 886 1006 l 1,3,-1
 660 1006 l 1,0,-1
192 1006 m 1,4,-1
 484 1624 l 1,5,-1
 780 1624 l 1,6,-1
 420 1006 l 1,7,-1
 192 1006 l 1,4,-1
EndSplineSet
EndChar

StartChar: numbersign
Encoding: 35 35 6
Width: 1450
GlyphClass: 2
Flags: W
LayerCount: 2
Fore
SplineSet
56 344 m 1,0,-1
 92 568 l 1,1,-1
 324 568 l 1,2,-1
 410 866 l 1,3,-1
 200 866 l 1,4,-1
 238 1088 l 1,5,-1
 476 1088 l 1,6,-1
 580 1434 l 1,7,-1
 838 1434 l 1,8,-1
 738 1088 l 1,9,-1
 986 1088 l 1,10,-1
 1086 1434 l 1,11,-1
 1346 1434 l 1,12,-1
 1246 1088 l 1,13,-1
 1448 1088 l 1,14,-1
 1410 866 l 1,15,-1
 1180 866 l 1,16,-1
 1094 568 l 1,17,-1
 1304 568 l 1,18,-1
 1268 344 l 1,19,-1
 1028 344 l 1,20,-1
 928 6 l 1,21,-1
 668 6 l 1,22,-1
 770 344 l 1,23,-1
 518 344 l 1,24,-1
 418 6 l 1,25,-1
 158 6 l 1,26,-1
 260 344 l 1,27,-1
 56 344 l 1,0,-1
584 568 m 1,28,-1
 834 568 l 1,29,-1
 922 866 l 1,30,-1
 670 866 l 1,31,-1
 584 568 l 1,28,-1
EndSplineSet
EndChar

StartChar: dollar
Encoding: 36 36 7
Width: 1128
GlyphClass: 2
Flags: W
LayerCount: 2
Fore
SplineSet
22 330 m 1,0,-1
 250 430 l 1,1,2
 332 246 332 246 528 246 c 0,3,4
 602 246 602 246 663 293 c 128,-1,5
 724 340 724 340 736 418 c 0,6,7
 746 474 746 474 717 513 c 128,-1,8
 688 552 688 552 647 573 c 128,-1,9
 606 594 606 594 514 636 c 128,-1,10
 422 678 422 678 356 718 c 0,11,12
 156 836 156 836 194 1070 c 0,13,14
 206 1144 206 1144 247 1216 c 128,-1,15
 288 1288 288 1288 378 1357 c 128,-1,16
 468 1426 468 1426 586 1452 c 1,17,-1
 614 1614 l 1,18,-1
 878 1614 l 1,19,-1
 850 1448 l 1,20,21
 952 1436 952 1436 1036 1350 c 128,-1,22
 1120 1264 1120 1264 1142 1172 c 1,23,-1
 908 1064 l 1,24,25
 836 1220 836 1220 680 1220 c 0,26,27
 606 1220 606 1220 550 1177 c 128,-1,28
 494 1134 494 1134 484 1068 c 0,29,30
 478 1034 478 1034 487 1007 c 128,-1,31
 496 980 496 980 512 962 c 128,-1,32
 528 944 528 944 564 924 c 128,-1,33
 600 904 600 904 634 890 c 128,-1,34
 668 876 668 876 727 850 c 128,-1,35
 786 824 786 824 836 800 c 0,36,37
 1076 682 1076 682 1036 444 c 0,38,39
 1008 278 1008 278 894 164 c 128,-1,40
 780 50 780 50 614 14 c 1,41,-1
 588 -136 l 1,42,-1
 324 -136 l 1,43,-1
 350 18 l 1,44,45
 242 30 242 30 145 124 c 128,-1,46
 48 218 48 218 22 330 c 1,0,-1
EndSplineSet
EndChar

StartChar: percent
Encoding: 37 37 8
Width: 1980
GlyphClass: 2
Flags: W
LayerCount: 2
Fore
SplineSet
1292 350 m 0,0,1
 1278 270 1278 270 1314 226 c 128,-1,2
 1350 182 1350 182 1408 182 c 256,3,4
 1466 182 1466 182 1515 226 c 128,-1,5
 1564 270 1564 270 1576 350 c 0,6,7
 1588 428 1588 428 1556 474 c 128,-1,8
 1524 520 1524 520 1464 520 c 0,9,10
 1402 520 1402 520 1353 474 c 128,-1,11
 1304 428 1304 428 1292 350 c 0,0,1
460 1118 m 256,12,13
 446 1038 446 1038 481 994 c 128,-1,14
 516 950 516 950 574 950 c 0,15,16
 634 950 634 950 682 995 c 128,-1,17
 730 1040 730 1040 744 1118 c 0,18,19
 758 1198 758 1198 725 1243 c 128,-1,20
 692 1288 692 1288 630 1288 c 256,21,22
 568 1288 568 1288 521 1243 c 128,-1,23
 474 1198 474 1198 460 1118 c 256,12,13
248 -16 m 1,24,-1
 1502 1486 l 1,25,-1
 1794 1486 l 1,26,-1
 536 -16 l 1,27,-1
 248 -16 l 1,24,-1
1028 350 m 0,28,29
 1054 512 1054 512 1184 624 c 128,-1,30
 1314 736 1314 736 1500 736 c 0,31,32
 1680 736 1680 736 1774 625 c 128,-1,33
 1868 514 1868 514 1842 350 c 0,34,35
 1814 182 1814 182 1681 75 c 128,-1,36
 1548 -32 1548 -32 1372 -32 c 0,37,38
 1188 -32 1188 -32 1094 77 c 128,-1,39
 1000 186 1000 186 1028 350 c 0,28,29
194 1118 m 0,40,41
 220 1280 220 1280 351 1391 c 128,-1,42
 482 1502 482 1502 666 1502 c 0,43,44
 848 1502 848 1502 942 1392 c 128,-1,45
 1036 1282 1036 1282 1008 1118 c 0,46,47
 980 952 980 952 849 843 c 128,-1,48
 718 734 718 734 538 734 c 0,49,50
 356 734 356 734 261 844 c 128,-1,51
 166 954 166 954 194 1118 c 0,40,41
EndSplineSet
EndChar

StartChar: ampersand
Encoding: 38 38 9
Width: 1360
GlyphClass: 2
Flags: W
LayerCount: 2
Fore
SplineSet
332 406 m 0,0,1
 318 316 318 316 365 263 c 128,-1,2
 412 210 412 210 502 210 c 0,3,4
 616 210 616 210 730 304 c 1,5,-1
 512 662 l 1,6,7
 354 544 354 544 332 406 c 0,0,1
42 400 m 0,8,9
 86 664 86 664 410 862 c 1,10,11
 316 1010 316 1010 334 1116 c 0,12,13
 360 1276 360 1276 484 1368 c 128,-1,14
 608 1460 608 1460 790 1460 c 0,15,16
 952 1460 952 1460 1050 1375 c 128,-1,17
 1148 1290 1148 1290 1172 1168 c 1,18,-1
 952 1076 l 1,19,20
 892 1216 892 1216 776 1216 c 0,21,22
 640 1216 640 1216 624 1108 c 0,23,24
 620 1084 620 1084 630 1048 c 128,-1,25
 640 1012 640 1012 672 953 c 128,-1,26
 704 894 704 894 731 847 c 128,-1,27
 758 800 758 800 817 704 c 128,-1,28
 876 608 876 608 910 552 c 1,29,30
 952 632 952 632 992 758 c 1,31,-1
 1240 710 l 1,32,33
 1202 590 1202 590 1145 483 c 128,-1,34
 1088 376 1088 376 1044 320 c 1,35,-1
 1244 0 l 1,36,-1
 904 0 l 1,37,-1
 846 96 l 1,38,39
 662 -34 662 -34 462 -34 c 0,40,41
 230 -34 230 -34 121 92 c 128,-1,42
 12 218 12 218 42 400 c 0,8,9
EndSplineSet
EndChar

StartChar: quotesingle
Encoding: 39 39 10
Width: 710
GlyphClass: 2
Flags: W
LayerCount: 2
Fore
SplineSet
230 1006 m 1,0,-1
 518 1624 l 1,1,-1
 816 1624 l 1,2,-1
 456 1006 l 1,3,-1
 230 1006 l 1,0,-1
EndSplineSet
EndChar

StartChar: parenleft
Encoding: 40 40 11
Width: 840
GlyphClass: 2
Flags: W
LayerCount: 2
Fore
SplineSet
224 708 m 0,0,1
 314 1248 314 1248 720 1704 c 1,2,-1
 908 1580 l 1,3,4
 900 1572 900 1572 863 1520 c 128,-1,5
 826 1468 826 1468 813 1451 c 128,-1,6
 800 1434 800 1434 763 1381 c 128,-1,7
 726 1328 726 1328 709 1297 c 128,-1,8
 692 1266 692 1266 662 1209 c 128,-1,9
 632 1152 632 1152 613 1103 c 128,-1,10
 594 1054 594 1054 572 989 c 128,-1,11
 550 924 550 924 533 854 c 128,-1,12
 516 784 516 784 504 708 c 0,13,14
 460 444 460 444 491 247 c 128,-1,15
 522 50 522 50 620 -164 c 1,16,-1
 390 -288 l 1,17,18
 262 -52 262 -52 220 187 c 128,-1,19
 178 426 178 426 224 708 c 0,0,1
EndSplineSet
Substitution2: "'sups' Superscript lookup 5 subtable" uni207D
Substitution2: "'aalt' Access All Alternates lookup 0 subtable" uni207D
EndChar

StartChar: parenright
Encoding: 41 41 12
Width: 840
GlyphClass: 2
Flags: W
LayerCount: 2
Fore
SplineSet
-20 -164 m 1,0,1
 158 60 158 60 251 262 c 128,-1,2
 344 464 344 464 384 708 c 0,3,4
 430 990 430 990 396 1180 c 128,-1,5
 362 1370 362 1370 270 1580 c 1,6,-1
 498 1704 l 1,7,8
 616 1488 616 1488 665 1251 c 128,-1,9
 714 1014 714 1014 664 708 c 0,10,11
 616 416 616 416 491 178 c 128,-1,12
 366 -60 366 -60 168 -288 c 1,13,-1
 -20 -164 l 1,0,1
EndSplineSet
Substitution2: "'sups' Superscript lookup 5 subtable" uni207E
Substitution2: "'aalt' Access All Alternates lookup 0 subtable" uni207E
EndChar

StartChar: asterisk
Encoding: 42 42 13
Width: 1084
GlyphClass: 2
Flags: W
LayerCount: 2
Fore
SplineSet
62 784 m 1,0,-1
 198 1018 l 1,1,-1
 484 896 l 1,2,-1
 528 1234 l 1,3,-1
 780 1234 l 1,4,-1
 714 896 l 1,5,-1
 1040 1018 l 1,6,-1
 1096 784 l 1,7,-1
 730 688 l 1,8,-1
 956 394 l 1,9,-1
 708 230 l 1,10,-1
 544 560 l 1,11,-1
 264 230 l 1,12,-1
 78 394 l 1,13,-1
 400 688 l 1,14,-1
 62 784 l 1,0,-1
EndSplineSet
EndChar

StartChar: plus
Encoding: 43 43 14
Width: 1082
GlyphClass: 2
Flags: W
LayerCount: 2
Fore
SplineSet
52 596 m 1,0,-1
 94 850 l 1,1,-1
 446 850 l 1,2,-1
 508 1220 l 1,3,-1
 788 1220 l 1,4,-1
 728 850 l 1,5,-1
 1082 850 l 1,6,-1
 1040 596 l 1,7,-1
 686 596 l 1,8,-1
 622 212 l 1,9,-1
 342 212 l 1,10,-1
 404 596 l 1,11,-1
 52 596 l 1,0,-1
EndSplineSet
Substitution2: "'sups' Superscript lookup 5 subtable" uni207A
Substitution2: "'aalt' Access All Alternates lookup 0 subtable" uni207A
EndChar

StartChar: comma
Encoding: 44 44 15
Width: 550
GlyphClass: 2
Flags: W
LayerCount: 2
Fore
SplineSet
-142 -296 m 1,0,-1
 148 322 l 1,1,-1
 444 322 l 1,2,-1
 86 -296 l 1,3,-1
 -142 -296 l 1,0,-1
EndSplineSet
EndChar

StartChar: hyphen
Encoding: 45 45 16
Width: 752
GlyphClass: 2
Flags: W
LayerCount: 2
Fore
SplineSet
66 596 m 1,0,-1
 108 850 l 1,1,-1
 740 850 l 1,2,-1
 698 596 l 1,3,-1
 66 596 l 1,0,-1
EndSplineSet
EndChar

StartChar: period
Encoding: 46 46 17
Width: 550
GlyphClass: 2
Flags: W
LayerCount: 2
Fore
SplineSet
6 0 m 1,0,-1
 58 320 l 1,1,-1
 402 320 l 1,2,-1
 350 0 l 1,3,-1
 6 0 l 1,0,-1
EndSplineSet
EndChar

StartChar: slash
Encoding: 47 47 18
Width: 788
GlyphClass: 2
Flags: W
LayerCount: 2
Fore
SplineSet
-140 -104 m 1,0,-1
 690 1566 l 1,1,-1
 984 1566 l 1,2,-1
 152 -104 l 1,3,-1
 -140 -104 l 1,0,-1
EndSplineSet
EndChar

StartChar: zero
Encoding: 48 48 19
Width: 1100
GlyphClass: 2
Flags: W
LayerCount: 2
Fore
SplineSet
392 734 m 0,0,1
 306 210 306 210 492 210 c 0,2,3
 674 210 674 210 760 734 c 0,4,5
 846 1256 846 1256 664 1256 c 256,6,7
 478 1256 478 1256 392 734 c 0,0,1
92 734 m 0,8,9
 122 916 122 916 177 1056 c 128,-1,10
 232 1196 232 1196 293 1278 c 128,-1,11
 354 1360 354 1360 431 1412 c 128,-1,12
 508 1464 508 1464 573 1483 c 128,-1,13
 638 1502 638 1502 704 1502 c 0,14,15
 942 1502 942 1502 1034 1296 c 128,-1,16
 1126 1090 1126 1090 1066 734 c 0,17,18
 1006 376 1006 376 845 171 c 128,-1,19
 684 -34 684 -34 452 -34 c 0,20,21
 392 -34 392 -34 334 -18 c 128,-1,22
 276 -2 276 -2 216 49 c 128,-1,23
 156 100 156 100 118 181 c 128,-1,24
 80 262 80 262 71 405 c 128,-1,25
 62 548 62 548 92 734 c 0,8,9
EndSplineSet
EndChar

StartChar: one
Encoding: 49 49 20
Width: 1100
GlyphClass: 2
Flags: W
LayerCount: 2
Fore
SplineSet
206 980 m 1,0,-1
 240 1200 l 1,1,-1
 312 1200 l 2,2,3
 470 1200 470 1200 551 1267 c 0,4,5
 630 1334 630 1334 648 1436 c 2,6,-1
 654 1470 l 1,7,-1
 906 1470 l 1,8,-1
 664 0 l 1,9,-1
 366 0 l 1,10,-1
 528 980 l 1,11,-1
 206 980 l 1,0,-1
EndSplineSet
Substitution2: "'subs' Subscript lookup 6 subtable" uni2081
Substitution2: "'sups' Superscript lookup 5 subtable" onesuperior
Substitution2: "'sinf' Scientific Inferiors lookup 4 subtable" uni2081
AlternateSubs2: "'aalt' Access All Alternates lookup 1 subtable" uni2081 onesuperior
EndChar

StartChar: two
Encoding: 50 50 21
Width: 1100
GlyphClass: 2
Flags: W
LayerCount: 2
Fore
SplineSet
162 1088 m 1,0,1
 232 1280 232 1280 369 1391 c 128,-1,2
 506 1502 506 1502 696 1502 c 0,3,4
 896 1502 896 1502 1004 1384 c 128,-1,5
 1112 1266 1112 1266 1080 1068 c 0,6,7
 1058 938 1058 938 984 836 c 128,-1,8
 910 734 910 734 788 630 c 0,9,10
 768 612 768 612 677 536 c 128,-1,11
 586 460 586 460 519 392 c 128,-1,12
 452 324 452 324 394 244 c 1,13,-1
 936 244 l 1,14,-1
 896 0 l 1,15,-1
 0 0 l 1,16,17
 16 96 16 96 59 190 c 128,-1,18
 102 284 102 284 149 353 c 128,-1,19
 196 422 196 422 276 503 c 128,-1,20
 356 584 356 584 408 630 c 128,-1,21
 460 676 460 676 548 748 c 0,22,23
 572 768 572 768 584 778 c 0,24,25
 752 918 752 918 780 1076 c 0,26,27
 794 1160 794 1160 758 1208 c 128,-1,28
 722 1256 722 1256 652 1256 c 0,29,30
 490 1256 490 1256 394 1012 c 1,31,-1
 162 1088 l 1,0,1
EndSplineSet
Substitution2: "'subs' Subscript lookup 6 subtable" uni2082
Substitution2: "'sups' Superscript lookup 5 subtable" twosuperior
Substitution2: "'sinf' Scientific Inferiors lookup 4 subtable" uni2082
AlternateSubs2: "'aalt' Access All Alternates lookup 1 subtable" uni2082 twosuperior
EndChar

StartChar: three
Encoding: 51 51 22
Width: 1100
GlyphClass: 2
Flags: W
LayerCount: 2
Fore
SplineSet
8 324 m 1,0,-1
 256 410 l 1,1,2
 298 212 298 212 470 212 c 0,3,4
 556 212 556 212 625 270 c 128,-1,5
 694 328 694 328 712 428 c 0,6,7
 726 516 726 516 671 577 c 128,-1,8
 616 638 616 638 510 638 c 0,9,10
 440 638 440 638 366 632 c 1,11,-1
 406 874 l 1,12,13
 458 870 458 870 542 870 c 0,14,15
 620 870 620 870 687 923 c 128,-1,16
 754 976 754 976 770 1072 c 0,17,18
 784 1154 784 1154 744 1205 c 128,-1,19
 704 1256 704 1256 630 1256 c 0,20,21
 490 1256 490 1256 398 1054 c 1,22,-1
 172 1128 l 1,23,24
 238 1296 238 1296 374 1399 c 128,-1,25
 510 1502 510 1502 690 1502 c 0,26,27
 896 1502 896 1502 1000 1389 c 128,-1,28
 1104 1276 1104 1276 1076 1100 c 0,29,30
 1058 992 1058 992 993 905 c 128,-1,31
 928 818 928 818 842 772 c 1,32,33
 928 736 928 736 982 646 c 128,-1,34
 1036 556 1036 556 1016 428 c 0,35,36
 980 214 980 214 822 91 c 128,-1,37
 664 -32 664 -32 434 -32 c 0,38,39
 246 -32 246 -32 132 72 c 128,-1,40
 18 176 18 176 8 324 c 1,0,-1
EndSplineSet
Substitution2: "'subs' Subscript lookup 6 subtable" uni2083
Substitution2: "'sups' Superscript lookup 5 subtable" threesuperior
Substitution2: "'sinf' Scientific Inferiors lookup 4 subtable" uni2083
AlternateSubs2: "'aalt' Access All Alternates lookup 1 subtable" uni2083 threesuperior
EndChar

StartChar: four
Encoding: 52 52 23
Width: 1100
GlyphClass: 2
Flags: W
LayerCount: 2
Fore
SplineSet
46 536 m 1,0,-1
 806 1470 l 1,1,-1
 1048 1470 l 5,2,-1
 894 536 l 1,3,-1
 1050 536 l 1,4,-1
 1010 296 l 1,5,-1
 856 296 l 1,6,-1
 806 2 l 1,7,-1
 520 2 l 1,8,-1
 570 296 l 1,9,-1
 6 296 l 1,10,-1
 46 536 l 1,0,-1
314 536 m 1,11,-1
 608 536 l 1,12,-1
 662 858 l 2,13,14
 678 954 678 954 698 1026 c 1,15,-1
 690 1026 l 1,16,17
 628 942 628 942 586 884 c 2,18,-1
 314 536 l 1,11,-1
EndSplineSet
Substitution2: "'subs' Subscript lookup 6 subtable" uni2084
Substitution2: "'sups' Superscript lookup 5 subtable" uni2074
Substitution2: "'sinf' Scientific Inferiors lookup 4 subtable" uni2084
AlternateSubs2: "'aalt' Access All Alternates lookup 1 subtable" uni2084 uni2074
EndChar

StartChar: five
Encoding: 53 53 24
Width: 1100
GlyphClass: 2
Flags: W
LayerCount: 2
Fore
SplineSet
20 294 m 1,0,-1
 276 382 l 1,1,2
 292 310 292 310 339 261 c 128,-1,3
 386 212 386 212 450 212 c 0,4,5
 546 212 546 212 616 280 c 128,-1,6
 686 348 686 348 706 468 c 0,7,8
 724 580 724 580 675 653 c 128,-1,9
 626 726 626 726 536 726 c 0,10,11
 412 726 412 726 304 588 c 1,12,-1
 130 660 l 1,13,-1
 340 1470 l 1,14,-1
 1098 1470 l 1,15,-1
 1058 1224 l 1,16,-1
 568 1224 l 1,17,-1
 480 912 l 1,18,19
 564 968 564 968 676 968 c 0,20,21
 860 968 860 968 953 834 c 128,-1,22
 1046 700 1046 700 1008 474 c 0,23,24
 992 378 992 378 950 292 c 128,-1,25
 908 206 908 206 838 132 c 128,-1,26
 768 58 768 58 661 13 c 128,-1,27
 554 -32 554 -32 424 -32 c 0,28,29
 250 -32 250 -32 149 58 c 128,-1,30
 48 148 48 148 20 294 c 1,0,-1
EndSplineSet
EndChar

StartChar: six
Encoding: 54 54 25
Width: 1100
GlyphClass: 2
Flags: W
LayerCount: 2
Fore
SplineSet
356 476 m 0,0,1
 334 348 334 348 376 280 c 128,-1,2
 418 212 418 212 500 212 c 0,3,4
 580 212 580 212 641 279 c 128,-1,5
 702 346 702 346 724 476 c 256,6,7
 746 606 746 606 707 672 c 128,-1,8
 668 738 668 738 586 738 c 0,9,10
 502 738 502 738 439 670 c 128,-1,11
 376 602 376 602 356 476 c 0,0,1
90 674 m 0,12,13
 128 908 128 908 211 1089 c 128,-1,14
 294 1270 294 1270 436 1386 c 128,-1,15
 578 1502 578 1502 754 1502 c 0,16,17
 1064 1502 1064 1502 1134 1174 c 1,18,-1
 892 1094 l 1,19,20
 840 1256 840 1256 716 1256 c 0,21,22
 576 1256 576 1256 480 1046 c 0,23,24
 440 964 440 964 422 884 c 1,25,26
 522 982 522 982 666 982 c 0,27,28
 862 982 862 982 961 840 c 128,-1,29
 1060 698 1060 698 1024 478 c 0,30,31
 986 254 986 254 837 111 c 128,-1,32
 688 -32 688 -32 464 -32 c 0,33,34
 358 -32 358 -32 273 9 c 128,-1,35
 188 50 188 50 144 126 c 0,36,37
 30 310 30 310 90 674 c 0,12,13
EndSplineSet
EndChar

StartChar: seven
Encoding: 55 55 26
Width: 1100
GlyphClass: 2
Flags: W
LayerCount: 2
Fore
SplineSet
194 1216 m 1,0,-1
 236 1470 l 1,1,-1
 1170 1470 l 1,2,-1
 1136 1268 l 1,3,4
 728 760 728 760 434 0 c 5,5,-1
 132 0 l 5,6,7
 342 616 342 616 786 1216 c 1,8,-1
 194 1216 l 1,0,-1
EndSplineSet
EndChar

StartChar: eight
Encoding: 56 56 27
Width: 1100
GlyphClass: 2
Flags: W
LayerCount: 2
Fore
SplineSet
486 1074 m 0,0,1
 472 990 472 990 505 938 c 128,-1,2
 538 886 538 886 604 886 c 256,3,4
 670 886 670 886 719 939 c 128,-1,5
 768 992 768 992 782 1074 c 0,6,7
 794 1150 794 1150 764 1203 c 128,-1,8
 734 1256 734 1256 666 1256 c 256,9,10
 598 1256 598 1256 548 1204 c 128,-1,11
 498 1152 498 1152 486 1074 c 0,0,1
34 412 m 0,12,13
 50 510 50 510 107 590 c 128,-1,14
 164 670 164 670 216 707 c 128,-1,15
 268 744 268 744 326 770 c 1,16,17
 154 890 154 890 186 1086 c 0,18,19
 216 1268 216 1268 365 1385 c 128,-1,20
 514 1502 514 1502 706 1502 c 0,21,22
 900 1502 900 1502 1008 1385 c 128,-1,23
 1116 1268 1116 1268 1086 1086 c 0,24,25
 1054 890 1054 890 840 770 c 1,26,27
 930 724 930 724 985 635 c 128,-1,28
 1040 546 1040 546 1018 412 c 0,29,30
 984 212 984 212 827 90 c 128,-1,31
 670 -32 670 -32 452 -32 c 0,32,33
 248 -32 248 -32 123 84 c 128,-1,34
 -2 200 -2 200 34 412 c 0,12,13
336 428 m 0,35,36
 320 336 320 336 363 274 c 128,-1,37
 406 212 406 212 492 212 c 0,38,39
 576 212 576 212 639 274 c 128,-1,40
 702 336 702 336 716 428 c 0,41,42
 730 512 730 512 690 578 c 128,-1,43
 650 644 650 644 564 644 c 256,44,45
 478 644 478 644 414 580 c 128,-1,46
 350 516 350 516 336 428 c 0,35,36
EndSplineSet
EndChar

StartChar: nine
Encoding: 57 57 28
Width: 1100
GlyphClass: 2
Flags: W
LayerCount: 2
Fore
SplineSet
432 1000 m 0,0,1
 412 882 412 882 447 813 c 128,-1,2
 482 744 482 744 568 744 c 0,3,4
 650 744 650 744 709 814 c 128,-1,5
 768 884 768 884 788 1002 c 0,6,7
 806 1112 806 1112 771 1184 c 128,-1,8
 736 1256 736 1256 652 1256 c 256,9,10
 568 1256 568 1256 509 1183 c 128,-1,11
 450 1110 450 1110 432 1000 c 0,0,1
10 292 m 1,12,-1
 258 370 l 1,13,14
 314 212 314 212 432 212 c 0,15,16
 494 212 494 212 548 249 c 128,-1,17
 602 286 602 286 637 347 c 128,-1,18
 672 408 672 408 695 470 c 128,-1,19
 718 532 718 532 734 598 c 1,20,21
 628 498 628 498 486 498 c 0,22,23
 302 498 302 498 201 635 c 128,-1,24
 100 772 100 772 136 998 c 0,25,26
 172 1220 172 1220 326 1361 c 128,-1,27
 480 1502 480 1502 690 1502 c 0,28,29
 866 1502 866 1502 965 1388 c 128,-1,30
 1064 1274 1064 1274 1076 1084 c 0,31,32
 1082 958 1082 958 1056 800 c 0,33,34
 988 394 988 394 819 181 c 128,-1,35
 650 -32 650 -32 390 -32 c 0,36,37
 232 -32 232 -32 132 67 c 128,-1,38
 32 166 32 166 10 292 c 1,12,-1
EndSplineSet
EndChar

StartChar: colon
Encoding: 58 58 29
Width: 550
GlyphClass: 2
Flags: W
LayerCount: 2
Fore
SplineSet
6 0 m 1,0,-1
 58 324 l 1,1,-1
 404 324 l 1,2,-1
 350 0 l 1,3,-1
 6 0 l 1,0,-1
136 792 m 1,4,-1
 190 1118 l 1,5,-1
 536 1118 l 1,6,-1
 482 792 l 1,7,-1
 136 792 l 1,4,-1
EndSplineSet
EndChar

StartChar: semicolon
Encoding: 59 59 30
Width: 550
GlyphClass: 2
Flags: W
LayerCount: 2
Fore
SplineSet
-142 -294 m 1,0,-1
 148 324 l 1,1,-1
 444 324 l 1,2,-1
 86 -294 l 1,3,-1
 -142 -294 l 1,0,-1
160 792 m 1,4,-1
 214 1118 l 1,5,-1
 560 1118 l 1,6,-1
 506 792 l 1,7,-1
 160 792 l 1,4,-1
EndSplineSet
EndChar

StartChar: less
Encoding: 60 60 31
Width: 1078
GlyphClass: 2
Flags: W
LayerCount: 2
Fore
SplineSet
60 580 m 5,0,-1
 104 846 l 5,1,-1
 990 1446 l 5,2,-1
 1108 1232 l 5,3,-1
 358 714 l 5,4,-1
 936 196 l 5,5,-1
 746 -22 l 5,6,-1
 60 580 l 5,0,-1
EndSplineSet
EndChar

StartChar: equal
Encoding: 61 61 32
Width: 1076
GlyphClass: 2
Flags: W
LayerCount: 2
Fore
SplineSet
58 386 m 1,0,-1
 98 638 l 1,1,-1
 1002 638 l 1,2,-1
 960 386 l 1,3,-1
 58 386 l 1,0,-1
128 808 m 1,4,-1
 170 1062 l 1,5,-1
 1072 1062 l 1,6,-1
 1030 808 l 1,7,-1
 128 808 l 1,4,-1
EndSplineSet
Substitution2: "'sups' Superscript lookup 5 subtable" uni207C
Substitution2: "'aalt' Access All Alternates lookup 0 subtable" uni207C
EndChar

StartChar: greater
Encoding: 62 62 33
Width: 1078
GlyphClass: 2
Flags: W
LayerCount: 2
Fore
SplineSet
138 -22 m 1,0,-1
 20 196 l 1,1,-1
 766 714 l 1,2,-1
 192 1232 l 1,3,-1
 380 1446 l 1,4,-1
 1066 846 l 1,5,-1
 1022 580 l 1,6,-1
 138 -22 l 1,0,-1
EndSplineSet
EndChar

StartChar: question
Encoding: 63 63 34
Width: 1124
GlyphClass: 2
Flags: W
LayerCount: 2
Fore
SplineSet
198 1134 m 1,0,1
 262 1290 262 1290 403 1402 c 128,-1,2
 544 1514 544 1514 732 1514 c 0,3,4
 928 1514 928 1514 1035 1396 c 128,-1,5
 1142 1278 1142 1278 1110 1086 c 0,6,7
 1096 998 1096 998 1052 929 c 128,-1,8
 1008 860 1008 860 953 813 c 128,-1,9
 898 766 898 766 844 723 c 128,-1,10
 790 680 790 680 748 622 c 128,-1,11
 706 564 706 564 694 492 c 2,12,-1
 682 420 l 1,13,-1
 386 420 l 1,14,-1
 402 516 l 2,15,16
 414 590 414 590 449 654 c 128,-1,17
 484 718 484 718 526 759 c 128,-1,18
 568 800 568 800 614 842 c 128,-1,19
 660 884 660 884 701 919 c 128,-1,20
 742 954 742 954 772 1001 c 128,-1,21
 802 1048 802 1048 812 1100 c 0,22,23
 824 1172 824 1172 792 1216 c 128,-1,24
 760 1260 760 1260 694 1260 c 0,25,26
 552 1260 552 1260 444 1048 c 1,27,-1
 198 1134 l 1,0,1
292 -4 m 1,28,-1
 344 312 l 1,29,-1
 692 312 l 1,30,-1
 640 -4 l 1,31,-1
 292 -4 l 1,28,-1
EndSplineSet
EndChar

StartChar: at
Encoding: 64 64 35
Width: 1804
GlyphClass: 2
Flags: W
LayerCount: 2
Fore
SplineSet
98 690 m 0,0,1
 160 1064 160 1064 442 1307 c 128,-1,2
 724 1550 724 1550 1102 1550 c 0,3,4
 1446 1550 1446 1550 1633 1334 c 128,-1,5
 1820 1118 1820 1118 1766 796 c 0,6,7
 1740 642 1740 642 1679 526 c 128,-1,8
 1618 410 1618 410 1539 347 c 128,-1,9
 1460 284 1460 284 1381 254 c 128,-1,10
 1302 224 1302 224 1224 224 c 256,11,12
 1148 224 1148 224 1098 264 c 128,-1,13
 1048 304 1048 304 1038 366 c 1,14,-1
 1036 366 l 1,15,16
 1004 312 1004 312 927 269 c 128,-1,17
 850 226 850 226 768 226 c 0,18,19
 626 226 626 226 546 338 c 128,-1,20
 466 450 466 450 496 632 c 0,21,22
 536 876 536 876 679 1013 c 128,-1,23
 822 1150 822 1150 990 1150 c 0,24,25
 1044 1150 1044 1150 1089 1126 c 128,-1,26
 1134 1102 1134 1102 1154 1074 c 1,27,-1
 1168 1138 l 1,28,-1
 1382 1138 l 1,29,-1
 1250 536 l 2,30,31
 1248 528 1248 528 1248 522 c 0,32,33
 1234 440 1234 440 1278 440 c 0,34,35
 1344 440 1344 440 1418 533 c 128,-1,36
 1492 626 1492 626 1518 784 c 0,37,38
 1558 1030 1558 1030 1435 1185 c 128,-1,39
 1312 1340 1312 1340 1064 1340 c 0,40,41
 796 1340 796 1340 595 1154 c 128,-1,42
 394 968 394 968 348 690 c 0,43,44
 298 392 298 392 435 218 c 128,-1,45
 572 44 572 44 836 44 c 0,46,47
 1036 44 1036 44 1238 100 c 1,48,-1
 1246 -94 l 1,49,50
 1048 -164 1048 -164 802 -164 c 0,51,52
 416 -164 416 -164 225 72 c 128,-1,53
 34 308 34 308 98 690 c 0,0,1
760 636 m 0,54,55
 748 568 748 568 769 512 c 128,-1,56
 790 456 790 456 846 456 c 0,57,58
 910 456 910 456 973 536 c 128,-1,59
 1036 616 1036 616 1066 796 c 0,60,61
 1078 864 1078 864 1055 900 c 128,-1,62
 1032 936 1032 936 980 936 c 0,63,64
 918 936 918 936 850 851 c 128,-1,65
 782 766 782 766 760 636 c 0,54,55
EndSplineSet
EndChar

StartChar: A
Encoding: 65 65 36
Width: 1314
GlyphClass: 2
Flags: W
LayerCount: 2
Fore
SplineSet
474 568 m 1,0,-1
 838 568 l 1,1,-1
 798 880 l 2,2,3
 776 1066 776 1066 762 1180 c 1,4,-1
 752 1180 l 1,5,6
 686 1024 686 1024 620 880 c 2,7,-1
 474 568 l 1,0,-1
-102 0 m 1,8,-1
 652 1470 l 1,9,-1
 964 1470 l 1,10,-1
 1228 0 l 1,11,-1
 920 0 l 1,12,-1
 872 328 l 1,13,-1
 364 328 l 1,14,-1
 206 0 l 1,15,-1
 -102 0 l 1,8,-1
EndSplineSet
Substitution2: "Single Substitution lookup 12 subtable" ordfeminine
EndChar

StartChar: B
Encoding: 66 66 37
Width: 1278
GlyphClass: 2
Flags: W
LayerCount: 2
Fore
SplineSet
36 0 m 1,0,-1
 278 1470 l 1,1,-1
 836 1470 l 2,2,3
 1080 1470 1080 1470 1179 1365 c 128,-1,4
 1278 1260 1278 1260 1248 1076 c 0,5,6
 1232 976 1232 976 1175 900 c 128,-1,7
 1118 824 1118 824 1038 780 c 1,8,9
 1112 746 1112 746 1164 657 c 128,-1,10
 1216 568 1216 568 1194 438 c 0,11,12
 1162 246 1162 246 1020 123 c 128,-1,13
 878 0 878 0 662 0 c 2,14,-1
 36 0 l 1,0,-1
370 254 m 1,15,-1
 664 254 l 2,16,17
 740 254 740 254 806 301 c 128,-1,18
 872 348 872 348 888 438 c 0,19,20
 902 520 902 520 859 575 c 128,-1,21
 816 630 816 630 718 630 c 2,22,-1
 432 630 l 1,23,-1
 370 254 l 1,15,-1
474 882 m 1,24,-1
 716 882 l 2,25,26
 804 882 804 882 865 925 c 128,-1,27
 926 968 926 968 940 1052 c 0,28,29
 966 1214 966 1214 776 1214 c 2,30,-1
 528 1214 l 1,31,-1
 474 882 l 1,24,-1
EndSplineSet
EndChar

StartChar: C
Encoding: 67 67 38
Width: 1308
GlyphClass: 2
Flags: W
LayerCount: 2
Fore
SplineSet
86 736 m 0,0,1
 144 1086 144 1086 361 1294 c 128,-1,2
 578 1502 578 1502 864 1502 c 0,3,4
 1056 1502 1056 1502 1177 1395 c 128,-1,5
 1298 1288 1298 1288 1336 1128 c 1,6,-1
 1072 1044 l 1,7,8
 1038 1134 1038 1134 982 1190 c 128,-1,9
 926 1246 926 1246 820 1246 c 0,10,11
 662 1246 662 1246 544 1107 c 128,-1,12
 426 968 426 968 388 736 c 0,13,14
 348 500 348 500 420 361 c 128,-1,15
 492 222 492 222 650 222 c 0,16,17
 756 222 756 222 852 292 c 128,-1,18
 948 362 948 362 998 462 c 1,19,-1
 1248 376 l 1,20,21
 1218 324 1218 324 1180 271 c 128,-1,22
 1142 218 1142 218 1082 162 c 128,-1,23
 1022 106 1022 106 955 64 c 128,-1,24
 888 22 888 22 798 -5 c 128,-1,25
 708 -32 708 -32 610 -32 c 0,26,27
 330 -32 330 -32 178 172 c 128,-1,28
 26 376 26 376 86 736 c 0,0,1
EndSplineSet
EndChar

StartChar: D
Encoding: 68 68 39
Width: 1324
GlyphClass: 2
Flags: W
LayerCount: 2
Fore
SplineSet
36 0 m 1,0,-1
 278 1470 l 1,1,-1
 730 1470 l 2,2,3
 1066 1470 1066 1470 1210 1279 c 128,-1,4
 1354 1088 1354 1088 1296 736 c 0,5,6
 1278 622 1278 622 1243 524 c 128,-1,7
 1208 426 1208 426 1142 327 c 128,-1,8
 1076 228 1076 228 990 158 c 128,-1,9
 904 88 904 88 773 44 c 128,-1,10
 642 0 642 0 486 0 c 2,11,-1
 36 0 l 1,0,-1
368 252 m 1,12,-1
 498 252 l 2,13,14
 704 252 704 252 825 367 c 128,-1,15
 946 482 946 482 988 736 c 0,16,17
 1032 998 1032 998 945 1107 c 128,-1,18
 858 1216 858 1216 662 1216 c 2,19,-1
 528 1216 l 1,20,-1
 368 252 l 1,12,-1
EndSplineSet
EndChar

StartChar: E
Encoding: 69 69 40
Width: 1162
GlyphClass: 2
Flags: W
LayerCount: 2
Fore
SplineSet
36 0 m 1,0,-1
 278 1470 l 1,1,-1
 1250 1470 l 1,2,-1
 1208 1214 l 1,3,-1
 528 1214 l 1,4,-1
 474 884 l 1,5,-1
 1086 884 l 1,6,-1
 1044 634 l 1,7,-1
 432 634 l 1,8,-1
 370 254 l 1,9,-1
 1070 254 l 1,10,-1
 1026 0 l 1,11,-1
 36 0 l 1,0,-1
EndSplineSet
EndChar

StartChar: F
Encoding: 70 70 41
Width: 1094
GlyphClass: 2
Flags: W
LayerCount: 2
Fore
SplineSet
36 0 m 1,0,-1
 278 1470 l 1,1,-1
 1224 1470 l 1,2,-1
 1180 1214 l 1,3,-1
 528 1214 l 1,4,-1
 470 862 l 1,5,-1
 1054 862 l 1,6,-1
 1012 608 l 1,7,-1
 428 608 l 1,8,-1
 328 0 l 1,9,-1
 36 0 l 1,0,-1
EndSplineSet
EndChar

StartChar: G
Encoding: 71 71 42
Width: 1374
GlyphClass: 2
Flags: W
LayerCount: 2
Fore
SplineSet
86 736 m 0,0,1
 142 1072 142 1072 358 1287 c 128,-1,2
 574 1502 574 1502 878 1502 c 0,3,4
 996 1502 996 1502 1089 1462 c 128,-1,5
 1182 1422 1182 1422 1236 1357 c 128,-1,6
 1290 1292 1290 1292 1319 1236 c 128,-1,7
 1348 1180 1348 1180 1360 1128 c 1,8,-1
 1094 1046 l 1,9,10
 1074 1090 1074 1090 1058 1115 c 128,-1,11
 1042 1140 1042 1140 1012 1176 c 128,-1,12
 982 1212 982 1212 938 1229 c 128,-1,13
 894 1246 894 1246 836 1246 c 0,14,15
 664 1246 664 1246 545 1108 c 128,-1,16
 426 970 426 970 388 736 c 256,17,18
 350 502 350 502 426 362 c 128,-1,19
 502 222 502 222 656 222 c 0,20,21
 786 222 786 222 873 290 c 128,-1,22
 960 358 960 358 996 474 c 0,23,24
 1010 520 1010 520 1020 584 c 1,25,-1
 700 584 l 1,26,-1
 742 838 l 1,27,-1
 1346 838 l 1,28,-1
 1206 0 l 1,29,-1
 1006 0 l 1,30,-1
 1000 112 l 1,31,32
 858 -32 858 -32 604 -32 c 0,33,34
 332 -32 332 -32 180 177 c 128,-1,35
 28 386 28 386 86 736 c 0,0,1
EndSplineSet
EndChar

StartChar: H
Encoding: 72 72 43
Width: 1342
GlyphClass: 2
Flags: W
LayerCount: 2
Fore
SplineSet
36 0 m 1,0,-1
 278 1470 l 1,1,-1
 568 1470 l 1,2,-1
 472 882 l 1,3,-1
 976 882 l 1,4,-1
 1074 1470 l 1,5,-1
 1364 1470 l 1,6,-1
 1122 0 l 1,7,-1
 830 0 l 1,8,-1
 934 628 l 1,9,-1
 430 628 l 1,10,-1
 326 0 l 1,11,-1
 36 0 l 1,0,-1
EndSplineSet
EndChar

StartChar: I
Encoding: 73 73 44
Width: 548
GlyphClass: 2
Flags: W
LayerCount: 2
Fore
SplineSet
36 0 m 1,0,-1
 278 1470 l 1,1,-1
 570 1470 l 1,2,-1
 328 0 l 1,3,-1
 36 0 l 1,0,-1
EndSplineSet
EndChar

StartChar: J
Encoding: 74 74 45
Width: 1014
GlyphClass: 2
Flags: W
LayerCount: 2
Fore
SplineSet
-34 296 m 1,0,-1
 220 394 l 1,1,2
 224 328 224 328 263 275 c 128,-1,3
 302 222 302 222 374 222 c 0,4,5
 536 222 536 222 576 464 c 2,6,-1
 742 1470 l 1,7,-1
 1036 1470 l 1,8,-1
 864 428 l 2,9,10
 828 212 828 212 689 90 c 128,-1,11
 550 -32 550 -32 336 -32 c 0,12,13
 162 -32 162 -32 71 67 c 128,-1,14
 -20 166 -20 166 -34 296 c 1,0,-1
EndSplineSet
EndChar

StartChar: K
Encoding: 75 75 46
Width: 1284
GlyphClass: 2
Flags: W
LayerCount: 2
Fore
SplineSet
36 0 m 1,0,-1
 278 1470 l 1,1,-1
 570 1470 l 1,2,-1
 472 874 l 1,3,-1
 478 874 l 1,4,-1
 1076 1470 l 1,5,-1
 1442 1470 l 1,6,-1
 772 824 l 1,7,-1
 1204 0 l 1,8,-1
 854 0 l 1,9,-1
 554 614 l 1,10,-1
 406 470 l 1,11,-1
 328 0 l 1,12,-1
 36 0 l 1,0,-1
EndSplineSet
EndChar

StartChar: L
Encoding: 76 76 47
Width: 1072
GlyphClass: 2
Flags: W
LayerCount: 2
Fore
SplineSet
36 0 m 1,0,-1
 278 1470 l 1,1,-1
 570 1470 l 1,2,-1
 370 254 l 1,3,-1
 1002 254 l 1,4,-1
 960 0 l 1,5,-1
 36 0 l 1,0,-1
EndSplineSet
EndChar

StartChar: M
Encoding: 77 77 48
Width: 1628
GlyphClass: 2
Flags: W
LayerCount: 2
Fore
SplineSet
36 0 m 1,0,-1
 278 1470 l 1,1,-1
 630 1470 l 1,2,-1
 740 850 l 2,3,4
 754 778 754 778 771 647 c 128,-1,5
 788 516 788 516 794 472 c 1,6,-1
 802 472 l 1,7,8
 946 768 946 768 988 850 c 2,9,-1
 1296 1470 l 1,10,-1
 1650 1470 l 1,11,-1
 1408 0 l 1,12,-1
 1118 0 l 1,13,-1
 1212 568 l 2,14,15
 1236 708 1236 708 1318 1026 c 1,16,-1
 1308 1026 l 1,17,-1
 1124 642 l 1,18,-1
 834 68 l 1,19,-1
 630 68 l 1,20,-1
 534 642 l 1,21,-1
 472 1030 l 1,22,-1
 462 1030 l 1,23,24
 450 766 450 766 418 568 c 2,25,-1
 324 0 l 1,26,-1
 36 0 l 1,0,-1
EndSplineSet
EndChar

StartChar: N
Encoding: 78 78 49
Width: 1352
GlyphClass: 2
Flags: W
LayerCount: 2
Fore
SplineSet
36 0 m 1,0,-1
 278 1470 l 1,1,-1
 576 1470 l 1,2,-1
 934 450 l 1,3,-1
 940 450 l 1,4,5
 946 648 946 648 984 880 c 2,6,-1
 1082 1470 l 1,7,-1
 1374 1470 l 1,8,-1
 1130 0 l 1,9,-1
 834 0 l 1,10,-1
 574 702 l 1,11,-1
 472 1012 l 1,12,-1
 464 1012 l 1,13,14
 458 792 458 792 424 582 c 2,15,-1
 328 0 l 1,16,-1
 36 0 l 1,0,-1
EndSplineSet
EndChar

StartChar: O
Encoding: 79 79 50
Width: 1376
GlyphClass: 2
Flags: W
LayerCount: 2
Fore
SplineSet
86 734 m 256,0,1
 144 1080 144 1080 352 1291 c 128,-1,2
 560 1502 560 1502 844 1502 c 0,3,4
 1126 1502 1126 1502 1265 1291 c 128,-1,5
 1404 1080 1404 1080 1346 734 c 256,6,7
 1288 388 1288 388 1080 178 c 128,-1,8
 872 -32 872 -32 590 -32 c 0,9,10
 304 -32 304 -32 166 178 c 128,-1,11
 28 388 28 388 86 734 c 256,0,1
390 734 m 0,12,13
 350 496 350 496 414 359 c 128,-1,14
 478 222 478 222 632 222 c 256,15,16
 786 222 786 222 895 360 c 128,-1,17
 1004 498 1004 498 1042 734 c 256,18,19
 1082 970 1082 970 1019 1108 c 128,-1,20
 956 1246 956 1246 802 1246 c 256,21,22
 648 1246 648 1246 539 1108 c 128,-1,23
 430 970 430 970 390 734 c 0,12,13
EndSplineSet
Substitution2: "Single Substitution lookup 12 subtable" ordmasculine
EndChar

StartChar: P
Encoding: 80 80 51
Width: 1248
GlyphClass: 2
Flags: W
LayerCount: 2
Fore
SplineSet
36 0 m 1,0,-1
 278 1470 l 1,1,-1
 852 1470 l 2,2,3
 1090 1470 1090 1470 1198 1343 c 128,-1,4
 1306 1216 1306 1216 1272 1008 c 0,5,6
 1236 796 1236 796 1082 671 c 128,-1,7
 928 546 928 546 708 546 c 2,8,-1
 418 546 l 1,9,-1
 328 0 l 1,10,-1
 36 0 l 1,0,-1
460 802 m 1,11,-1
 708 802 l 2,12,13
 816 802 816 802 885 856 c 128,-1,14
 954 910 954 910 970 1008 c 0,15,16
 1004 1214 1004 1214 780 1214 c 2,17,-1
 528 1214 l 1,18,-1
 460 802 l 1,11,-1
EndSplineSet
EndChar

StartChar: Q
Encoding: 81 81 52
Width: 1376
GlyphClass: 2
Flags: W
LayerCount: 2
Fore
SplineSet
86 734 m 0,0,1
 144 1080 144 1080 352 1291 c 128,-1,2
 560 1502 560 1502 844 1502 c 0,3,4
 1126 1502 1126 1502 1265 1291 c 128,-1,5
 1404 1080 1404 1080 1346 734 c 0,6,7
 1292 410 1292 410 1106 206 c 1,8,-1
 1232 42 l 1,9,-1
 1048 -102 l 1,10,-1
 926 56 l 1,11,12
 774 -32 774 -32 590 -32 c 0,13,14
 304 -32 304 -32 167 179 c 128,-1,15
 30 390 30 390 86 734 c 0,0,1
604 472 m 1,16,-1
 788 620 l 1,17,-1
 938 424 l 1,18,19
 1012 548 1012 548 1042 734 c 0,20,21
 1082 970 1082 970 1019 1108 c 128,-1,22
 956 1246 956 1246 802 1246 c 256,23,24
 648 1246 648 1246 538 1108 c 128,-1,25
 428 970 428 970 390 734 c 256,26,27
 350 498 350 498 414 360 c 128,-1,28
 478 222 478 222 632 222 c 0,29,30
 708 222 708 222 772 256 c 1,31,-1
 604 472 l 1,16,-1
EndSplineSet
EndChar

StartChar: R
Encoding: 82 82 53
Width: 1300
GlyphClass: 2
Flags: W
LayerCount: 2
Fore
SplineSet
462 812 m 1,0,-1
 712 812 l 2,1,2
 938 812 938 812 972 1020 c 0,3,4
 986 1110 986 1110 935 1162 c 128,-1,5
 884 1214 884 1214 778 1214 c 2,6,-1
 528 1214 l 1,7,-1
 462 812 l 1,0,-1
36 0 m 1,8,-1
 278 1470 l 1,9,-1
 874 1470 l 2,10,11
 1104 1470 1104 1470 1207 1350 c 128,-1,12
 1310 1230 1310 1230 1278 1044 c 0,13,14
 1254 894 1254 894 1179 801 c 128,-1,15
 1104 708 1104 708 1016 672 c 1,16,17
 1070 622 1070 622 1088 573 c 128,-1,18
 1106 524 1106 524 1106 414 c 0,19,20
 1110 214 1110 214 1202 0 c 1,21,-1
 874 0 l 1,22,23
 802 166 802 166 794 394 c 0,24,25
 790 480 790 480 766 519 c 128,-1,26
 742 558 742 558 674 558 c 2,27,-1
 420 558 l 1,28,-1
 328 0 l 1,29,-1
 36 0 l 1,8,-1
EndSplineSet
EndChar

StartChar: S
Encoding: 83 83 54
Width: 1186
GlyphClass: 2
Flags: W
LayerCount: 2
Fore
SplineSet
-10 336 m 1,0,-1
 258 424 l 1,1,2
 290 338 290 338 375 280 c 128,-1,3
 460 222 460 222 562 222 c 0,4,5
 662 222 662 222 731 272 c 128,-1,6
 800 322 800 322 812 396 c 0,7,8
 826 482 826 482 766 534 c 128,-1,9
 706 586 706 586 580 632 c 0,10,11
 384 702 384 702 320 740 c 0,12,13
 130 856 130 856 168 1084 c 0,14,15
 198 1270 198 1270 363 1386 c 128,-1,16
 528 1502 528 1502 758 1502 c 0,17,18
 954 1502 954 1502 1075 1408 c 128,-1,19
 1196 1314 1196 1314 1238 1164 c 1,20,-1
 976 1082 l 1,21,22
 888 1246 888 1246 714 1246 c 0,23,24
 614 1246 614 1246 548 1202 c 128,-1,25
 482 1158 482 1158 470 1086 c 0,26,27
 466 1056 466 1056 470 1031 c 128,-1,28
 474 1006 474 1006 496 984 c 128,-1,29
 518 962 518 962 534 948 c 128,-1,30
 550 934 550 934 592 916 c 128,-1,31
 634 898 634 898 655 890 c 128,-1,32
 676 882 676 882 732 864 c 128,-1,33
 788 846 788 846 804 838 c 0,34,35
 880 812 880 812 938 779 c 128,-1,36
 996 746 996 746 1045 697 c 128,-1,37
 1094 648 1094 648 1114 574 c 128,-1,38
 1134 500 1134 500 1118 410 c 0,39,40
 1084 200 1084 200 913 84 c 128,-1,41
 742 -32 742 -32 512 -32 c 0,42,43
 314 -32 314 -32 173 67 c 128,-1,44
 32 166 32 166 -10 336 c 1,0,-1
EndSplineSet
EndChar

StartChar: T
Encoding: 84 84 55
Width: 1126
GlyphClass: 2
Flags: W
LayerCount: 2
Fore
SplineSet
124 1214 m 1,0,-1
 166 1470 l 1,1,-1
 1260 1470 l 1,2,-1
 1218 1214 l 1,3,-1
 818 1214 l 1,4,-1
 616 0 l 1,5,-1
 324 0 l 1,6,-1
 526 1214 l 1,7,-1
 124 1214 l 1,0,-1
EndSplineSet
EndChar

StartChar: U
Encoding: 85 85 56
Width: 1334
GlyphClass: 2
Flags: W
LayerCount: 2
Fore
SplineSet
118 560 m 2,0,-1
 270 1470 l 1,1,-1
 564 1470 l 1,2,-1
 412 558 l 2,3,4
 356 222 356 222 610 222 c 256,5,6
 864 222 864 222 920 558 c 2,7,-1
 1072 1470 l 1,8,-1
 1366 1470 l 1,9,-1
 1214 560 l 2,10,11
 1166 272 1166 272 1004 120 c 128,-1,12
 842 -32 842 -32 568 -32 c 0,13,14
 308 -32 308 -32 188 114 c 128,-1,15
 68 260 68 260 118 560 c 2,0,-1
EndSplineSet
EndChar

StartChar: V
Encoding: 86 86 57
Width: 1232
GlyphClass: 2
Flags: W
LayerCount: 2
Fore
SplineSet
154 1470 m 1,0,-1
 470 1470 l 1,1,-1
 546 720 l 2,2,3
 560 520 560 520 572 318 c 1,4,-1
 580 316 l 1,5,6
 612 392 612 392 665 528 c 128,-1,7
 718 664 718 664 738 720 c 2,8,-1
 1060 1470 l 1,9,-1
 1378 1470 l 1,10,-1
 682 0 l 1,11,-1
 362 0 l 1,12,-1
 154 1470 l 1,0,-1
EndSplineSet
EndChar

StartChar: W
Encoding: 87 87 58
Width: 1738
GlyphClass: 2
Flags: W
LayerCount: 2
Fore
SplineSet
174 1470 m 1,0,-1
 476 1470 l 1,1,-1
 474 772 l 2,2,3
 472 514 472 514 466 320 c 1,4,-1
 478 320 l 1,5,6
 520 456 520 456 630 772 c 2,7,-1
 874 1470 l 1,8,-1
 1164 1470 l 1,9,-1
 1178 772 l 2,10,11
 1182 636 1182 636 1182 320 c 1,12,-1
 1190 320 l 1,13,14
 1202 354 1202 354 1257 523 c 128,-1,15
 1312 692 1312 692 1338 772 c 2,16,-1
 1562 1470 l 1,17,-1
 1868 1470 l 1,18,-1
 1306 0 l 1,19,-1
 976 0 l 1,20,-1
 966 688 l 2,21,22
 962 1024 962 1024 964 1112 c 1,23,-1
 954 1112 l 1,24,25
 948 1082 948 1082 816 688 c 2,26,-1
 576 0 l 1,27,-1
 248 0 l 1,28,-1
 174 1470 l 1,0,-1
EndSplineSet
EndChar

StartChar: X
Encoding: 88 88 59
Width: 1252
GlyphClass: 2
Flags: W
LayerCount: 2
Fore
SplineSet
-86 0 m 1,0,-1
 492 754 l 1,1,-1
 182 1470 l 1,2,-1
 520 1470 l 1,3,-1
 622 1172 l 2,4,5
 628 1160 628 1160 655 1086 c 128,-1,6
 682 1012 682 1012 692 974 c 1,7,-1
 700 974 l 1,8,9
 750 1050 750 1050 834 1172 c 2,10,-1
 1038 1470 l 1,11,-1
 1376 1470 l 1,12,-1
 828 754 l 1,13,-1
 1158 0 l 1,14,-1
 822 0 l 1,15,-1
 700 328 l 2,16,17
 684 368 684 368 658 438 c 128,-1,18
 632 508 632 508 626 528 c 1,19,-1
 618 528 l 1,20,21
 614 520 614 520 560 440 c 128,-1,22
 506 360 506 360 482 328 c 2,23,-1
 250 0 l 1,24,-1
 -86 0 l 1,0,-1
EndSplineSet
EndChar

StartChar: Y
Encoding: 89 89 60
Width: 1272
GlyphClass: 2
Flags: W
LayerCount: 2
Fore
SplineSet
148 1470 m 1,0,-1
 480 1470 l 1,1,-1
 614 1046 l 2,2,3
 630 996 630 996 676 828 c 1,4,-1
 686 828 l 1,5,6
 754 936 754 936 824 1046 c 2,7,-1
 1096 1470 l 1,8,-1
 1430 1470 l 1,9,-1
 788 592 l 1,10,-1
 690 0 l 1,11,-1
 398 0 l 1,12,-1
 496 592 l 1,13,-1
 148 1470 l 1,0,-1
EndSplineSet
EndChar

StartChar: Z
Encoding: 90 90 61
Width: 1168
GlyphClass: 2
Flags: W
LayerCount: 2
Fore
SplineSet
-16 216 m 1,0,-1
 856 1214 l 1,1,-1
 208 1214 l 1,2,-1
 250 1470 l 1,3,-1
 1264 1470 l 1,4,-1
 1226 1250 l 1,5,-1
 354 254 l 1,6,-1
 1082 254 l 1,7,-1
 1040 0 l 1,8,-1
 -52 0 l 1,9,-1
 -16 216 l 1,0,-1
EndSplineSet
EndChar

StartChar: bracketleft
Encoding: 91 91 62
Width: 838
GlyphClass: 2
Flags: W
LayerCount: 2
Fore
SplineSet
66 -230 m 1,0,-1
 376 1646 l 1,1,-1
 876 1646 l 1,2,-1
 838 1408 l 1,3,-1
 620 1408 l 1,4,-1
 388 8 l 1,5,-1
 606 8 l 1,6,-1
 566 -230 l 1,7,-1
 66 -230 l 1,0,-1
EndSplineSet
EndChar

StartChar: backslash
Encoding: 92 92 63
Width: 764
GlyphClass: 2
Flags: W
LayerCount: 2
Fore
SplineSet
136 1566 m 1,0,-1
 428 1566 l 1,1,-1
 684 -102 l 1,2,-1
 392 -102 l 1,3,-1
 136 1566 l 1,0,-1
EndSplineSet
EndChar

StartChar: bracketright
Encoding: 93 93 64
Width: 838
GlyphClass: 2
Flags: W
LayerCount: 2
Fore
SplineSet
48 8 m 1,0,-1
 266 8 l 1,1,-1
 496 1408 l 1,2,-1
 280 1408 l 1,3,-1
 318 1646 l 1,4,-1
 820 1646 l 1,5,-1
 510 -230 l 1,6,-1
 8 -230 l 1,7,-1
 48 8 l 1,0,-1
EndSplineSet
EndChar

StartChar: asciicircum
Encoding: 94 94 65
Width: 1076
GlyphClass: 2
Flags: W
LayerCount: 2
Fore
SplineSet
68 900 m 1,0,-1
 580 1620 l 1,1,-1
 842 1620 l 1,2,-1
 1118 900 l 1,3,-1
 826 900 l 1,4,-1
 714 1256 l 1,5,-1
 676 1392 l 1,6,-1
 674 1392 l 1,7,-1
 586 1252 l 1,8,-1
 356 900 l 1,9,-1
 68 900 l 1,0,-1
EndSplineSet
EndChar

StartChar: underscore
Encoding: 95 95 66
Width: 998
GlyphClass: 2
Flags: W
LayerCount: 2
Fore
SplineSet
-86 -8 m 1,0,-1
 896 -8 l 1,1,-1
 856 -244 l 1,2,-1
 -126 -244 l 1,3,-1
 -86 -8 l 1,0,-1
EndSplineSet
EndChar

StartChar: grave
Encoding: 96 96 67
Width: 710
GlyphClass: 2
Flags: W
LayerCount: 2
Fore
SplineSet
400 1006 m 1,0,-1
 246 1624 l 1,1,-1
 544 1624 l 1,2,-1
 628 1006 l 1,3,-1
 400 1006 l 1,0,-1
EndSplineSet
EndChar

StartChar: a
Encoding: 97 97 68
Width: 1022
GlyphClass: 2
Flags: W
LayerCount: 2
Fore
SplineSet
280 320 m 0,0,1
 272 272 272 272 303 238 c 128,-1,2
 334 204 334 204 390 204 c 0,3,4
 480 204 480 204 554 269 c 128,-1,5
 628 334 628 334 646 442 c 2,6,-1
 658 514 l 1,7,8
 554 488 554 488 496 480 c 0,9,10
 302 450 302 450 280 320 c 0,0,1
4 294 m 0,11,12
 28 442 28 442 151 539 c 128,-1,13
 274 636 274 636 486 668 c 0,14,15
 660 696 660 696 690 706 c 1,16,-1
 700 760 l 2,17,18
 712 828 712 828 673 859 c 128,-1,19
 634 890 634 890 564 890 c 0,20,21
 404 890 404 890 266 758 c 1,22,-1
 130 902 l 1,23,24
 330 1112 330 1112 596 1112 c 0,25,26
 830 1112 830 1112 909 994 c 128,-1,27
 988 876 988 876 952 658 c 2,28,-1
 842 0 l 1,29,-1
 582 0 l 1,30,-1
 600 112 l 1,31,32
 560 50 560 50 482 9 c 128,-1,33
 404 -32 404 -32 312 -32 c 0,34,35
 146 -32 146 -32 63 58 c 128,-1,36
 -20 148 -20 148 4 294 c 0,11,12
EndSplineSet
Substitution2: "Single Substitution lookup 12 subtable" ordfeminine
EndChar

StartChar: b
Encoding: 98 98 69
Width: 1096
GlyphClass: 2
Flags: W
LayerCount: 2
Fore
SplineSet
18 0 m 1,0,-1
 268 1514 l 1,1,-1
 534 1514 l 1,2,-1
 450 1004 l 1,3,4
 568 1112 568 1112 702 1112 c 0,5,6
 888 1112 888 1112 988 961 c 128,-1,7
 1088 810 1088 810 1044 542 c 0,8,9
 1020 392 1020 392 960 276 c 128,-1,10
 900 160 900 160 825 95 c 128,-1,11
 750 30 750 30 672 -1 c 128,-1,12
 594 -32 594 -32 518 -32 c 0,13,14
 438 -32 438 -32 377 9 c 128,-1,15
 316 50 316 50 294 106 c 1,16,-1
 276 0 l 1,17,-1
 18 0 l 1,0,-1
372 542 m 0,18,19
 346 388 346 388 384 300 c 128,-1,20
 422 212 422 212 514 212 c 0,21,22
 602 212 602 212 670 294 c 128,-1,23
 738 376 738 376 766 542 c 0,24,25
 792 694 792 694 754 781 c 128,-1,26
 716 868 716 868 624 868 c 0,27,28
 526 868 526 868 461 779 c 128,-1,29
 396 690 396 690 372 542 c 0,18,19
EndSplineSet
EndChar

StartChar: c
Encoding: 99 99 70
Width: 984
GlyphClass: 2
Flags: W
LayerCount: 2
Fore
SplineSet
46 540 m 0,0,1
 90 806 90 806 251 959 c 128,-1,2
 412 1112 412 1112 624 1112 c 0,3,4
 786 1112 786 1112 876 1006 c 128,-1,5
 966 900 966 900 968 770 c 1,6,-1
 728 704 l 1,7,8
 722 770 722 770 687 819 c 128,-1,9
 652 868 652 868 586 868 c 0,10,11
 486 868 486 868 417 775 c 128,-1,12
 348 682 348 682 324 540 c 0,13,14
 298 380 298 380 343 296 c 128,-1,15
 388 212 388 212 478 212 c 0,16,17
 554 212 554 212 614 266 c 128,-1,18
 674 320 674 320 700 390 c 1,19,-1
 920 324 l 1,20,21
 868 184 868 184 731 76 c 128,-1,22
 594 -32 594 -32 434 -32 c 0,23,24
 220 -32 220 -32 111 124 c 128,-1,25
 2 280 2 280 46 540 c 0,0,1
EndSplineSet
EndChar

StartChar: d
Encoding: 100 100 71
Width: 1096
GlyphClass: 2
Flags: W
LayerCount: 2
Fore
SplineSet
46 542 m 0,0,1
 90 810 90 810 238 961 c 128,-1,2
 386 1112 386 1112 580 1112 c 0,3,4
 724 1112 724 1112 790 1002 c 1,5,-1
 876 1514 l 1,6,-1
 1144 1514 l 1,7,-1
 894 0 l 1,8,-1
 632 0 l 1,9,-1
 650 108 l 1,10,11
 610 52 610 52 537 10 c 128,-1,12
 464 -32 464 -32 388 -32 c 0,13,14
 306 -32 306 -32 236 0 c 128,-1,15
 166 32 166 32 113 97 c 128,-1,16
 60 162 60 162 41 277 c 128,-1,17
 22 392 22 392 46 542 c 0,0,1
324 542 m 0,18,19
 298 382 298 382 337 297 c 128,-1,20
 376 212 376 212 468 212 c 256,21,22
 560 212 560 212 625 300 c 128,-1,23
 690 388 690 388 716 542 c 0,24,25
 740 690 740 690 706 779 c 128,-1,26
 672 868 672 868 574 868 c 0,27,28
 478 868 478 868 413 779 c 128,-1,29
 348 690 348 690 324 542 c 0,18,19
EndSplineSet
EndChar

StartChar: e
Encoding: 101 101 72
Width: 1052
GlyphClass: 2
Flags: W
LayerCount: 2
Fore
SplineSet
48 544 m 256,0,1
 92 808 92 808 255 960 c 128,-1,2
 418 1112 418 1112 624 1112 c 0,3,4
 822 1112 822 1112 934 955 c 128,-1,5
 1046 798 1046 798 1004 544 c 0,6,7
 996 492 996 492 982 440 c 1,8,-1
 302 440 l 1,9,10
 286 338 286 338 336 267 c 128,-1,11
 386 196 386 196 490 196 c 0,12,13
 566 196 566 196 629 236 c 128,-1,14
 692 276 692 276 732 340 c 1,15,-1
 944 254 l 1,16,17
 874 134 874 134 744 51 c 128,-1,18
 614 -32 614 -32 442 -32 c 0,19,20
 226 -32 226 -32 115 124 c 128,-1,21
 4 280 4 280 48 544 c 256,0,1
336 636 m 1,22,-1
 746 636 l 1,23,24
 764 740 764 740 723 814 c 128,-1,25
 682 888 682 888 586 888 c 256,26,27
 490 888 490 888 421 813 c 128,-1,28
 352 738 352 738 336 636 c 1,22,-1
EndSplineSet
EndChar

StartChar: f
Encoding: 102 102 73
Width: 668
GlyphClass: 2
Flags: W
LayerCount: 2
Fore
SplineSet
84 838 m 1,0,-1
 124 1080 l 1,1,-1
 272 1080 l 1,2,-1
 286 1170 l 2,3,4
 314 1340 314 1340 408 1427 c 128,-1,5
 502 1514 502 1514 650 1514 c 2,6,-1
 830 1514 l 1,7,-1
 790 1268 l 1,8,-1
 650 1268 l 2,9,10
 608 1268 608 1268 585 1242 c 128,-1,11
 562 1216 562 1216 552 1152 c 2,12,-1
 540 1080 l 1,13,-1
 736 1080 l 1,14,-1
 696 838 l 1,15,-1
 500 838 l 1,16,-1
 362 0 l 1,17,-1
 92 0 l 1,18,-1
 232 838 l 1,19,-1
 84 838 l 1,0,-1
EndSplineSet
EndChar

StartChar: g
Encoding: 103 103 74
Width: 1064
GlyphClass: 2
Flags: W
LayerCount: 2
Fore
SplineSet
334 562 m 0,0,1
 310 412 310 412 347 334 c 128,-1,2
 384 256 384 256 468 256 c 256,3,4
 552 256 552 256 614 334 c 128,-1,5
 676 412 676 412 700 562 c 0,6,7
 724 710 724 710 687 789 c 128,-1,8
 650 868 650 868 568 868 c 0,9,10
 484 868 484 868 421 788 c 128,-1,11
 358 708 358 708 334 562 c 0,0,1
56 560 m 0,12,13
 98 814 98 814 244 963 c 128,-1,14
 390 1112 390 1112 576 1112 c 0,15,16
 656 1112 656 1112 705 1073 c 128,-1,17
 754 1034 754 1034 770 988 c 1,18,-1
 786 1080 l 1,19,-1
 1056 1080 l 1,20,-1
 906 164 l 2,21,22
 856 -142 856 -142 713 -286 c 128,-1,23
 570 -430 570 -430 332 -430 c 0,24,25
 66 -430 66 -430 -42 -216 c 1,26,-1
 156 -82 l 1,27,28
 230 -202 230 -202 374 -202 c 0,29,30
 452 -202 452 -202 519 -143 c 128,-1,31
 586 -84 586 -84 608 8 c 0,32,33
 622 74 622 74 630 114 c 1,34,35
 592 70 592 70 526 41 c 128,-1,36
 460 12 460 12 402 12 c 0,37,38
 210 12 210 12 112 161 c 128,-1,39
 14 310 14 310 56 560 c 0,12,13
EndSplineSet
EndChar

StartChar: h
Encoding: 104 104 75
Width: 1052
GlyphClass: 2
Flags: W
LayerCount: 2
Fore
SplineSet
18 0 m 1,0,-1
 268 1514 l 1,1,-1
 534 1514 l 1,2,-1
 452 1010 l 1,3,-1
 456 1010 l 1,4,5
 564 1112 564 1112 706 1112 c 0,6,7
 772 1112 772 1112 827 1091 c 128,-1,8
 882 1070 882 1070 927 1024 c 128,-1,9
 972 978 972 978 988 893 c 128,-1,10
 1004 808 1004 808 984 692 c 2,11,-1
 870 0 l 1,12,-1
 602 0 l 1,13,-1
 710 660 l 2,14,15
 744 868 744 868 618 868 c 0,16,17
 534 868 534 868 468 790 c 128,-1,18
 402 712 402 712 384 606 c 2,19,-1
 284 0 l 1,20,-1
 18 0 l 1,0,-1
EndSplineSet
Substitution2: "'sups' Superscript lookup 5 subtable" uni02B0
Substitution2: "'aalt' Access All Alternates lookup 0 subtable" uni02B0
EndChar

StartChar: i
Encoding: 105 105 76
Width: 494
GlyphClass: 2
Flags: W
LayerCount: 2
Fore
SplineSet
216 1196 m 1,0,-1
 264 1490 l 1,1,-1
 536 1490 l 1,2,-1
 488 1196 l 1,3,-1
 216 1196 l 1,0,-1
20 0 m 1,4,-1
 200 1080 l 1,5,-1
 466 1080 l 1,6,-1
 288 0 l 1,7,-1
 20 0 l 1,4,-1
EndSplineSet
EndChar

StartChar: j
Encoding: 106 106 77
Width: 512
GlyphClass: 2
Flags: W
LayerCount: 2
Fore
SplineSet
230 1196 m 1,0,-1
 280 1490 l 1,1,-1
 558 1490 l 1,2,-1
 508 1196 l 1,3,-1
 230 1196 l 1,0,-1
-142 -160 m 1,4,-1
 -112 -160 l 2,5,6
 -50 -160 -50 -160 -13 -116 c 128,-1,7
 24 -72 24 -72 40 26 c 2,8,-1
 214 1080 l 1,9,-1
 486 1080 l 1,10,-1
 310 16 l 2,11,12
 276 -194 276 -194 168 -301 c 128,-1,13
 60 -408 60 -408 -110 -408 c 2,14,-1
 -184 -408 l 1,15,-1
 -142 -160 l 1,4,-1
EndSplineSet
Substitution2: "'sups' Superscript lookup 5 subtable" uni02B2
Substitution2: "'aalt' Access All Alternates lookup 0 subtable" uni02B2
EndChar

StartChar: k
Encoding: 107 107 78
Width: 1016
GlyphClass: 2
Flags: W
LayerCount: 2
Fore
SplineSet
18 0 m 1,0,-1
 268 1514 l 1,1,-1
 534 1514 l 1,2,-1
 402 718 l 1,3,-1
 778 1080 l 1,4,-1
 1114 1080 l 1,5,-1
 656 638 l 1,6,-1
 948 0 l 1,7,-1
 634 0 l 1,8,-1
 446 436 l 1,9,-1
 338 332 l 1,10,-1
 284 0 l 1,11,-1
 18 0 l 1,0,-1
EndSplineSet
EndChar

StartChar: l
Encoding: 108 108 79
Width: 502
GlyphClass: 2
Flags: W
LayerCount: 2
Fore
SplineSet
24 0 m 1,0,-1
 274 1514 l 1,1,-1
 544 1514 l 1,2,-1
 294 0 l 1,3,-1
 24 0 l 1,0,-1
EndSplineSet
Substitution2: "'sups' Superscript lookup 5 subtable" uni02E1
Substitution2: "'aalt' Access All Alternates lookup 0 subtable" uni02E1
EndChar

StartChar: m
Encoding: 109 109 80
Width: 1552
GlyphClass: 2
Flags: W
LayerCount: 2
Fore
SplineSet
8 0 m 1,0,-1
 186 1080 l 1,1,-1
 444 1080 l 1,2,-1
 428 978 l 1,3,-1
 430 978 l 1,4,5
 452 1004 452 1004 482 1030 c 128,-1,6
 512 1056 512 1056 574 1084 c 128,-1,7
 636 1112 636 1112 698 1112 c 0,8,9
 856 1112 856 1112 910 952 c 1,10,11
 1034 1112 1034 1112 1232 1112 c 0,12,13
 1322 1112 1322 1112 1382 1078 c 128,-1,14
 1442 1044 1442 1044 1468 982 c 128,-1,15
 1494 920 1494 920 1497 849 c 128,-1,16
 1500 778 1500 778 1486 692 c 2,17,-1
 1372 0 l 1,18,-1
 1100 0 l 1,19,-1
 1214 688 l 2,20,21
 1228 778 1228 778 1211 823 c 128,-1,22
 1194 868 1194 868 1134 868 c 0,23,24
 1056 868 1056 868 999 799 c 128,-1,25
 942 730 942 730 926 636 c 2,26,-1
 822 0 l 1,27,-1
 554 0 l 1,28,-1
 670 694 l 2,29,30
 684 776 684 776 663 822 c 128,-1,31
 642 868 642 868 588 868 c 0,32,33
 504 868 504 868 452 805 c 128,-1,34
 400 742 400 742 382 636 c 2,35,-1
 276 0 l 1,36,-1
 8 0 l 1,0,-1
EndSplineSet
EndChar

StartChar: n
Encoding: 110 110 81
Width: 1046
GlyphClass: 2
Flags: W
LayerCount: 2
Fore
SplineSet
8 0 m 1,0,-1
 186 1080 l 1,1,-1
 444 1080 l 1,2,-1
 426 974 l 1,3,-1
 428 974 l 1,4,5
 534 1112 534 1112 710 1112 c 0,6,7
 1048 1112 1048 1112 980 692 c 2,8,-1
 864 0 l 1,9,-1
 596 0 l 1,10,-1
 704 658 l 2,11,12
 724 774 724 774 701 821 c 128,-1,13
 678 868 678 868 612 868 c 0,14,15
 526 868 526 868 461 796 c 128,-1,16
 396 724 396 724 378 614 c 2,17,-1
 276 0 l 1,18,-1
 8 0 l 1,0,-1
EndSplineSet
Substitution2: "'sups' Superscript lookup 5 subtable" uni207F
Substitution2: "'aalt' Access All Alternates lookup 0 subtable" uni207F
EndChar

StartChar: o
Encoding: 111 111 82
Width: 1056
GlyphClass: 2
Flags: W
LayerCount: 2
Fore
SplineSet
322 540 m 0,0,1
 292 362 292 362 343 287 c 128,-1,2
 394 212 394 212 472 212 c 0,3,4
 504 212 504 212 538 227 c 128,-1,5
 572 242 572 242 610 275 c 128,-1,6
 648 308 648 308 680 377 c 128,-1,7
 712 446 712 446 728 540 c 0,8,9
 744 636 744 636 735 704 c 128,-1,10
 726 772 726 772 698 806 c 128,-1,11
 670 840 670 840 641 854 c 128,-1,12
 612 868 612 868 580 868 c 0,13,14
 502 868 502 868 427 794 c 128,-1,15
 352 720 352 720 322 540 c 0,0,1
46 540 m 0,16,17
 64 652 64 652 108 751 c 128,-1,18
 152 850 152 850 221 933 c 128,-1,19
 290 1016 290 1016 393 1064 c 128,-1,20
 496 1112 496 1112 620 1112 c 256,21,22
 744 1112 744 1112 831 1064 c 128,-1,23
 918 1016 918 1016 959 933 c 128,-1,24
 1000 850 1000 850 1011 751 c 128,-1,25
 1022 652 1022 652 1004 540 c 0,26,27
 992 468 992 468 968 397 c 128,-1,28
 944 326 944 326 898 246 c 128,-1,29
 852 166 852 166 791 106 c 128,-1,30
 730 46 730 46 636 7 c 128,-1,31
 542 -32 542 -32 432 -32 c 256,32,33
 320 -32 320 -32 240 6 c 128,-1,34
 160 44 160 44 117 102 c 128,-1,35
 74 160 74 160 54 238 c 128,-1,36
 34 316 34 316 34 390 c 128,-1,37
 34 464 34 464 46 540 c 0,16,17
EndSplineSet
Substitution2: "Single Substitution lookup 12 subtable" ordmasculine
EndChar

StartChar: p
Encoding: 112 112 83
Width: 1096
GlyphClass: 2
Flags: W
LayerCount: 2
Fore
SplineSet
372 542 m 0,0,1
 346 390 346 390 384 301 c 128,-1,2
 422 212 422 212 514 212 c 256,3,4
 606 212 606 212 673 297 c 128,-1,5
 740 382 740 382 766 542 c 0,6,7
 792 696 792 696 754 782 c 128,-1,8
 716 868 716 868 624 868 c 0,9,10
 528 868 528 868 462 779 c 128,-1,11
 396 690 396 690 372 542 c 0,0,1
-54 -424 m 1,12,-1
 196 1080 l 1,13,-1
 454 1080 l 1,14,-1
 436 974 l 1,15,16
 554 1112 554 1112 702 1112 c 0,17,18
 890 1112 890 1112 989 960 c 128,-1,19
 1088 808 1088 808 1044 542 c 0,20,21
 1020 392 1020 392 959 276 c 128,-1,22
 898 160 898 160 821 95 c 128,-1,23
 744 30 744 30 666 -1 c 128,-1,24
 588 -32 588 -32 514 -32 c 0,25,26
 424 -32 424 -32 372 6 c 128,-1,27
 320 44 320 44 300 90 c 1,28,-1
 216 -424 l 1,29,-1
 -54 -424 l 1,12,-1
EndSplineSet
EndChar

StartChar: q
Encoding: 113 113 84
Width: 1094
GlyphClass: 2
Flags: W
LayerCount: 2
Fore
SplineSet
324 542 m 0,0,1
 298 382 298 382 336 297 c 128,-1,2
 374 212 374 212 464 212 c 0,3,4
 556 212 556 212 624 299 c 128,-1,5
 692 386 692 386 718 542 c 0,6,7
 742 688 742 688 706 778 c 128,-1,8
 670 868 670 868 574 868 c 256,9,10
 480 868 480 868 414 779 c 128,-1,11
 348 690 348 690 324 542 c 0,0,1
46 542 m 0,12,13
 90 808 90 808 239 960 c 128,-1,14
 388 1112 388 1112 576 1112 c 0,15,16
 722 1112 722 1112 796 974 c 1,17,-1
 812 1080 l 1,18,-1
 1072 1080 l 1,19,-1
 824 -424 l 1,20,-1
 554 -424 l 1,21,-1
 640 92 l 1,22,23
 540 -32 540 -32 386 -32 c 0,24,25
 310 -32 310 -32 243 -1 c 128,-1,26
 176 30 176 30 120 94 c 128,-1,27
 64 158 64 158 42 274 c 128,-1,28
 20 390 20 390 46 542 c 0,12,13
EndSplineSet
EndChar

StartChar: r
Encoding: 114 114 85
Width: 710
GlyphClass: 2
Flags: W
LayerCount: 2
Fore
SplineSet
8 0 m 1,0,-1
 186 1080 l 1,1,-1
 444 1080 l 1,2,-1
 430 988 l 1,3,4
 470 1040 470 1040 537 1076 c 128,-1,5
 604 1112 604 1112 678 1112 c 0,6,7
 768 1112 768 1112 802 1094 c 1,8,-1
 758 830 l 1,9,10
 700 850 700 850 634 850 c 0,11,12
 526 850 526 850 457 761 c 128,-1,13
 388 672 388 672 362 520 c 2,14,-1
 276 0 l 1,15,-1
 8 0 l 1,0,-1
EndSplineSet
Substitution2: "'sups' Superscript lookup 5 subtable" uni02B3
Substitution2: "'aalt' Access All Alternates lookup 0 subtable" uni02B3
EndChar

StartChar: s
Encoding: 115 115 86
Width: 940
GlyphClass: 2
Flags: W
LayerCount: 2
Fore
SplineSet
-22 234 m 1,0,-1
 186 352 l 1,1,2
 264 198 264 198 422 198 c 0,3,4
 486 198 486 198 527 227 c 128,-1,5
 568 256 568 256 574 300 c 0,6,7
 576 314 576 314 575 328 c 128,-1,8
 574 342 574 342 566 354 c 128,-1,9
 558 366 558 366 550 375 c 128,-1,10
 542 384 542 384 525 394 c 128,-1,11
 508 404 508 404 496 410 c 128,-1,12
 484 416 484 416 463 425 c 128,-1,13
 442 434 442 434 428 439 c 128,-1,14
 414 444 414 444 388 453 c 128,-1,15
 362 462 362 462 348 466 c 0,16,17
 228 512 228 512 162 584 c 128,-1,18
 96 656 96 656 120 794 c 0,19,20
 144 940 144 940 278 1026 c 128,-1,21
 412 1112 412 1112 574 1112 c 0,22,23
 700 1112 700 1112 804 1041 c 128,-1,24
 908 970 908 970 946 856 c 1,25,-1
 752 744 l 1,26,27
 668 884 668 884 538 884 c 0,28,29
 478 884 478 884 438 857 c 128,-1,30
 398 830 398 830 392 788 c 0,31,32
 388 768 388 768 393 751 c 128,-1,33
 398 734 398 734 411 720 c 128,-1,34
 424 706 424 706 437 695 c 128,-1,35
 450 684 450 684 475 673 c 128,-1,36
 500 662 500 662 516 656 c 128,-1,37
 532 650 532 650 565 638 c 128,-1,38
 598 626 598 626 614 622 c 0,39,40
 890 516 890 516 852 296 c 0,41,42
 830 160 830 160 708 64 c 128,-1,43
 586 -32 586 -32 390 -32 c 0,44,45
 238 -32 238 -32 128 41 c 128,-1,46
 18 114 18 114 -22 234 c 1,0,-1
EndSplineSet
Substitution2: "'hist' Historical Forms lookup 11 subtable" longs
Substitution2: "'sups' Superscript lookup 5 subtable" uni02E2
AlternateSubs2: "'aalt' Access All Alternates lookup 1 subtable" uni02E2 longs
EndChar

StartChar: t
Encoding: 116 116 87
Width: 702
GlyphClass: 2
Flags: W
LayerCount: 2
Fore
SplineSet
72 838 m 1,0,-1
 112 1080 l 1,1,-1
 258 1080 l 1,2,-1
 310 1388 l 1,3,-1
 576 1388 l 1,4,-1
 526 1080 l 1,5,-1
 738 1080 l 1,6,-1
 698 838 l 1,7,-1
 486 838 l 1,8,-1
 406 362 l 2,9,10
 386 244 386 244 486 244 c 2,11,-1
 602 244 l 1,12,-1
 562 0 l 1,13,-1
 412 0 l 2,14,15
 80 0 80 0 136 346 c 2,16,-1
 218 838 l 1,17,-1
 72 838 l 1,0,-1
EndSplineSet
EndChar

StartChar: u
Encoding: 117 117 88
Width: 1042
GlyphClass: 2
Flags: W
LayerCount: 2
Fore
SplineSet
60 398 m 2,0,-1
 172 1080 l 1,1,-1
 442 1080 l 1,2,-1
 334 428 l 2,3,4
 298 212 298 212 438 212 c 0,5,6
 520 212 520 212 580 292 c 128,-1,7
 640 372 640 372 658 482 c 2,8,-1
 756 1080 l 1,9,-1
 1028 1080 l 1,10,-1
 848 0 l 1,11,-1
 588 0 l 1,12,-1
 604 96 l 1,13,-1
 600 96 l 1,14,15
 562 44 562 44 491 6 c 128,-1,16
 420 -32 420 -32 338 -32 c 0,17,18
 294 -32 294 -32 254 -24 c 128,-1,19
 214 -16 214 -16 168 12 c 128,-1,20
 122 40 122 40 93 85 c 128,-1,21
 64 130 64 130 53 211 c 128,-1,22
 42 292 42 292 60 398 c 2,0,-1
EndSplineSet
EndChar

StartChar: v
Encoding: 118 118 89
Width: 1016
GlyphClass: 2
Flags: W
LayerCount: 2
Fore
SplineSet
100 1080 m 1,0,-1
 394 1080 l 1,1,-1
 432 600 l 2,2,3
 446 372 446 372 452 240 c 1,4,-1
 456 240 l 1,5,6
 476 288 476 288 528 417 c 128,-1,7
 580 546 580 546 600 600 c 2,8,-1
 792 1080 l 1,9,-1
 1090 1080 l 1,10,-1
 566 0 l 1,11,-1
 262 0 l 1,12,-1
 100 1080 l 1,0,-1
EndSplineSet
EndChar

StartChar: w
Encoding: 119 119 90
Width: 1432
GlyphClass: 2
Flags: W
LayerCount: 2
Fore
SplineSet
102 1080 m 1,0,-1
 390 1080 l 1,1,-1
 392 614 l 2,2,3
 390 570 390 570 389 464 c 128,-1,4
 388 358 388 358 390 284 c 1,5,-1
 394 284 l 1,6,7
 412 340 412 340 457 471 c 128,-1,8
 502 602 502 602 506 614 c 2,9,-1
 666 1080 l 1,10,-1
 940 1080 l 1,11,-1
 944 612 l 2,12,13
 942 568 942 568 944 454 c 128,-1,14
 946 340 946 340 944 284 c 1,15,-1
 952 284 l 1,16,17
 1000 436 1000 436 1058 614 c 2,18,-1
 1214 1080 l 1,19,-1
 1504 1080 l 1,20,-1
 1050 0 l 1,21,-1
 758 0 l 1,22,-1
 754 452 l 2,23,24
 752 502 752 502 753 612 c 128,-1,25
 754 722 754 722 754 770 c 1,26,-1
 748 770 l 1,27,28
 730 712 730 712 690 591 c 128,-1,29
 650 470 650 470 644 452 c 2,30,-1
 488 0 l 1,31,-1
 196 0 l 1,32,-1
 102 1080 l 1,0,-1
EndSplineSet
Substitution2: "'sups' Superscript lookup 5 subtable" uni02B7
Substitution2: "'aalt' Access All Alternates lookup 0 subtable" uni02B7
EndChar

StartChar: x
Encoding: 120 120 91
Width: 1066
GlyphClass: 2
Flags: W
LayerCount: 2
Fore
SplineSet
-84 0 m 1,0,-1
 372 552 l 1,1,-1
 112 1080 l 1,2,-1
 444 1080 l 1,3,-1
 514 874 l 2,4,5
 544 778 544 778 558 744 c 1,6,-1
 564 744 l 2,7,8
 566 746 566 746 601 798 c 128,-1,9
 636 850 636 850 650 874 c 2,10,-1
 792 1080 l 1,11,-1
 1122 1080 l 1,12,-1
 686 552 l 1,13,-1
 960 0 l 1,14,-1
 638 0 l 1,15,-1
 554 222 l 2,16,17
 526 304 526 304 502 366 c 1,18,-1
 496 366 l 1,19,20
 424 262 424 262 396 222 c 2,21,-1
 238 0 l 1,22,-1
 -84 0 l 1,0,-1
EndSplineSet
Substitution2: "'sups' Superscript lookup 5 subtable" uni02E3
Substitution2: "'aalt' Access All Alternates lookup 0 subtable" uni02E3
EndChar

StartChar: y
Encoding: 121 121 92
Width: 1020
GlyphClass: 2
Flags: W
LayerCount: 2
Fore
SplineSet
94 1080 m 1,0,-1
 388 1080 l 1,1,-1
 458 570 l 2,2,3
 472 456 472 456 478 338 c 1,4,-1
 484 338 l 1,5,6
 524 442 524 442 578 570 c 2,7,-1
 800 1080 l 1,8,-1
 1094 1080 l 1,9,-1
 478 -118 l 2,10,11
 392 -288 392 -288 283 -356 c 128,-1,12
 174 -424 174 -424 26 -424 c 2,13,-1
 -52 -424 l 1,14,-1
 -12 -184 l 1,15,-1
 20 -184 l 2,16,17
 106 -184 106 -184 159 -153 c 128,-1,18
 212 -122 212 -122 252 -46 c 2,19,-1
 300 50 l 1,20,-1
 94 1080 l 1,0,-1
EndSplineSet
Substitution2: "'sups' Superscript lookup 5 subtable" uni02B8
Substitution2: "'aalt' Access All Alternates lookup 0 subtable" uni02B8
EndChar

StartChar: z
Encoding: 122 122 93
Width: 938
GlyphClass: 2
Flags: W
LayerCount: 2
Fore
SplineSet
-58 0 m 1,0,-1
 -26 188 l 1,1,-1
 570 838 l 1,2,-1
 118 838 l 1,3,-1
 158 1080 l 1,4,-1
 966 1080 l 1,5,-1
 938 902 l 1,6,-1
 334 244 l 1,7,-1
 852 244 l 1,8,-1
 810 0 l 1,9,-1
 -58 0 l 1,0,-1
EndSplineSet
EndChar

StartChar: braceleft
Encoding: 123 123 94
Width: 846
GlyphClass: 2
Flags: W
CounterMasks: 1 e0
LayerCount: 2
Fore
SplineSet
100 598 m 1,0,-1
 136 818 l 1,1,-1
 204 818 l 2,2,3
 282 818 282 818 314 1000 c 2,4,-1
 370 1348 l 2,5,6
 394 1490 394 1490 487 1568 c 128,-1,7
 580 1646 580 1646 718 1646 c 2,8,-1
 888 1646 l 1,9,-1
 850 1408 l 1,10,-1
 732 1408 l 2,11,12
 700 1408 700 1408 676 1382 c 128,-1,13
 652 1356 652 1356 646 1316 c 2,14,-1
 588 970 l 2,15,16
 560 806 560 806 410 708 c 1,17,18
 458 674 458 674 488 610 c 128,-1,19
 518 546 518 546 502 450 c 2,20,-1
 444 98 l 2,21,22
 430 8 430 8 504 8 c 2,23,-1
 618 8 l 1,24,-1
 578 -230 l 1,25,-1
 408 -230 l 2,26,27
 276 -230 276 -230 205 -156 c 128,-1,28
 134 -82 134 -82 158 66 c 2,29,-1
 216 418 l 2,30,31
 246 598 246 598 168 598 c 2,32,-1
 100 598 l 1,0,-1
EndSplineSet
EndChar

StartChar: bar
Encoding: 124 124 95
Width: 584
GlyphClass: 2
Flags: W
LayerCount: 2
Fore
SplineSet
8 -300 m 1,0,-1
 340 1712 l 1,1,-1
 622 1712 l 1,2,-1
 290 -300 l 1,3,-1
 8 -300 l 1,0,-1
EndSplineSet
EndChar

StartChar: braceright
Encoding: 125 125 96
Width: 846
GlyphClass: 2
Flags: W
CounterMasks: 1 e0
LayerCount: 2
Fore
SplineSet
44 8 m 1,0,-1
 164 8 l 2,1,2
 234 8 234 8 248 98 c 2,3,-1
 308 450 l 2,4,5
 320 520 320 520 357 579 c 128,-1,6
 394 638 394 638 419 659 c 128,-1,7
 444 680 444 680 486 710 c 1,8,9
 366 802 366 802 394 970 c 2,10,-1
 450 1316 l 2,11,12
 456 1356 456 1356 442 1382 c 128,-1,13
 428 1408 428 1408 396 1408 c 2,14,-1
 276 1408 l 1,15,-1
 314 1646 l 1,16,-1
 486 1646 l 2,17,18
 624 1646 624 1646 693 1568 c 128,-1,19
 762 1490 762 1490 738 1348 c 2,20,-1
 680 1000 l 2,21,22
 650 818 650 818 726 818 c 2,23,-1
 794 818 l 1,24,-1
 756 598 l 1,25,-1
 690 598 l 2,26,27
 614 598 614 598 584 418 c 2,28,-1
 526 66 l 2,29,30
 502 -80 502 -80 405 -155 c 128,-1,31
 308 -230 308 -230 174 -230 c 2,32,-1
 4 -230 l 1,33,-1
 44 8 l 1,0,-1
EndSplineSet
EndChar

StartChar: asciitilde
Encoding: 126 126 97
Width: 1566
GlyphClass: 2
Flags: W
LayerCount: 2
Fore
SplineSet
112 588 m 1,0,1
 306 972 306 972 618 972 c 0,2,3
 686 972 686 972 741 946 c 128,-1,4
 796 920 796 920 832 883 c 128,-1,5
 868 846 868 846 899 808 c 128,-1,6
 930 770 930 770 965 744 c 128,-1,7
 1000 718 1000 718 1036 718 c 0,8,9
 1090 718 1090 718 1139 755 c 128,-1,10
 1188 792 1188 792 1213 830 c 128,-1,11
 1238 868 1238 868 1272 932 c 1,12,-1
 1500 824 l 1,13,14
 1314 444 1314 444 998 444 c 0,15,16
 920 444 920 444 853 484 c 128,-1,17
 786 524 786 524 749 572 c 128,-1,18
 712 620 712 620 666 660 c 128,-1,19
 620 700 620 700 574 700 c 0,20,21
 508 700 508 700 447 638 c 128,-1,22
 386 576 386 576 342 486 c 1,23,-1
 112 588 l 1,0,1
EndSplineSet
EndChar

StartChar: exclamdown
Encoding: 161 161 99
Width: 590
GlyphClass: 2
Flags: W
LayerCount: 2
Fore
SplineSet
-20 -396 m 1,0,-1
 174 664 l 1,1,-1
 450 664 l 1,2,-1
 288 -396 l 1,3,-1
 -20 -396 l 1,0,-1
154 774 m 1,4,-1
 206 1090 l 1,5,-1
 556 1090 l 1,6,-1
 504 774 l 1,7,-1
 154 774 l 1,4,-1
EndSplineSet
EndChar

StartChar: cent
Encoding: 162 162 100
Width: 1016
GlyphClass: 2
Flags: W
LayerCount: 2
Fore
SplineSet
46 540 m 0,0,1
 80 744 80 744 197 896 c 128,-1,2
 314 1048 314 1048 494 1094 c 1,3,-1
 520 1248 l 1,4,-1
 776 1248 l 1,5,-1
 750 1098 l 1,6,7
 868 1068 868 1068 933 973 c 128,-1,8
 998 878 998 878 1002 770 c 1,9,-1
 752 704 l 1,10,11
 728 868 728 868 606 868 c 0,12,13
 500 868 500 868 430 774 c 128,-1,14
 360 680 360 680 336 540 c 0,15,16
 312 390 312 390 354 301 c 128,-1,17
 396 212 396 212 494 212 c 0,18,19
 572 212 572 212 633 264 c 128,-1,20
 694 316 694 316 726 390 c 1,21,-1
 952 324 l 1,22,23
 910 218 910 218 809 120 c 128,-1,24
 708 22 708 22 566 -18 c 1,25,-1
 538 -184 l 1,26,-1
 284 -184 l 1,27,-1
 312 -14 l 1,28,29
 162 26 162 26 86 174 c 128,-1,30
 10 322 10 322 46 540 c 0,0,1
EndSplineSet
EndChar

StartChar: sterling
Encoding: 163 163 101
Width: 1196
GlyphClass: 2
Flags: W
LayerCount: 2
Fore
SplineSet
76 594 m 1,0,-1
 118 848 l 1,1,-1
 322 848 l 1,2,-1
 366 1110 l 2,3,4
 398 1302 398 1302 542 1402 c 128,-1,5
 686 1502 686 1502 896 1502 c 0,6,7
 1036 1502 1036 1502 1132 1426 c 128,-1,8
 1228 1350 1228 1350 1260 1254 c 1,9,-1
 1016 1144 l 1,10,11
 958 1240 958 1240 856 1240 c 0,12,13
 780 1240 780 1240 721 1202 c 128,-1,14
 662 1164 662 1164 650 1082 c 2,15,-1
 610 848 l 1,16,-1
 976 848 l 1,17,-1
 934 594 l 1,18,-1
 568 594 l 1,19,-1
 544 448 l 2,20,21
 526 340 526 340 490 286 c 1,22,23
 540 292 540 292 558 292 c 0,24,25
 614 292 614 292 699 257 c 128,-1,26
 784 222 784 222 850 222 c 0,27,28
 952 222 952 222 1064 278 c 1,29,-1
 1096 32 l 1,30,31
 934 -32 934 -32 808 -32 c 0,32,33
 742 -32 742 -32 613 4 c 128,-1,34
 484 40 484 40 422 40 c 0,35,36
 352 40 352 40 252 24 c 128,-1,37
 152 8 152 8 90 -8 c 2,38,-1
 28 -22 l 1,39,-1
 -4 188 l 1,40,41
 102 210 102 210 168 262 c 128,-1,42
 234 314 234 314 254 432 c 2,43,-1
 280 594 l 1,44,-1
 76 594 l 1,0,-1
EndSplineSet
EndChar

StartChar: currency
Encoding: 164 164 102
Width: 1308
GlyphClass: 2
Flags: W
LayerCount: 2
Fore
SplineSet
-10 304 m 1,0,-1
 236 504 l 1,1,2
 222 536 222 536 213 598 c 128,-1,3
 204 660 204 660 216 724 c 0,4,5
 226 786 226 786 254 849 c 128,-1,6
 282 912 282 912 308 944 c 1,7,-1
 130 1144 l 1,8,-1
 356 1332 l 1,9,-1
 520 1132 l 1,10,11
 646 1196 646 1196 762 1196 c 0,12,13
 874 1196 874 1196 978 1132 c 1,14,-1
 1212 1332 l 1,15,-1
 1370 1144 l 1,16,-1
 1128 944 l 1,17,18
 1170 850 1170 850 1148 724 c 0,19,20
 1138 660 1138 660 1109 598 c 128,-1,21
 1080 536 1080 536 1054 504 c 1,22,-1
 1232 304 l 1,23,-1
 1010 116 l 1,24,-1
 844 316 l 1,25,26
 710 250 710 250 606 250 c 0,27,28
 490 250 490 250 384 316 c 1,29,-1
 154 116 l 1,30,-1
 -10 304 l 1,0,-1
470 724 m 0,31,32
 456 636 456 636 504 571 c 128,-1,33
 552 506 552 506 648 506 c 0,34,35
 740 506 740 506 809 570 c 128,-1,36
 878 634 878 634 894 724 c 256,37,38
 908 814 908 814 859 877 c 128,-1,39
 810 940 810 940 720 940 c 0,40,41
 624 940 624 940 554 874 c 128,-1,42
 484 808 484 808 470 724 c 0,31,32
EndSplineSet
EndChar

StartChar: yen
Encoding: 165 165 103
Width: 1272
GlyphClass: 2
Flags: W
LayerCount: 2
Fore
SplineSet
148 1470 m 1,0,-1
 480 1470 l 1,1,-1
 608 1142 l 2,2,3
 668 988 668 988 692 918 c 1,4,-1
 700 918 l 1,5,6
 724 956 724 956 779 1030 c 128,-1,7
 834 1104 834 1104 858 1142 c 2,8,-1
 1096 1470 l 1,9,-1
 1430 1470 l 1,10,-1
 940 862 l 1,11,-1
 1206 862 l 1,12,-1
 1170 650 l 1,13,-1
 798 650 l 1,14,-1
 770 478 l 1,15,-1
 1142 478 l 1,16,-1
 1106 266 l 1,17,-1
 734 266 l 1,18,-1
 690 0 l 1,19,-1
 398 0 l 1,20,-1
 442 266 l 1,21,-1
 72 266 l 1,22,-1
 106 478 l 1,23,-1
 478 478 l 1,24,-1
 506 650 l 1,25,-1
 136 650 l 1,26,-1
 170 862 l 1,27,-1
 434 862 l 1,28,-1
 148 1470 l 1,0,-1
EndSplineSet
EndChar

StartChar: brokenbar
Encoding: 166 166 104
Width: 584
GlyphClass: 2
Flags: W
LayerCount: 2
Fore
SplineSet
206 900 m 1,0,-1
 340 1712 l 1,1,-1
 622 1712 l 1,2,-1
 488 900 l 1,3,-1
 206 900 l 1,0,-1
8 -300 m 1,4,-1
 142 514 l 1,5,-1
 424 514 l 1,6,-1
 290 -300 l 1,7,-1
 8 -300 l 1,4,-1
EndSplineSet
EndChar

StartChar: section
Encoding: 167 167 105
Width: 1060
GlyphClass: 2
Flags: W
LayerCount: 2
Fore
SplineSet
-28 116 m 1,0,-1
 184 262 l 1,1,2
 270 144 270 144 418 144 c 256,3,4
 566 144 566 144 580 216 c 0,5,6
 586 258 586 258 520 292 c 2,7,-1
 332 390 l 2,8,9
 82 516 82 516 116 724 c 0,10,11
 130 806 130 806 187 876 c 128,-1,12
 244 946 244 946 298 984 c 1,13,14
 218 1066 218 1066 238 1188 c 0,15,16
 262 1328 262 1328 387 1415 c 128,-1,17
 512 1502 512 1502 740 1502 c 0,18,19
 1012 1502 1012 1502 1136 1298 c 1,20,-1
 928 1146 l 1,21,22
 840 1254 840 1254 692 1254 c 256,23,24
 544 1254 544 1254 534 1184 c 0,25,26
 532 1166 532 1166 538 1151 c 128,-1,27
 544 1136 544 1136 566 1121 c 128,-1,28
 588 1106 588 1106 605 1097 c 128,-1,29
 622 1088 622 1088 665 1068 c 128,-1,30
 708 1048 708 1048 732 1038 c 0,31,32
 738 1034 738 1034 769 1019 c 128,-1,33
 800 1004 800 1004 813 998 c 128,-1,34
 826 992 826 992 855 975 c 128,-1,35
 884 958 884 958 898 947 c 128,-1,36
 912 936 912 936 937 916 c 128,-1,37
 962 896 962 896 973 879 c 128,-1,38
 984 862 984 862 999 836 c 128,-1,39
 1014 810 1014 810 1020 784 c 128,-1,40
 1026 758 1026 758 1027 725 c 128,-1,41
 1028 692 1028 692 1022 656 c 0,42,43
 1010 582 1010 582 961 512 c 128,-1,44
 912 442 912 442 844 394 c 1,45,46
 890 314 890 314 874 218 c 0,47,48
 848 66 848 66 723 -19 c 128,-1,49
 598 -104 598 -104 380 -104 c 0,50,51
 240 -104 240 -104 126 -39 c 128,-1,52
 12 26 12 26 -28 116 c 1,0,-1
412 730 m 0,53,54
 404 678 404 678 430 648 c 128,-1,55
 456 618 456 618 510 586 c 2,56,-1
 642 522 l 1,57,58
 716 596 716 596 726 656 c 0,59,60
 740 736 740 736 628 790 c 2,61,-1
 500 860 l 1,62,63
 424 808 424 808 412 730 c 0,53,54
EndSplineSet
EndChar

StartChar: dieresis
Encoding: 168 168 106
Width: 1028
GlyphClass: 2
Flags: W
LayerCount: 2
Fore
SplineSet
270 1174 m 1,0,-1
 318 1470 l 1,1,-1
 602 1470 l 1,2,-1
 554 1174 l 1,3,-1
 270 1174 l 1,0,-1
678 1174 m 1,4,-1
 726 1470 l 1,5,-1
 1010 1470 l 1,6,-1
 962 1174 l 1,7,-1
 678 1174 l 1,4,-1
EndSplineSet
EndChar

StartChar: copyright
Encoding: 169 169 107
Width: 1636
GlyphClass: 2
Flags: W
LayerCount: 2
Fore
SplineSet
464 744 m 0,0,1
 502 974 502 974 635 1090 c 128,-1,2
 768 1206 768 1206 946 1206 c 0,3,4
 1090 1206 1090 1206 1161 1122 c 128,-1,5
 1232 1038 1232 1038 1234 926 c 1,6,-1
 1034 872 l 1,7,8
 1018 1006 1018 1006 914 1006 c 0,9,10
 824 1006 824 1006 773 943 c 128,-1,11
 722 880 722 880 700 744 c 0,12,13
 658 486 658 486 828 486 c 0,14,15
 894 486 894 486 942 530 c 128,-1,16
 990 574 990 574 1014 632 c 1,17,-1
 1196 578 l 1,18,19
 1150 450 1150 450 1043 368 c 128,-1,20
 936 286 936 286 794 286 c 0,21,22
 614 286 614 286 520 403 c 128,-1,23
 426 520 426 520 464 744 c 0,0,1
86 744 m 0,24,25
 146 1112 146 1112 399 1329 c 128,-1,26
 652 1546 652 1546 980 1546 c 0,27,28
 1316 1546 1316 1546 1494 1326 c 128,-1,29
 1672 1106 1672 1106 1612 744 c 256,30,31
 1552 382 1552 382 1301 161 c 128,-1,32
 1050 -60 1050 -60 714 -60 c 0,33,34
 500 -60 500 -60 345 34 c 128,-1,35
 190 128 190 128 118 313 c 128,-1,36
 46 498 46 498 86 744 c 0,24,25
292 744 m 0,37,38
 244 452 244 452 370 288 c 128,-1,39
 496 124 496 124 746 124 c 0,40,41
 984 124 984 124 1171 282 c 128,-1,42
 1358 440 1358 440 1408 744 c 0,43,44
 1456 1038 1456 1038 1328 1201 c 128,-1,45
 1200 1364 1200 1364 950 1364 c 0,46,47
 698 1364 698 1364 519 1198 c 128,-1,48
 340 1032 340 1032 292 744 c 0,37,38
EndSplineSet
EndChar

StartChar: ordfeminine
Encoding: 170 170 108
Width: 746
GlyphClass: 2
Flags: W
LayerCount: 2
Fore
SplineSet
32 516 m 1,0,-1
 60 692 l 1,1,-1
 730 692 l 1,2,-1
 700 516 l 1,3,-1
 32 516 l 1,0,-1
312 1060 m 0,4,5
 306 1024 306 1024 329 999 c 128,-1,6
 352 974 352 974 396 974 c 0,7,8
 464 974 464 974 520 1021 c 128,-1,9
 576 1068 576 1068 588 1146 c 2,10,-1
 598 1204 l 1,11,12
 576 1198 576 1198 532 1190 c 128,-1,13
 488 1182 488 1182 471 1179 c 128,-1,14
 454 1176 454 1176 425 1168 c 128,-1,15
 396 1160 396 1160 381 1152 c 128,-1,16
 366 1144 366 1144 349 1130 c 128,-1,17
 332 1116 332 1116 324 1099 c 128,-1,18
 316 1082 316 1082 312 1060 c 0,4,5
114 1042 m 0,19,20
 126 1116 126 1116 172 1170 c 128,-1,21
 218 1224 218 1224 282 1251 c 128,-1,22
 346 1278 346 1278 405 1292 c 128,-1,23
 464 1306 464 1306 531 1316 c 128,-1,24
 598 1326 598 1326 620 1334 c 1,25,-1
 626 1376 l 2,26,27
 642 1474 642 1474 524 1474 c 0,28,29
 408 1474 408 1474 304 1380 c 1,30,-1
 208 1478 l 1,31,32
 272 1546 272 1546 363 1584 c 128,-1,33
 454 1622 454 1622 546 1622 c 0,34,35
 718 1622 718 1622 775 1539 c 128,-1,36
 832 1456 832 1456 808 1304 c 2,37,-1
 730 836 l 1,38,-1
 546 836 l 1,39,-1
 560 930 l 1,40,41
 474 814 474 814 340 814 c 0,42,43
 218 814 218 814 158 877 c 128,-1,44
 98 940 98 940 114 1042 c 0,19,20
EndSplineSet
EndChar

StartChar: guillemotleft
Encoding: 171 171 109
Width: 1076
GlyphClass: 2
Flags: W
LayerCount: 2
Fore
SplineSet
64 548 m 1,0,-1
 482 1066 l 1,1,-1
 660 930 l 1,2,-1
 360 548 l 1,3,-1
 532 176 l 1,4,-1
 310 34 l 1,5,-1
 64 548 l 1,0,-1
480 548 m 1,6,-1
 892 1036 l 1,7,-1
 1062 884 l 1,8,-1
 778 548 l 1,9,-1
 950 208 l 1,10,-1
 730 60 l 1,11,-1
 480 548 l 1,6,-1
EndSplineSet
EndChar

StartChar: logicalnot
Encoding: 172 172 110
Width: 1088
GlyphClass: 2
Flags: W
LayerCount: 2
Fore
SplineSet
84 566 m 1,0,-1
 126 820 l 1,1,-1
 1052 820 l 1,2,-1
 954 230 l 1,3,-1
 686 230 l 1,4,-1
 742 566 l 1,5,-1
 84 566 l 1,0,-1
EndSplineSet
EndChar

StartChar: uni00AD
Encoding: 173 173 111
Width: 1094
GlyphClass: 2
Flags: W
LayerCount: 2
Fore
SplineSet
106 606 m 1,0,-1
 148 862 l 1,1,-1
 1044 862 l 1,2,-1
 1002 606 l 1,3,-1
 106 606 l 1,0,-1
EndSplineSet
EndChar

StartChar: registered
Encoding: 174 174 112
Width: 1638
GlyphClass: 2
Flags: W
LayerCount: 2
Fore
SplineSet
84 746 m 0,0,1
 146 1116 146 1116 399 1331 c 128,-1,2
 652 1546 652 1546 980 1546 c 0,3,4
 1316 1546 1316 1546 1495 1325 c 128,-1,5
 1674 1104 1674 1104 1614 746 c 0,6,7
 1554 386 1554 386 1302 164 c 128,-1,8
 1050 -58 1050 -58 716 -58 c 0,9,10
 502 -58 502 -58 346 37 c 128,-1,11
 190 132 190 132 117 316 c 128,-1,12
 44 500 44 500 84 746 c 0,0,1
450 286 m 1,13,-1
 600 1188 l 1,14,-1
 980 1188 l 2,15,16
 1120 1188 1120 1188 1182 1108 c 128,-1,17
 1244 1028 1244 1028 1226 916 c 0,18,19
 1202 766 1202 766 1088 700 c 1,20,21
 1114 668 1114 668 1121 638 c 128,-1,22
 1128 608 1128 608 1132 552 c 0,23,24
 1134 514 1134 514 1142 473 c 128,-1,25
 1150 432 1150 432 1157 411 c 128,-1,26
 1164 390 1164 390 1182 344 c 0,27,28
 1190 322 1190 322 1196 306 c 1,29,30
 1362 460 1362 460 1410 746 c 0,31,32
 1460 1048 1460 1048 1328 1200 c 128,-1,33
 1196 1352 1196 1352 948 1352 c 0,34,35
 692 1352 692 1352 516 1193 c 128,-1,36
 340 1034 340 1034 292 746 c 0,37,38
 244 452 244 452 367 295 c 128,-1,39
 490 138 490 138 748 138 c 0,40,41
 992 138 992 138 1170 286 c 1,42,-1
 942 286 l 1,43,44
 892 376 892 376 890 532 c 0,45,46
 888 604 888 604 876 618 c 0,47,48
 870 624 870 624 854 624 c 2,49,-1
 740 624 l 1,50,-1
 684 286 l 1,51,-1
 450 286 l 1,13,-1
770 802 m 1,52,-1
 884 802 l 2,53,54
 968 802 968 802 982 892 c 0,55,56
 988 924 988 924 968 952 c 128,-1,57
 948 980 948 980 912 980 c 2,58,-1
 800 980 l 1,59,-1
 770 802 l 1,52,-1
EndSplineSet
EndChar

StartChar: macron
Encoding: 175 175 113
Width: 950
GlyphClass: 2
Flags: W
LayerCount: 2
Fore
SplineSet
132 1322 m 1,0,-1
 174 1574 l 1,1,-1
 1112 1574 l 1,2,-1
 1070 1322 l 1,3,-1
 132 1322 l 1,0,-1
EndSplineSet
EndChar

StartChar: degree
Encoding: 176 176 114
Width: 836
GlyphClass: 2
Flags: W
LayerCount: 2
Fore
SplineSet
250 1204 m 256,0,1
 270 1320 270 1320 362 1400 c 128,-1,2
 454 1480 454 1480 570 1480 c 0,3,4
 684 1480 684 1480 750 1402 c 128,-1,5
 816 1324 816 1324 796 1204 c 0,6,7
 776 1088 776 1088 683 1009 c 128,-1,8
 590 930 590 930 478 930 c 256,9,10
 366 930 366 930 298 1009 c 128,-1,11
 230 1088 230 1088 250 1204 c 256,0,1
430 1204 m 0,12,13
 424 1164 424 1164 444 1135 c 128,-1,14
 464 1106 464 1106 508 1106 c 0,15,16
 550 1106 550 1106 580 1135 c 128,-1,17
 610 1164 610 1164 618 1204 c 0,18,19
 626 1248 626 1248 604 1276 c 128,-1,20
 582 1304 582 1304 540 1304 c 256,21,22
 498 1304 498 1304 467 1275 c 128,-1,23
 436 1246 436 1246 430 1204 c 0,12,13
EndSplineSet
EndChar

StartChar: plusminus
Encoding: 177 177 115
Width: 1100
GlyphClass: 2
Flags: W
LayerCount: 2
Fore
SplineSet
98 792 m 1,0,-1
 140 1038 l 1,1,-1
 490 1038 l 1,2,-1
 542 1344 l 1,3,-1
 820 1344 l 1,4,-1
 768 1038 l 1,5,-1
 1118 1038 l 1,6,-1
 1078 792 l 1,7,-1
 728 792 l 1,8,-1
 678 486 l 1,9,-1
 400 486 l 1,10,-1
 450 792 l 1,11,-1
 98 792 l 1,0,-1
-4 138 m 1,12,-1
 38 384 l 1,13,-1
 1004 384 l 1,14,-1
 962 138 l 1,15,-1
 -4 138 l 1,12,-1
EndSplineSet
EndChar

StartChar: twosuperior
Encoding: 178 178 116
Width: 646
GlyphClass: 2
Flags: W
LayerCount: 2
Fore
SplineSet
172 1364 m 1,0,1
 270 1626 270 1626 500 1626 c 0,2,3
 622 1626 622 1626 686 1553 c 128,-1,4
 750 1480 750 1480 730 1362 c 0,5,6
 710 1240 710 1240 580 1122 c 0,7,8
 560 1104 560 1104 506 1058 c 128,-1,9
 452 1012 452 1012 415 976 c 128,-1,10
 378 940 378 940 350 900 c 1,11,-1
 650 900 l 1,12,-1
 622 732 l 1,13,-1
 78 732 l 1,14,15
 100 868 100 868 175 963 c 128,-1,16
 250 1058 250 1058 424 1204 c 0,17,18
 518 1282 518 1282 530 1364 c 0,19,20
 538 1408 538 1408 521 1433 c 128,-1,21
 504 1458 504 1458 470 1458 c 0,22,23
 384 1458 384 1458 330 1314 c 1,24,-1
 172 1364 l 1,0,1
EndSplineSet
EndChar

StartChar: threesuperior
Encoding: 179 179 117
Width: 650
GlyphClass: 2
Flags: W
LayerCount: 2
Fore
SplineSet
84 938 m 1,0,-1
 250 996 l 1,1,2
 278 878 278 878 368 878 c 0,3,4
 412 878 412 878 446 907 c 128,-1,5
 480 936 480 936 490 988 c 0,6,7
 498 1036 498 1036 469 1067 c 128,-1,8
 440 1098 440 1098 384 1098 c 0,9,10
 338 1098 338 1098 288 1094 c 1,11,-1
 314 1262 l 1,12,13
 384 1258 384 1258 406 1258 c 0,14,15
 448 1258 448 1258 482 1285 c 128,-1,16
 516 1312 516 1312 524 1360 c 0,17,18
 530 1402 530 1402 511 1428 c 128,-1,19
 492 1454 492 1454 454 1454 c 0,20,21
 382 1454 382 1454 326 1334 c 1,22,-1
 176 1384 l 1,23,24
 206 1462 206 1462 251 1514 c 128,-1,25
 296 1566 296 1566 346 1588 c 128,-1,26
 396 1610 396 1610 428 1616 c 128,-1,27
 460 1622 460 1622 490 1622 c 0,28,29
 614 1622 614 1622 679 1553 c 128,-1,30
 744 1484 744 1484 726 1378 c 0,31,32
 706 1262 706 1262 606 1190 c 1,33,34
 712 1124 712 1124 692 988 c 0,35,36
 670 860 670 860 575 785 c 128,-1,37
 480 710 480 710 340 710 c 0,38,39
 242 710 242 710 166 767 c 128,-1,40
 90 824 90 824 84 938 c 1,0,-1
EndSplineSet
EndChar

StartChar: acute
Encoding: 180 180 118
Width: 786
GlyphClass: 2
Flags: W
LayerCount: 2
Fore
SplineSet
280 1286 m 1,0,-1
 542 1642 l 1,1,-1
 872 1642 l 1,2,-1
 514 1286 l 1,3,-1
 280 1286 l 1,0,-1
EndSplineSet
EndChar

StartChar: uni00B5
Encoding: 181 181 119
Width: 1052
GlyphClass: 2
Flags: W
LayerCount: 2
Fore
SplineSet
-54 -424 m 1,0,-1
 196 1080 l 1,1,-1
 464 1080 l 1,2,-1
 356 428 l 2,3,4
 320 212 320 212 458 212 c 0,5,6
 540 212 540 212 601 293 c 128,-1,7
 662 374 662 374 680 482 c 2,8,-1
 778 1080 l 1,9,-1
 1046 1080 l 1,10,-1
 868 0 l 1,11,-1
 612 0 l 1,12,-1
 628 90 l 1,13,-1
 626 90 l 1,14,15
 596 48 596 48 527 8 c 128,-1,16
 458 -32 458 -32 370 -32 c 0,17,18
 316 -32 316 -32 284 -12 c 1,19,-1
 216 -424 l 1,20,-1
 -54 -424 l 1,0,-1
EndSplineSet
EndChar

StartChar: paragraph
Encoding: 182 182 120
Width: 1224
GlyphClass: 2
Flags: W
LayerCount: 2
Fore
SplineSet
170 1102 m 0,0,1
 204 1302 204 1302 329 1425 c 128,-1,2
 454 1548 454 1548 656 1548 c 2,3,-1
 1254 1548 l 1,4,-1
 974 -144 l 1,5,-1
 744 -144 l 1,6,-1
 980 1286 l 1,7,-1
 874 1286 l 1,8,-1
 636 -144 l 1,9,-1
 406 -144 l 1,10,-1
 534 640 l 1,11,12
 508 634 508 634 478 634 c 0,13,14
 316 634 316 634 224 754 c 128,-1,15
 132 874 132 874 170 1102 c 0,0,1
EndSplineSet
EndChar

StartChar: periodcentered
Encoding: 183 183 121
Width: 670
GlyphClass: 2
Flags: W
LayerCount: 2
Fore
SplineSet
160 548 m 1,0,-1
 214 866 l 1,1,-1
 558 866 l 1,2,-1
 506 548 l 1,3,-1
 160 548 l 1,0,-1
EndSplineSet
EndChar

StartChar: cedilla
Encoding: 184 184 122
Width: 608
GlyphClass: 2
Flags: W
LayerCount: 2
Fore
SplineSet
-54 -224 m 1,0,1
 24 -242 24 -242 60 -242 c 0,2,3
 142 -242 142 -242 148 -206 c 0,4,5
 158 -148 158 -148 -10 -142 c 1,6,-1
 156 112 l 1,7,-1
 402 112 l 1,8,-1
 322 -14 l 1,9,10
 434 -62 434 -62 408 -210 c 0,11,12
 392 -302 392 -302 310 -373 c 128,-1,13
 228 -444 228 -444 52 -444 c 0,14,15
 -38 -444 -38 -444 -88 -428 c 1,16,-1
 -54 -224 l 1,0,1
EndSplineSet
EndChar

StartChar: onesuperior
Encoding: 185 185 123
Width: 634
GlyphClass: 2
Flags: W
LayerCount: 2
Fore
SplineSet
188 1296 m 1,0,-1
 214 1454 l 1,1,-1
 266 1454 l 2,2,3
 352 1454 352 1454 396 1490 c 128,-1,4
 440 1526 440 1526 448 1578 c 2,5,-1
 454 1610 l 1,6,-1
 628 1610 l 1,7,-1
 482 734 l 1,8,-1
 284 734 l 1,9,-1
 378 1296 l 1,10,-1
 188 1296 l 1,0,-1
EndSplineSet
EndChar

StartChar: ordmasculine
Encoding: 186 186 124
Width: 768
GlyphClass: 2
Flags: W
LayerCount: 2
Fore
SplineSet
338 1218 m 0,0,1
 316 1090 316 1090 355 1035 c 128,-1,2
 394 980 394 980 452 980 c 256,3,4
 510 980 510 980 567 1035 c 128,-1,5
 624 1090 624 1090 646 1218 c 0,6,7
 668 1348 668 1348 629 1403 c 128,-1,8
 590 1458 590 1458 530 1458 c 256,9,10
 472 1458 472 1458 416 1403 c 128,-1,11
 360 1348 360 1348 338 1218 c 0,0,1
142 1218 m 0,12,13
 156 1298 156 1298 187 1368 c 128,-1,14
 218 1438 218 1438 268 1497 c 128,-1,15
 318 1556 318 1556 393 1590 c 128,-1,16
 468 1624 468 1624 558 1624 c 0,17,18
 734 1624 734 1624 802 1506 c 128,-1,19
 870 1388 870 1388 842 1218 c 0,20,21
 834 1168 834 1168 817 1118 c 128,-1,22
 800 1068 800 1068 767 1011 c 128,-1,23
 734 954 734 954 689 912 c 128,-1,24
 644 870 644 870 576 842 c 128,-1,25
 508 814 508 814 424 814 c 0,26,27
 324 814 324 814 259 853 c 128,-1,28
 194 892 194 892 167 956 c 128,-1,29
 140 1020 140 1020 135 1084 c 128,-1,30
 130 1148 130 1148 142 1218 c 0,12,13
34 534 m 1,31,-1
 64 710 l 1,32,-1
 754 710 l 1,33,-1
 724 534 l 1,34,-1
 34 534 l 1,31,-1
EndSplineSet
EndChar

StartChar: guillemotright
Encoding: 187 187 125
Width: 1076
GlyphClass: 2
Flags: W
LayerCount: 2
Fore
SplineSet
122 884 m 1,0,-1
 338 1036 l 1,1,-1
 592 548 l 1,2,-1
 178 60 l 1,3,-1
 10 208 l 1,4,-1
 294 548 l 1,5,-1
 122 884 l 1,0,-1
418 178 m 1,6,-1
 710 548 l 1,7,-1
 538 930 l 1,8,-1
 764 1066 l 1,9,-1
 1010 548 l 1,10,-1
 592 34 l 1,11,-1
 418 178 l 1,6,-1
EndSplineSet
EndChar

StartChar: onequarter
Encoding: 188 188 126
Width: 1908
GlyphClass: 2
Flags: W
LayerCount: 2
Fore
SplineSet
1304 298 m 1,0,-1
 1442 298 l 1,1,-1
 1462 416 l 2,2,3
 1464 434 1464 434 1474 486 c 128,-1,4
 1484 538 1484 538 1484 544 c 1,5,-1
 1304 298 l 1,0,-1
196 1208 m 1,6,-1
 228 1406 l 1,7,-1
 298 1406 l 2,8,9
 472 1406 472 1406 494 1538 c 2,10,-1
 502 1584 l 1,11,-1
 718 1584 l 1,12,-1
 550 568 l 1,13,-1
 306 568 l 1,14,-1
 412 1208 l 1,15,-1
 196 1208 l 1,6,-1
224 -104 m 1,16,-1
 1418 1566 l 1,17,-1
 1678 1566 l 1,18,-1
 490 -104 l 1,19,-1
 224 -104 l 1,16,-1
1062 278 m 1,20,-1
 1584 920 l 1,21,-1
 1782 920 l 1,22,-1
 1680 298 l 1,23,-1
 1784 298 l 1,24,-1
 1748 90 l 1,25,-1
 1644 90 l 1,26,-1
 1612 -110 l 1,27,-1
 1374 -110 l 1,28,-1
 1408 90 l 1,29,-1
 1032 90 l 1,30,-1
 1062 278 l 1,20,-1
EndSplineSet
Ligature2: "'frac' Diagonal Fractions lookup 7 subtable" one fraction four
Ligature2: "'frac' Diagonal Fractions lookup 7 subtable" one slash four
EndChar

StartChar: onehalf
Encoding: 189 189 127
Width: 1906
GlyphClass: 2
Flags: W
LayerCount: 2
Fore
SplineSet
186 -104 m 1,0,-1
 1398 1566 l 1,1,-1
 1656 1566 l 1,2,-1
 452 -104 l 1,3,-1
 186 -104 l 1,0,-1
1144 626 m 1,4,5
 1156 664 1156 664 1168 690 c 128,-1,6
 1180 716 1180 716 1213 767 c 128,-1,7
 1246 818 1246 818 1285 851 c 128,-1,8
 1324 884 1324 884 1388 911 c 128,-1,9
 1452 938 1452 938 1526 938 c 0,10,11
 1670 938 1670 938 1746 854 c 128,-1,12
 1822 770 1822 770 1798 630 c 0,13,14
 1788 572 1788 572 1767 525 c 128,-1,15
 1746 478 1746 478 1698 427 c 128,-1,16
 1650 376 1650 376 1628 355 c 128,-1,17
 1606 334 1606 334 1538 274 c 0,18,19
 1418 172 1418 172 1372 114 c 1,20,-1
 1710 114 l 1,21,-1
 1674 -96 l 1,22,-1
 1038 -96 l 1,23,24
 1064 62 1064 62 1144 171 c 128,-1,25
 1224 280 1224 280 1438 458 c 0,26,27
 1540 542 1540 542 1554 634 c 0,28,29
 1562 678 1562 678 1543 703 c 128,-1,30
 1524 728 1524 728 1490 728 c 0,31,32
 1450 728 1450 728 1417 698 c 128,-1,33
 1384 668 1384 668 1370 638 c 128,-1,34
 1356 608 1356 608 1338 562 c 1,35,-1
 1144 626 l 1,4,5
196 1208 m 1,36,-1
 228 1406 l 1,37,-1
 298 1406 l 2,38,39
 472 1406 472 1406 494 1538 c 2,40,-1
 502 1584 l 1,41,-1
 718 1584 l 1,42,-1
 550 568 l 1,43,-1
 306 568 l 1,44,-1
 412 1208 l 1,45,-1
 196 1208 l 1,36,-1
EndSplineSet
Ligature2: "'frac' Diagonal Fractions lookup 7 subtable" one fraction two
Ligature2: "'frac' Diagonal Fractions lookup 7 subtable" one slash two
EndChar

StartChar: threequarters
Encoding: 190 190 128
Width: 1910
GlyphClass: 2
Flags: W
LayerCount: 2
Fore
SplineSet
120 814 m 1,0,-1
 326 884 l 1,1,2
 332 856 332 856 337 842 c 128,-1,3
 342 828 342 828 356 802 c 128,-1,4
 370 776 370 776 394 763 c 128,-1,5
 418 750 418 750 454 750 c 0,6,7
 500 750 500 750 536 780 c 128,-1,8
 572 810 572 810 582 866 c 0,9,10
 590 916 590 916 561 949 c 128,-1,11
 532 982 532 982 470 982 c 0,12,13
 442 982 442 982 352 972 c 1,14,-1
 388 1184 l 1,15,16
 430 1180 430 1180 498 1180 c 0,17,18
 540 1180 540 1180 576 1208 c 128,-1,19
 612 1236 612 1236 620 1288 c 0,20,21
 628 1332 628 1332 608 1359 c 128,-1,22
 588 1386 588 1386 548 1386 c 0,23,24
 500 1386 500 1386 470 1350 c 128,-1,25
 440 1314 440 1314 410 1248 c 1,26,-1
 222 1308 l 1,27,28
 256 1398 256 1398 309 1461 c 128,-1,29
 362 1524 362 1524 419 1550 c 128,-1,30
 476 1576 476 1576 517 1586 c 128,-1,31
 558 1596 558 1596 598 1596 c 0,32,33
 744 1596 744 1596 817 1515 c 128,-1,34
 890 1434 890 1434 870 1308 c 0,35,36
 848 1180 848 1180 740 1096 c 1,37,38
 854 1016 854 1016 830 866 c 0,39,40
 804 714 804 714 694 627 c 128,-1,41
 584 540 584 540 420 540 c 0,42,43
 304 540 304 540 217 607 c 128,-1,44
 130 674 130 674 120 814 c 1,0,-1
1064 276 m 1,45,-1
 1586 920 l 1,46,-1
 1786 920 l 1,47,-1
 1684 298 l 1,48,-1
 1786 298 l 1,49,-1
 1752 90 l 1,50,-1
 1650 90 l 1,51,-1
 1616 -110 l 1,52,-1
 1378 -110 l 1,53,-1
 1410 90 l 1,54,-1
 1034 90 l 1,55,-1
 1064 276 l 1,45,-1
1308 298 m 1,56,-1
 1444 298 l 1,57,-1
 1462 402 l 2,58,59
 1464 420 1464 420 1475 479 c 128,-1,60
 1486 538 1486 538 1488 544 c 1,61,-1
 1308 298 l 1,56,-1
306 -104 m 1,62,-1
 1530 1566 l 1,63,-1
 1790 1566 l 1,64,-1
 570 -104 l 1,65,-1
 306 -104 l 1,62,-1
EndSplineSet
Ligature2: "'frac' Diagonal Fractions lookup 7 subtable" three fraction four
Ligature2: "'frac' Diagonal Fractions lookup 7 subtable" three slash four
EndChar

StartChar: questiondown
Encoding: 191 191 129
Width: 1124
GlyphClass: 2
Flags: W
LayerCount: 2
Fore
SplineSet
8 2 m 0,0,1
 22 90 22 90 66 160 c 128,-1,2
 110 230 110 230 164 276 c 128,-1,3
 218 322 218 322 272 365 c 128,-1,4
 326 408 326 408 368 467 c 128,-1,5
 410 526 410 526 422 598 c 2,6,-1
 434 666 l 1,7,-1
 730 666 l 1,8,-1
 714 570 l 2,9,10
 700 482 700 482 656 410 c 128,-1,11
 612 338 612 338 558 291 c 128,-1,12
 504 244 504 244 451 202 c 128,-1,13
 398 160 398 160 358 105 c 128,-1,14
 318 50 318 50 308 -14 c 0,15,16
 296 -86 296 -86 328 -129 c 128,-1,17
 360 -172 360 -172 424 -172 c 0,18,19
 498 -172 498 -172 557 -120 c 128,-1,20
 616 -68 616 -68 674 42 c 1,21,-1
 920 -46 l 1,22,23
 856 -202 856 -202 714 -315 c 128,-1,24
 572 -428 572 -428 382 -428 c 0,25,26
 186 -428 186 -428 81 -309 c 128,-1,27
 -24 -190 -24 -190 8 2 c 0,0,1
426 774 m 1,28,-1
 478 1090 l 1,29,-1
 824 1090 l 1,30,-1
 772 774 l 1,31,-1
 426 774 l 1,28,-1
EndSplineSet
EndChar

StartChar: AE
Encoding: 198 198 136
Width: 1894
GlyphClass: 3
Flags: W
LayerCount: 2
Fore
SplineSet
568 568 m 1,0,-1
 888 568 l 1,1,-1
 990 1184 l 1,2,-1
 972 1184 l 1,3,-1
 568 568 l 1,0,-1
-102 0 m 1,4,-1
 872 1470 l 1,5,-1
 1982 1470 l 1,6,-1
 1940 1216 l 1,7,-1
 1288 1216 l 1,8,-1
 1232 884 l 1,9,-1
 1816 884 l 1,10,-1
 1776 634 l 1,11,-1
 1172 634 l 1,12,-1
 1108 254 l 1,13,-1
 1800 254 l 1,14,-1
 1758 0 l 1,15,-1
 794 0 l 1,16,-1
 848 328 l 1,17,-1
 416 328 l 1,18,-1
 204 0 l 1,19,-1
 -102 0 l 1,4,-1
EndSplineSet
EndChar

StartChar: multiply
Encoding: 215 215 153
Width: 1080
GlyphClass: 2
Flags: W
LayerCount: 2
Fore
SplineSet
32 428 m 1,0,-1
 392 730 l 1,1,-1
 132 1030 l 1,2,-1
 346 1212 l 1,3,-1
 596 908 l 1,4,-1
 950 1212 l 1,5,-1
 1106 1030 l 1,6,-1
 744 730 l 1,7,-1
 1006 428 l 1,8,-1
 790 248 l 1,9,-1
 538 552 l 1,10,-1
 186 248 l 1,11,-1
 32 428 l 1,0,-1
EndSplineSet
EndChar

StartChar: Oslash
Encoding: 216 216 154
Width: 1376
GlyphClass: 2
Flags: W
LayerCount: 2
Fore
SplineSet
86 734 m 0,0,1
 142 1078 142 1078 352 1290 c 128,-1,2
 562 1502 562 1502 844 1502 c 0,3,4
 988 1502 988 1502 1096 1444 c 1,5,-1
 1184 1572 l 1,6,-1
 1420 1572 l 1,7,-1
 1244 1320 l 1,8,9
 1410 1108 1410 1108 1348 734 c 0,10,11
 1292 390 1292 390 1082 179 c 128,-1,12
 872 -32 872 -32 590 -32 c 0,13,14
 442 -32 442 -32 348 16 c 1,15,-1
 262 -102 l 1,16,-1
 32 -102 l 1,17,-1
 198 132 l 1,18,19
 22 348 22 348 86 734 c 0,0,1
1040 1038 m 1,20,-1
 514 250 l 1,21,22
 550 222 550 222 632 222 c 0,23,24
 786 222 786 222 895 360 c 128,-1,25
 1004 498 1004 498 1042 734 c 0,26,27
 1072 914 1072 914 1040 1038 c 1,20,-1
932 1210 m 1,28,29
 876 1246 876 1246 802 1246 c 0,30,31
 648 1246 648 1246 538 1108 c 128,-1,32
 428 970 428 970 390 734 c 0,33,34
 360 552 360 552 396 412 c 1,35,-1
 932 1210 l 1,28,29
EndSplineSet
EndChar

StartChar: Thorn
Encoding: 222 222 160
Width: 1108
GlyphClass: 2
Flags: W
LayerCount: 2
Fore
SplineSet
36 0 m 1,0,-1
 278 1470 l 1,1,-1
 568 1470 l 1,2,-1
 530 1234 l 1,3,-1
 620 1234 l 2,4,5
 774 1234 774 1234 880 1191 c 128,-1,6
 986 1148 986 1148 1032 1074 c 128,-1,7
 1078 1000 1078 1000 1091 919 c 128,-1,8
 1104 838 1104 838 1090 744 c 0,9,10
 1050 498 1050 498 885 370 c 128,-1,11
 720 242 720 242 472 242 c 2,12,-1
 366 242 l 1,13,-1
 326 0 l 1,14,-1
 36 0 l 1,0,-1
408 498 m 1,15,-1
 486 498 l 2,16,17
 620 498 620 498 691 560 c 128,-1,18
 762 622 762 622 782 748 c 0,19,20
 820 982 820 982 558 982 c 2,21,-1
 488 982 l 1,22,-1
 408 498 l 1,15,-1
EndSplineSet
EndChar

StartChar: germandbls
Encoding: 223 223 161
Width: 1192
GlyphClass: 3
Flags: W
LayerCount: 2
Fore
SplineSet
36 0 m 1,0,-1
 210 1050 l 2,1,2
 246 1270 246 1270 391 1386 c 128,-1,3
 536 1502 536 1502 722 1502 c 0,4,5
 936 1502 936 1502 1045 1394 c 128,-1,6
 1154 1286 1154 1286 1122 1096 c 0,7,8
 1090 904 1090 904 922 806 c 1,9,-1
 922 802 l 1,10,11
 1152 708 1152 708 1104 418 c 0,12,13
 1068 202 1068 202 927 85 c 128,-1,14
 786 -32 786 -32 574 -32 c 0,15,16
 444 -32 444 -32 364 -4 c 1,17,-1
 408 262 l 1,18,19
 500 220 500 220 606 220 c 0,20,21
 680 220 680 220 742 279 c 128,-1,22
 804 338 804 338 818 420 c 0,23,24
 856 646 856 646 626 646 c 2,25,-1
 494 646 l 1,26,-1
 536 898 l 1,27,-1
 642 898 l 2,28,29
 708 898 708 898 762 944 c 128,-1,30
 816 990 816 990 830 1080 c 0,31,32
 842 1156 842 1156 805 1201 c 128,-1,33
 768 1246 768 1246 692 1246 c 0,34,35
 610 1246 610 1246 556 1187 c 128,-1,36
 502 1128 502 1128 486 1026 c 2,37,-1
 316 0 l 1,38,-1
 36 0 l 1,0,-1
EndSplineSet
EndChar

StartChar: ae
Encoding: 230 230 168
Width: 1654
GlyphClass: 3
Flags: W
LayerCount: 2
Fore
SplineSet
4 300 m 0,0,1
 28 448 28 448 163 545 c 128,-1,2
 298 642 298 642 520 674 c 0,3,4
 638 692 638 692 690 702 c 1,5,-1
 700 768 l 2,6,7
 710 826 710 826 667 858 c 128,-1,8
 624 890 624 890 564 890 c 0,9,10
 412 890 412 890 264 758 c 1,11,-1
 130 900 l 1,12,13
 328 1112 328 1112 602 1112 c 0,14,15
 810 1112 810 1112 904 994 c 1,16,17
 1044 1112 1044 1112 1232 1112 c 0,18,19
 1422 1112 1422 1112 1534 954 c 128,-1,20
 1646 796 1646 796 1604 540 c 0,21,22
 1602 526 1602 526 1584 440 c 1,23,-1
 908 440 l 1,24,-1
 904 422 l 2,25,26
 892 338 892 338 936 267 c 128,-1,27
 980 196 980 196 1088 196 c 0,28,29
 1234 196 1234 196 1336 340 c 1,30,-1
 1542 254 l 1,31,32
 1478 138 1478 138 1346 53 c 128,-1,33
 1214 -32 1214 -32 1048 -32 c 0,34,35
 804 -32 804 -32 702 154 c 1,36,37
 612 62 612 62 519 15 c 128,-1,38
 426 -32 426 -32 310 -32 c 0,39,40
 144 -32 144 -32 62 59 c 128,-1,41
 -20 150 -20 150 4 300 c 0,0,1
280 320 m 0,42,43
 272 276 272 276 302 240 c 128,-1,44
 332 204 332 204 386 204 c 0,45,46
 478 204 478 204 554 272 c 128,-1,47
 630 340 630 340 646 436 c 2,48,-1
 658 512 l 1,49,50
 646 510 646 510 598 499 c 128,-1,51
 550 488 550 488 516 482 c 0,52,53
 302 454 302 454 280 320 c 0,42,43
940 636 m 1,54,-1
 1346 636 l 1,55,56
 1346 640 1346 640 1348 644 c 0,57,58
 1364 744 1364 744 1322 816 c 128,-1,59
 1280 888 1280 888 1198 888 c 0,60,61
 1028 888 1028 888 950 686 c 1,62,-1
 940 636 l 1,54,-1
EndSplineSet
EndChar

StartChar: eth
Encoding: 240 240 178
Width: 1046
GlyphClass: 2
Flags: W
LayerCount: 2
Fore
SplineSet
32 456 m 0,0,1
 70 690 70 690 220 832 c 128,-1,2
 370 974 370 974 570 974 c 0,3,4
 686 974 686 974 750 928 c 1,5,6
 742 1030 742 1030 666 1124 c 1,7,-1
 482 996 l 1,8,-1
 356 1178 l 1,9,-1
 490 1272 l 1,10,11
 420 1308 420 1308 346 1322 c 1,12,-1
 482 1554 l 1,13,14
 568 1540 568 1540 648 1510 c 0,15,16
 696 1490 696 1490 750 1454 c 1,17,-1
 964 1604 l 1,18,-1
 1086 1420 l 1,19,-1
 910 1296 l 1,20,21
 932 1266 932 1266 948 1232 c 0,22,23
 1000 1128 1000 1128 1018 957 c 128,-1,24
 1036 786 1036 786 1000 570 c 0,25,26
 954 296 954 296 798 132 c 128,-1,27
 642 -32 642 -32 408 -32 c 0,28,29
 204 -32 204 -32 100 102 c 128,-1,30
 -4 236 -4 236 32 456 c 0,0,1
310 468 m 0,31,32
 292 356 292 356 332 284 c 128,-1,33
 372 212 372 212 460 212 c 0,34,35
 542 212 542 212 604 281 c 128,-1,36
 666 350 666 350 686 468 c 0,37,38
 706 584 706 584 667 655 c 128,-1,39
 628 726 628 726 542 726 c 0,40,41
 458 726 458 726 393 654 c 128,-1,42
 328 582 328 582 310 468 c 0,31,32
EndSplineSet
EndChar

StartChar: divide
Encoding: 247 247 185
Width: 1082
GlyphClass: 2
Flags: W
LayerCount: 2
Fore
SplineSet
450 970 m 1,0,-1
 500 1278 l 1,1,-1
 812 1278 l 1,2,-1
 760 970 l 1,3,-1
 450 970 l 1,0,-1
52 596 m 1,4,-1
 94 850 l 1,5,-1
 1082 850 l 1,6,-1
 1040 596 l 1,7,-1
 52 596 l 1,4,-1
316 166 m 1,8,-1
 368 478 l 1,9,-1
 680 478 l 1,10,-1
 628 166 l 1,11,-1
 316 166 l 1,8,-1
EndSplineSet
EndChar

StartChar: oslash
Encoding: 248 248 186
Width: 1056
GlyphClass: 2
Flags: W
LayerCount: 2
Fore
SplineSet
46 538 m 0,0,1
 64 650 64 650 108 749 c 128,-1,2
 152 848 152 848 221 932 c 128,-1,3
 290 1016 290 1016 393 1064 c 128,-1,4
 496 1112 496 1112 622 1112 c 0,5,6
 724 1112 724 1112 804 1078 c 1,7,-1
 894 1214 l 1,8,-1
 1094 1214 l 1,9,-1
 934 976 l 1,10,11
 1050 818 1050 818 1004 538 c 0,12,13
 992 466 992 466 968 395 c 128,-1,14
 944 324 944 324 898 245 c 128,-1,15
 852 166 852 166 791 106 c 128,-1,16
 730 46 730 46 636 7 c 128,-1,17
 542 -32 542 -32 430 -32 c 0,18,19
 320 -32 320 -32 250 -4 c 1,20,-1
 176 -108 l 1,21,-1
 -22 -108 l 1,22,-1
 120 96 l 1,23,24
 -2 254 -2 254 46 538 c 0,0,1
732 690 m 1,25,-1
 406 226 l 1,26,27
 436 212 436 212 472 212 c 0,28,29
 504 212 504 212 538 226 c 128,-1,30
 572 240 572 240 610 274 c 128,-1,31
 648 308 648 308 680 377 c 128,-1,32
 712 446 712 446 728 538 c 0,33,34
 742 622 742 622 732 690 c 1,25,-1
648 850 m 1,35,36
 612 868 612 868 580 868 c 0,37,38
 502 868 502 868 427 793 c 128,-1,39
 352 718 352 718 322 538 c 0,40,41
 308 458 308 458 320 378 c 1,42,-1
 648 850 l 1,35,36
EndSplineSet
EndChar

StartChar: thorn
Encoding: 254 254 192
Width: 1110
GlyphClass: 2
Flags: W
LayerCount: 2
Fore
SplineSet
388 540 m 0,0,1
 362 388 362 388 400 300 c 128,-1,2
 438 212 438 212 530 212 c 256,3,4
 622 212 622 212 688 296 c 128,-1,5
 754 380 754 380 782 540 c 0,6,7
 808 692 808 692 770 780 c 128,-1,8
 732 868 732 868 638 868 c 256,9,10
 544 868 544 868 478 779 c 128,-1,11
 412 690 412 690 388 540 c 0,0,1
-38 -424 m 1,12,-1
 282 1514 l 1,13,-1
 552 1514 l 1,14,-1
 464 992 l 1,15,16
 498 1040 498 1040 567 1076 c 128,-1,17
 636 1112 636 1112 718 1112 c 0,18,19
 904 1112 904 1112 1003 958 c 128,-1,20
 1102 804 1102 804 1058 540 c 0,21,22
 1034 390 1034 390 974 274 c 128,-1,23
 914 158 914 158 838 94 c 128,-1,24
 762 30 762 30 684 -1 c 128,-1,25
 606 -32 606 -32 528 -32 c 0,26,27
 370 -32 370 -32 316 84 c 1,28,-1
 232 -424 l 1,29,-1
 -38 -424 l 1,12,-1
EndSplineSet
EndChar

StartChar: dcroat
Encoding: 273 273 211
Width: 1100
GlyphClass: 2
Flags: W
LayerCount: 2
Fore
SplineSet
44 526 m 0,0,1
 88 796 88 796 236 939 c 128,-1,2
 384 1082 384 1082 570 1082 c 0,3,4
 648 1082 648 1082 705 1052 c 128,-1,5
 762 1022 762 1022 784 978 c 1,6,-1
 814 1150 l 1,7,-1
 436 1150 l 1,8,-1
 472 1370 l 1,9,-1
 850 1370 l 1,10,-1
 874 1514 l 1,11,-1
 1144 1514 l 1,12,-1
 1120 1370 l 1,13,-1
 1214 1370 l 1,14,-1
 1178 1150 l 1,15,-1
 1084 1150 l 1,16,-1
 894 0 l 1,17,-1
 632 0 l 1,18,-1
 650 108 l 1,19,20
 604 46 604 46 534 7 c 128,-1,21
 464 -32 464 -32 386 -32 c 0,22,23
 204 -32 204 -32 101 111 c 128,-1,24
 -2 254 -2 254 44 526 c 0,0,1
322 526 m 0,25,26
 296 370 296 370 338 291 c 128,-1,27
 380 212 380 212 466 212 c 0,28,29
 556 212 556 212 623 297 c 128,-1,30
 690 382 690 382 714 526 c 0,31,32
 738 666 738 666 699 752 c 128,-1,33
 660 838 660 838 570 838 c 0,34,35
 482 838 482 838 414 753 c 128,-1,36
 346 668 346 668 322 526 c 0,25,26
EndSplineSet
EndChar

StartChar: uni0123
Encoding: 291 291 229
Width: 1070
GlyphClass: 2
Flags: W
LayerCount: 2
Fore
SplineSet
482 1242 m 1,0,-1
 726 1634 l 1,1,-1
 910 1634 l 1,2,-1
 772 1242 l 1,3,-1
 482 1242 l 1,0,-1
334 562 m 0,4,5
 310 412 310 412 347 334 c 128,-1,6
 384 256 384 256 466 256 c 256,7,8
 548 256 548 256 612 334 c 128,-1,9
 676 412 676 412 700 562 c 0,10,11
 724 708 724 708 687 788 c 128,-1,12
 650 868 650 868 566 868 c 256,13,14
 482 868 482 868 420 788 c 128,-1,15
 358 708 358 708 334 562 c 0,4,5
56 560 m 0,16,17
 98 814 98 814 243 963 c 128,-1,18
 388 1112 388 1112 574 1112 c 0,19,20
 654 1112 654 1112 704 1073 c 128,-1,21
 754 1034 754 1034 770 988 c 1,22,-1
 786 1080 l 1,23,-1
 1056 1080 l 1,24,-1
 906 164 l 2,25,26
 856 -144 856 -144 713 -287 c 128,-1,27
 570 -430 570 -430 332 -430 c 0,28,29
 206 -430 206 -430 108 -375 c 128,-1,30
 10 -320 10 -320 -42 -216 c 1,31,-1
 156 -82 l 1,32,33
 230 -202 230 -202 374 -202 c 0,34,35
 452 -202 452 -202 519 -143 c 128,-1,36
 586 -84 586 -84 608 8 c 0,37,38
 622 74 622 74 630 114 c 1,39,40
 592 68 592 68 526 40 c 128,-1,41
 460 12 460 12 402 12 c 0,42,43
 210 12 210 12 112 160 c 128,-1,44
 14 308 14 308 56 560 c 0,16,17
EndSplineSet
EndChar

StartChar: Hbar
Encoding: 294 294 232
Width: 1360
GlyphClass: 2
Flags: W
LayerCount: 2
Fore
SplineSet
94 1068 m 1,0,-1
 132 1304 l 1,1,-1
 260 1304 l 1,2,-1
 288 1470 l 1,3,-1
 578 1470 l 1,4,-1
 550 1304 l 1,5,-1
 1056 1304 l 1,6,-1
 1084 1470 l 1,7,-1
 1374 1470 l 1,8,-1
 1346 1304 l 1,9,-1
 1476 1304 l 1,10,-1
 1436 1068 l 1,11,-1
 1306 1068 l 1,12,-1
 1130 0 l 1,13,-1
 840 0 l 1,14,-1
 944 628 l 1,15,-1
 438 628 l 1,16,-1
 334 0 l 1,17,-1
 44 0 l 1,18,-1
 222 1068 l 1,19,-1
 94 1068 l 1,0,-1
1016 1068 m 1,20,-1
 512 1068 l 1,21,-1
 480 882 l 1,22,-1
 986 882 l 1,23,-1
 1016 1068 l 1,20,-1
EndSplineSet
EndChar

StartChar: hbar
Encoding: 295 295 233
Width: 1058
GlyphClass: 2
Flags: W
LayerCount: 2
Fore
SplineSet
94 1150 m 1,0,-1
 130 1368 l 1,1,-1
 248 1368 l 1,2,-1
 272 1514 l 1,3,-1
 540 1514 l 1,4,-1
 516 1368 l 1,5,-1
 872 1368 l 1,6,-1
 836 1150 l 1,7,-1
 480 1150 l 1,8,-1
 446 948 l 1,9,-1
 448 948 l 1,10,11
 564 1052 564 1052 700 1052 c 0,12,13
 762 1052 762 1052 816 1033 c 128,-1,14
 870 1014 870 1014 916 970 c 128,-1,15
 962 926 962 926 981 839 c 128,-1,16
 1000 752 1000 752 980 632 c 2,17,-1
 876 0 l 1,18,-1
 606 0 l 1,19,-1
 706 604 l 2,20,21
 740 806 740 806 610 806 c 0,22,23
 526 806 526 806 461 728 c 0,24,25
 394 650 394 650 378 544 c 2,26,-1
 288 0 l 1,27,-1
 22 0 l 1,28,-1
 212 1150 l 1,29,-1
 94 1150 l 1,0,-1
EndSplineSet
EndChar

StartChar: dotlessi
Encoding: 305 305 243
Width: 490
GlyphClass: 2
Flags: W
LayerCount: 2
Fore
SplineSet
18 0 m 1,0,-1
 196 1080 l 1,1,-1
 464 1080 l 1,2,-1
 286 0 l 1,3,-1
 18 0 l 1,0,-1
EndSplineSet
EndChar

StartChar: kgreenlandic
Encoding: 312 312 250
Width: 1044
GlyphClass: 2
Flags: W
LayerCount: 2
Fore
SplineSet
18 0 m 1,0,-1
 196 1080 l 1,1,-1
 462 1080 l 1,2,-1
 404 728 l 1,3,-1
 410 728 l 1,4,-1
 808 1080 l 1,5,-1
 1150 1080 l 1,6,-1
 612 606 l 1,7,-1
 972 0 l 1,8,-1
 650 0 l 1,9,-1
 404 400 l 1,10,-1
 340 336 l 1,11,-1
 284 0 l 1,12,-1
 18 0 l 1,0,-1
EndSplineSet
EndChar

StartChar: Lslash
Encoding: 321 321 259
Width: 1092
GlyphClass: 2
Flags: W
LayerCount: 2
Fore
SplineSet
456 658 m 1,0,-1
 390 254 l 1,1,-1
 1022 254 l 1,2,-1
 980 0 l 1,3,-1
 56 0 l 1,4,-1
 134 478 l 1,5,-1
 -26 386 l 1,6,-1
 -122 608 l 1,7,-1
 184 780 l 1,8,-1
 298 1470 l 1,9,-1
 590 1470 l 1,10,-1
 506 960 l 1,11,-1
 736 1094 l 1,12,-1
 832 874 l 1,13,-1
 456 658 l 1,0,-1
EndSplineSet
EndChar

StartChar: lslash
Encoding: 322 322 260
Width: 526
GlyphClass: 2
Flags: W
LayerCount: 2
Fore
SplineSet
418 690 m 1,0,-1
 304 0 l 1,1,-1
 36 0 l 1,2,-1
 122 524 l 1,3,-1
 -38 434 l 1,4,-1
 -130 656 l 1,5,-1
 172 826 l 1,6,-1
 286 1514 l 1,7,-1
 556 1514 l 1,8,-1
 468 992 l 1,9,-1
 630 1080 l 1,10,-1
 718 860 l 1,11,-1
 418 690 l 1,0,-1
EndSplineSet
EndChar

StartChar: Eng
Encoding: 330 330 268
Width: 1350
GlyphClass: 2
Flags: W
LayerCount: 2
Fore
SplineSet
36 0 m 1,0,-1
 278 1470 l 1,1,-1
 576 1470 l 1,2,-1
 934 450 l 1,3,-1
 940 450 l 1,4,5
 942 624 942 624 984 874 c 2,6,-1
 1082 1470 l 1,7,-1
 1376 1470 l 1,8,-1
 1140 40 l 2,9,10
 1120 -86 1120 -86 1071 -178 c 128,-1,11
 1022 -270 1022 -270 957 -317 c 128,-1,12
 892 -364 892 -364 827 -386 c 128,-1,13
 762 -408 762 -408 690 -408 c 0,14,15
 606 -408 606 -408 486 -384 c 1,16,-1
 526 -136 l 1,17,18
 590 -152 590 -152 670 -152 c 0,19,20
 742 -152 742 -152 779 -119 c 128,-1,21
 816 -86 816 -86 838 -6 c 1,22,-1
 556 754 l 1,23,-1
 472 1012 l 1,24,-1
 464 1012 l 1,25,26
 450 734 450 734 424 588 c 2,27,-1
 328 0 l 1,28,-1
 36 0 l 1,0,-1
EndSplineSet
EndChar

StartChar: eng
Encoding: 331 331 269
Width: 1046
GlyphClass: 2
Flags: W
LayerCount: 2
Fore
SplineSet
8 0 m 1,0,-1
 186 1080 l 1,1,-1
 444 1080 l 1,2,-1
 428 976 l 1,3,-1
 428 976 l 1,4,5
 542 1112 542 1112 710 1112 c 0,6,7
 1048 1112 1048 1112 980 692 c 2,8,-1
 868 16 l 2,9,10
 848 -110 848 -110 796 -202 c 128,-1,11
 744 -294 744 -294 679 -341 c 128,-1,12
 614 -388 614 -388 552 -409 c 128,-1,13
 490 -430 490 -430 430 -430 c 0,14,15
 364 -430 364 -430 254 -410 c 1,16,-1
 296 -158 l 1,17,18
 374 -178 374 -178 426 -178 c 0,19,20
 566 -178 566 -178 592 -22 c 2,21,-1
 704 658 l 2,22,23
 720 758 720 758 703 813 c 128,-1,24
 686 868 686 868 612 868 c 0,25,26
 526 868 526 868 461 796 c 128,-1,27
 396 724 396 724 378 614 c 2,28,-1
 276 0 l 1,29,-1
 8 0 l 1,0,-1
EndSplineSet
EndChar

StartChar: OE
Encoding: 338 338 276
Width: 1922
GlyphClass: 3
Flags: W
LayerCount: 2
Fore
SplineSet
86 734 m 256,0,1
 142 1078 142 1078 352 1290 c 128,-1,2
 562 1502 562 1502 846 1502 c 0,3,4
 972 1502 972 1502 1040 1470 c 1,5,-1
 2008 1470 l 1,6,-1
 1966 1214 l 1,7,-1
 1278 1214 l 1,8,-1
 1224 884 l 1,9,-1
 1844 884 l 1,10,-1
 1802 634 l 1,11,-1
 1182 634 l 1,12,-1
 1120 254 l 1,13,-1
 1830 254 l 1,14,-1
 1788 0 l 1,15,-1
 802 0 l 1,16,17
 700 -32 700 -32 592 -32 c 0,18,19
 304 -32 304 -32 167 179 c 128,-1,20
 30 390 30 390 86 734 c 256,0,1
390 734 m 256,21,22
 350 498 350 498 415 360 c 128,-1,23
 480 222 480 222 634 222 c 0,24,25
 738 222 738 222 832 296 c 1,26,-1
 978 1172 l 1,27,28
 918 1246 918 1246 804 1246 c 0,29,30
 650 1246 650 1246 540 1108 c 128,-1,31
 430 970 430 970 390 734 c 256,21,22
EndSplineSet
EndChar

StartChar: uni0163
Encoding: 355 355 293
Width: 700
GlyphClass: 2
Flags: W
LayerCount: 2
Fore
SplineSet
72 838 m 1,0,-1
 112 1080 l 1,1,-1
 258 1080 l 1,2,-1
 310 1388 l 1,3,-1
 576 1388 l 1,4,-1
 526 1080 l 1,5,-1
 736 1080 l 1,6,-1
 696 838 l 1,7,-1
 486 838 l 1,8,-1
 406 362 l 2,9,10
 386 244 386 244 484 244 c 2,11,-1
 600 244 l 1,12,-1
 560 0 l 1,13,-1
 466 0 l 1,14,-1
 444 -50 l 1,15,16
 508 -66 508 -66 539 -110 c 128,-1,17
 570 -154 570 -154 560 -218 c 0,18,19
 546 -306 546 -306 463 -370 c 128,-1,20
 380 -434 380 -434 218 -434 c 0,21,22
 128 -434 128 -434 54 -414 c 1,23,-1
 84 -238 l 1,24,25
 170 -256 170 -256 238 -256 c 0,26,27
 344 -256 344 -256 354 -200 c 0,28,29
 362 -148 362 -148 186 -142 c 2,30,-1
 170 -142 l 1,31,-1
 240 34 l 1,32,33
 98 110 98 110 136 346 c 2,34,-1
 218 838 l 1,35,-1
 72 838 l 1,0,-1
EndSplineSet
Substitution2: "'locl' Localized Forms in Latin lookup 3 subtable" uni021B
Substitution2: "'locl' Localized Forms in Latin lookup 2 subtable" uni021B
Substitution2: "'aalt' Access All Alternates lookup 0 subtable" uni021B
EndChar

StartChar: tbar
Encoding: 359 359 297
Width: 702
GlyphClass: 2
Flags: W
LayerCount: 2
Fore
SplineSet
74 838 m 1,0,-1
 114 1080 l 1,1,-1
 260 1080 l 1,2,-1
 310 1388 l 1,3,-1
 578 1388 l 1,4,-1
 526 1080 l 1,5,-1
 740 1080 l 1,6,-1
 700 838 l 1,7,-1
 486 838 l 1,8,-1
 470 734 l 1,9,-1
 676 734 l 1,10,-1
 638 498 l 1,11,-1
 430 498 l 1,12,-1
 408 362 l 2,13,14
 388 244 388 244 486 244 c 2,15,-1
 602 244 l 1,16,-1
 562 0 l 1,17,-1
 414 0 l 2,18,19
 82 0 82 0 138 346 c 2,20,-1
 164 498 l 1,21,-1
 -10 498 l 1,22,-1
 30 734 l 1,23,-1
 202 734 l 1,24,-1
 220 838 l 1,25,-1
 74 838 l 1,0,-1
EndSplineSet
EndChar

StartChar: longs
Encoding: 383 383 321
Width: 598
GlyphClass: 2
Flags: W
LayerCount: 2
Fore
SplineSet
26 0 m 1,0,-1
 220 1170 l 2,1,2
 248 1340 248 1340 343 1427 c 128,-1,3
 438 1514 438 1514 586 1514 c 2,4,-1
 762 1514 l 1,5,-1
 722 1268 l 1,6,-1
 600 1268 l 2,7,8
 550 1268 550 1268 523 1240 c 128,-1,9
 496 1212 496 1212 484 1144 c 2,10,-1
 294 0 l 1,11,-1
 26 0 l 1,0,-1
EndSplineSet
EndChar

StartChar: uni0180
Encoding: 384 384 322
Width: 1100
GlyphClass: 2
Flags: W
LayerCount: 2
Fore
SplineSet
374 530 m 0,0,1
 350 384 350 384 389 298 c 128,-1,2
 428 212 428 212 522 212 c 0,3,4
 608 212 608 212 675 294 c 128,-1,5
 742 376 742 376 768 530 c 0,6,7
 792 674 792 674 753 761 c 128,-1,8
 714 848 714 848 626 848 c 0,9,10
 534 848 534 848 466 760 c 128,-1,11
 398 672 398 672 374 530 c 0,0,1
94 1150 m 1,12,-1
 132 1372 l 1,13,-1
 250 1372 l 1,14,-1
 272 1514 l 1,15,-1
 540 1514 l 1,16,-1
 516 1372 l 1,17,-1
 862 1372 l 1,18,-1
 826 1150 l 1,19,-1
 480 1150 l 1,20,-1
 450 978 l 1,21,22
 572 1092 572 1092 706 1092 c 0,23,24
 892 1092 892 1092 991 942 c 128,-1,25
 1090 792 1090 792 1046 530 c 0,26,27
 1022 382 1022 382 963 269 c 128,-1,28
 904 156 904 156 828 93 c 128,-1,29
 752 30 752 30 675 -1 c 128,-1,30
 598 -32 598 -32 524 -32 c 0,31,32
 438 -32 438 -32 378 10 c 128,-1,33
 318 52 318 52 298 106 c 1,34,-1
 282 0 l 1,35,-1
 22 0 l 1,36,-1
 212 1150 l 1,37,-1
 94 1150 l 1,12,-1
EndSplineSet
EndChar

StartChar: uni0182
Encoding: 386 386 324
Width: 1276
GlyphClass: 2
Flags: W
LayerCount: 2
Fore
SplineSet
370 254 m 1,0,-1
 668 254 l 2,1,2
 748 254 748 254 811 299 c 128,-1,3
 874 344 874 344 890 438 c 0,4,5
 902 516 902 516 864 572 c 128,-1,6
 826 628 826 628 730 628 c 2,7,-1
 432 628 l 1,8,-1
 370 254 l 1,0,-1
36 0 m 1,9,-1
 278 1470 l 1,10,-1
 1196 1470 l 1,11,-1
 1154 1214 l 1,12,-1
 528 1214 l 1,13,-1
 474 882 l 1,14,-1
 790 882 l 2,15,16
 1022 882 1022 882 1124 755 c 128,-1,17
 1226 628 1226 628 1194 438 c 0,18,19
 1164 254 1164 254 1021 127 c 128,-1,20
 878 0 878 0 664 0 c 2,21,-1
 36 0 l 1,9,-1
EndSplineSet
EndChar

StartChar: uni0183
Encoding: 387 387 325
Width: 1096
GlyphClass: 2
Flags: W
LayerCount: 2
Fore
SplineSet
372 540 m 0,0,1
 346 386 346 386 385 299 c 128,-1,2
 424 212 424 212 516 212 c 0,3,4
 604 212 604 212 671 295 c 128,-1,5
 738 378 738 378 764 540 c 0,6,7
 790 692 790 692 753 780 c 128,-1,8
 716 868 716 868 626 868 c 0,9,10
 528 868 528 868 462 778 c 128,-1,11
 396 688 396 688 372 540 c 0,0,1
18 0 m 1,12,-1
 264 1492 l 1,13,-1
 1030 1492 l 1,14,-1
 988 1246 l 1,15,-1
 490 1246 l 1,16,-1
 450 1004 l 1,17,18
 556 1112 556 1112 704 1112 c 0,19,20
 892 1112 892 1112 990 959 c 128,-1,21
 1088 806 1088 806 1044 540 c 0,22,23
 1020 392 1020 392 961 276 c 128,-1,24
 902 160 902 160 827 95 c 128,-1,25
 752 30 752 30 675 -1 c 128,-1,26
 598 -32 598 -32 518 -32 c 0,27,28
 434 -32 434 -32 374 11 c 128,-1,29
 314 54 314 54 294 106 c 1,30,-1
 276 0 l 1,31,-1
 18 0 l 1,12,-1
EndSplineSet
EndChar

StartChar: uni0184
Encoding: 388 388 326
Width: 1290
GlyphClass: 2
Flags: W
LayerCount: 2
Fore
SplineSet
82 1310 m 1,0,-1
 426 1470 l 1,1,-1
 584 1470 l 1,2,-1
 486 880 l 1,3,-1
 806 880 l 2,4,5
 1040 880 1040 880 1140 754 c 128,-1,6
 1240 628 1240 628 1208 438 c 0,7,8
 1178 252 1178 252 1036 126 c 128,-1,9
 894 0 894 0 680 0 c 2,10,-1
 48 0 l 1,11,-1
 240 1162 l 1,12,-1
 82 1310 l 1,0,-1
382 254 m 1,13,-1
 680 254 l 2,14,15
 760 254 760 254 824 298 c 128,-1,16
 888 342 888 342 904 438 c 0,17,18
 916 516 916 516 879 572 c 128,-1,19
 842 628 842 628 742 628 c 2,20,-1
 444 628 l 1,21,-1
 382 254 l 1,13,-1
EndSplineSet
EndChar

StartChar: uni0185
Encoding: 389 389 327
Width: 1102
GlyphClass: 2
Flags: W
LayerCount: 2
Fore
SplineSet
86 1352 m 1,0,-1
 398 1514 l 1,1,-1
 542 1514 l 1,2,-1
 458 1004 l 1,3,4
 484 1040 484 1040 554 1076 c 128,-1,5
 624 1112 624 1112 712 1112 c 0,6,7
 902 1112 902 1112 998 959 c 128,-1,8
 1094 806 1094 806 1050 540 c 0,9,10
 1026 394 1026 394 969 280 c 128,-1,11
 912 166 912 166 838 100 c 128,-1,12
 764 34 764 34 685 1 c 128,-1,13
 606 -32 606 -32 526 -32 c 0,14,15
 444 -32 444 -32 385 9 c 128,-1,16
 326 50 326 50 300 106 c 1,17,-1
 284 0 l 1,18,-1
 24 0 l 1,19,-1
 224 1206 l 1,20,-1
 86 1352 l 1,0,-1
378 540 m 0,21,22
 352 386 352 386 391 299 c 128,-1,23
 430 212 430 212 524 212 c 0,24,25
 614 212 614 212 680 297 c 128,-1,26
 746 382 746 382 772 540 c 0,27,28
 796 690 796 690 762 779 c 128,-1,29
 728 868 728 868 632 868 c 256,30,31
 536 868 536 868 470 780 c 128,-1,32
 404 692 404 692 378 540 c 0,21,22
EndSplineSet
EndChar

StartChar: uni0186
Encoding: 390 390 328
Width: 1308
GlyphClass: 2
Flags: W
LayerCount: 2
Fore
SplineSet
-2 376 m 1,0,-1
 276 462 l 1,1,2
 294 362 294 362 366 292 c 128,-1,3
 438 222 438 222 544 222 c 0,4,5
 702 222 702 222 820 361 c 128,-1,6
 938 500 938 500 976 736 c 0,7,8
 1014 968 1014 968 943 1107 c 128,-1,9
 872 1246 872 1246 714 1246 c 0,10,11
 608 1246 608 1246 534 1190 c 128,-1,12
 460 1134 460 1134 394 1044 c 1,13,-1
 158 1128 l 1,14,15
 250 1288 250 1288 406 1395 c 128,-1,16
 562 1502 562 1502 754 1502 c 0,17,18
 1040 1502 1040 1502 1189 1294 c 128,-1,19
 1338 1086 1338 1086 1280 736 c 0,20,21
 1220 376 1220 376 1000 172 c 128,-1,22
 780 -32 780 -32 500 -32 c 0,23,24
 404 -32 404 -32 323 -5 c 128,-1,25
 242 22 242 22 188 64 c 128,-1,26
 134 106 134 106 93 162 c 128,-1,27
 52 218 52 218 31 271 c 128,-1,28
 10 324 10 324 -2 376 c 1,0,-1
EndSplineSet
EndChar

StartChar: uni018B
Encoding: 395 395 333
Width: 1274
GlyphClass: 2
Flags: W
LayerCount: 2
Fore
SplineSet
342 438 m 0,0,1
 326 344 326 344 377 299 c 128,-1,2
 428 254 428 254 506 254 c 2,3,-1
 806 254 l 1,4,-1
 868 628 l 1,5,-1
 570 628 l 2,6,7
 474 628 474 628 414 572 c 128,-1,8
 354 516 354 516 342 438 c 0,0,1
40 438 m 0,9,10
 72 628 72 628 216 755 c 128,-1,11
 360 882 360 882 590 882 c 2,12,-1
 910 882 l 1,13,-1
 964 1214 l 1,14,-1
 336 1214 l 1,15,-1
 378 1470 l 1,16,-1
 1298 1470 l 1,17,-1
 1054 0 l 1,18,-1
 424 0 l 2,19,20
 212 0 212 0 111 127 c 128,-1,21
 10 254 10 254 40 438 c 0,9,10
EndSplineSet
EndChar

StartChar: uni018C
Encoding: 396 396 334
Width: 1096
GlyphClass: 2
Flags: W
LayerCount: 2
Fore
SplineSet
322 540 m 0,0,1
 296 378 296 378 336 295 c 128,-1,2
 376 212 376 212 466 212 c 0,3,4
 562 212 562 212 626 300 c 128,-1,5
 690 388 690 388 716 540 c 0,6,7
 740 688 740 688 706 778 c 128,-1,8
 672 868 672 868 574 868 c 0,9,10
 480 868 480 868 414 781 c 128,-1,11
 348 694 348 694 322 540 c 0,0,1
46 540 m 0,12,13
 90 806 90 806 238 959 c 128,-1,14
 386 1112 386 1112 576 1112 c 0,15,16
 724 1112 724 1112 788 1002 c 1,17,-1
 834 1270 l 1,18,-1
 336 1270 l 1,19,-1
 376 1514 l 1,20,-1
 1144 1514 l 1,21,-1
 894 0 l 1,22,-1
 632 0 l 1,23,-1
 650 106 l 1,24,25
 610 52 610 52 540 10 c 128,-1,26
 470 -32 470 -32 384 -32 c 0,27,28
 302 -32 302 -32 235 -1 c 128,-1,29
 168 30 168 30 115 96 c 128,-1,30
 62 162 62 162 42 276 c 128,-1,31
 22 390 22 390 46 540 c 0,12,13
EndSplineSet
EndChar

StartChar: uni018D
Encoding: 397 397 335
Width: 1140
GlyphClass: 2
Flags: W
LayerCount: 2
Fore
SplineSet
342 644 m 0,0,1
 310 452 310 452 550 334 c 1,2,3
 662 388 662 388 737 466 c 128,-1,4
 812 544 812 544 828 638 c 0,5,6
 844 740 844 740 794 805 c 128,-1,7
 744 870 744 870 632 870 c 0,8,9
 510 870 510 870 434 805 c 128,-1,10
 358 740 358 740 342 644 c 0,0,1
62 638 m 0,11,12
 100 866 100 866 262 989 c 128,-1,13
 424 1112 424 1112 674 1112 c 0,14,15
 916 1112 916 1112 1030 983 c 128,-1,16
 1144 854 1144 854 1110 650 c 0,17,18
 1090 528 1090 528 998 408 c 128,-1,19
 906 288 906 288 758 212 c 1,20,21
 824 162 824 162 848 87 c 128,-1,22
 872 12 872 12 860 -64 c 0,23,24
 830 -242 830 -242 687 -335 c 128,-1,25
 544 -428 544 -428 354 -428 c 0,26,27
 192 -428 192 -428 85 -354 c 128,-1,28
 -22 -280 -22 -280 -62 -156 c 1,29,-1
 152 -44 l 1,30,31
 182 -100 182 -100 244 -141 c 128,-1,32
 306 -182 306 -182 392 -182 c 0,33,34
 474 -182 474 -182 524 -151 c 128,-1,35
 574 -120 574 -120 582 -74 c 0,36,37
 584 -58 584 -58 579 -42 c 128,-1,38
 574 -26 574 -26 557 -8 c 128,-1,39
 540 10 540 10 526 23 c 128,-1,40
 512 36 512 36 477 58 c 128,-1,41
 442 80 442 80 425 90 c 128,-1,42
 408 100 408 100 364 128 c 0,43,44
 292 170 292 170 239 212 c 128,-1,45
 186 254 186 254 136 315 c 128,-1,46
 86 376 86 376 66 458 c 128,-1,47
 46 540 46 540 62 638 c 0,11,12
EndSplineSet
EndChar

StartChar: uni018E
Encoding: 398 398 336
Width: 1160
GlyphClass: 2
Flags: W
LayerCount: 2
Fore
SplineSet
-32 0 m 1,0,-1
 10 254 l 1,1,-1
 694 254 l 1,2,-1
 756 634 l 1,3,-1
 142 634 l 1,4,-1
 184 884 l 1,5,-1
 798 884 l 1,6,-1
 852 1214 l 1,7,-1
 154 1214 l 1,8,-1
 196 1470 l 1,9,-1
 1186 1470 l 1,10,-1
 944 0 l 1,11,-1
 -32 0 l 1,0,-1
EndSplineSet
EndChar

StartChar: uni018F
Encoding: 399 399 337
Width: 1382
GlyphClass: 2
Flags: W
LayerCount: 2
Fore
SplineSet
84 740 m 0,0,1
 92 790 92 790 114 872 c 1,2,-1
 1066 872 l 1,3,4
 1078 1058 1078 1058 1000 1152 c 128,-1,5
 922 1246 922 1246 792 1246 c 0,6,7
 586 1246 586 1246 424 1050 c 1,8,-1
 188 1148 l 1,9,10
 302 1322 302 1322 470 1412 c 128,-1,11
 638 1502 638 1502 840 1502 c 0,12,13
 1136 1502 1136 1502 1273 1286 c 128,-1,14
 1410 1070 1410 1070 1354 730 c 0,15,16
 1300 398 1300 398 1085 183 c 128,-1,17
 870 -32 870 -32 586 -32 c 0,18,19
 308 -32 308 -32 166 175 c 128,-1,20
 24 382 24 382 84 740 c 0,0,1
374 616 m 1,21,22
 372 598 372 598 372 588 c 0,23,24
 364 434 364 434 430 328 c 128,-1,25
 496 222 496 222 632 222 c 256,26,27
 768 222 768 222 877 334 c 128,-1,28
 986 446 986 446 1022 616 c 1,29,-1
 374 616 l 1,21,22
EndSplineSet
EndChar

StartChar: uni0190
Encoding: 400 400 338
Width: 1196
GlyphClass: 2
Flags: W
LayerCount: 2
Fore
SplineSet
38 422 m 0,0,1
 60 556 60 556 148 645 c 128,-1,2
 236 734 236 734 338 772 c 1,3,4
 268 818 268 818 228 910 c 128,-1,5
 188 1002 188 1002 206 1102 c 0,6,7
 236 1284 236 1284 387 1393 c 128,-1,8
 538 1502 538 1502 752 1502 c 0,9,10
 874 1502 874 1502 966 1463 c 128,-1,11
 1058 1424 1058 1424 1107 1362 c 128,-1,12
 1156 1300 1156 1300 1180 1242 c 128,-1,13
 1204 1184 1204 1184 1212 1128 c 1,14,-1
 952 1054 l 1,15,16
 892 1256 892 1256 728 1256 c 0,17,18
 640 1256 640 1256 577 1204 c 128,-1,19
 514 1152 514 1152 500 1072 c 0,20,21
 486 982 486 982 553 926 c 128,-1,22
 620 870 620 870 706 870 c 0,23,24
 826 870 826 870 876 874 c 1,25,-1
 838 634 l 1,26,27
 756 638 756 638 668 638 c 0,28,29
 544 638 544 638 450 578 c 128,-1,30
 356 518 356 518 340 426 c 0,31,32
 322 322 322 322 387 267 c 128,-1,33
 452 212 452 212 562 212 c 0,34,35
 652 212 652 212 745 271 c 128,-1,36
 838 330 838 330 888 410 c 1,37,-1
 1112 324 l 1,38,39
 1022 152 1022 152 866 60 c 128,-1,40
 710 -32 710 -32 508 -32 c 0,41,42
 260 -32 260 -32 132 91 c 128,-1,43
 4 214 4 214 38 422 c 0,0,1
EndSplineSet
EndChar

StartChar: uni0191
Encoding: 401 401 339
Width: 1126
GlyphClass: 2
Flags: W
LayerCount: 2
Fore
SplineSet
-208 -164 m 1,0,1
 -146 -178 -146 -178 -106 -178 c 0,2,3
 24 -178 24 -178 56 22 c 2,4,-1
 296 1470 l 1,5,-1
 1240 1470 l 1,6,-1
 1198 1214 l 1,7,-1
 542 1214 l 1,8,-1
 484 862 l 1,9,-1
 1070 862 l 1,10,-1
 1028 608 l 1,11,-1
 442 608 l 1,12,-1
 346 22 l 2,13,14
 328 -84 328 -84 291 -167 c 128,-1,15
 254 -250 254 -250 209 -298 c 128,-1,16
 164 -346 164 -346 109 -378 c 128,-1,17
 54 -410 54 -410 7 -420 c 128,-1,18
 -40 -430 -40 -430 -88 -430 c 0,19,20
 -166 -430 -166 -430 -250 -414 c 1,21,-1
 -208 -164 l 1,0,1
EndSplineSet
EndChar

StartChar: florin
Encoding: 402 402 340
Width: 670
GlyphClass: 2
Flags: W
LayerCount: 2
Fore
SplineSet
-158 -166 m 1,0,1
 -108 -178 -108 -178 -60 -178 c 0,2,3
 66 -178 66 -178 100 20 c 2,4,-1
 234 838 l 1,5,-1
 88 838 l 1,6,-1
 128 1080 l 1,7,-1
 274 1080 l 1,8,-1
 290 1170 l 2,9,10
 318 1340 318 1340 412 1427 c 128,-1,11
 506 1514 506 1514 654 1514 c 2,12,-1
 834 1514 l 1,13,-1
 792 1268 l 1,14,-1
 654 1268 l 2,15,16
 610 1268 610 1268 588 1242 c 128,-1,17
 566 1216 566 1216 556 1152 c 2,18,-1
 544 1080 l 1,19,-1
 740 1080 l 1,20,-1
 698 838 l 1,21,-1
 504 838 l 1,22,-1
 368 22 l 2,23,24
 346 -110 346 -110 298 -205 c 128,-1,25
 250 -300 250 -300 190 -346 c 128,-1,26
 130 -392 130 -392 73 -411 c 128,-1,27
 16 -430 16 -430 -42 -430 c 0,28,29
 -118 -430 -118 -430 -198 -414 c 1,30,-1
 -158 -166 l 1,0,1
EndSplineSet
EndChar

StartChar: uni0194
Encoding: 404 404 342
Width: 1278
GlyphClass: 2
Flags: W
LayerCount: 2
Fore
SplineSet
154 1470 m 1,0,-1
 464 1470 l 1,1,-1
 614 418 l 1,2,-1
 618 418 l 1,3,-1
 1116 1470 l 1,4,-1
 1426 1470 l 1,5,-1
 814 280 l 1,6,7
 948 86 948 86 920 -84 c 0,8,9
 894 -236 894 -236 768 -333 c 128,-1,10
 642 -430 642 -430 474 -430 c 0,11,12
 298 -430 298 -430 203 -337 c 128,-1,13
 108 -244 108 -244 134 -84 c 0,14,15
 142 -30 142 -30 169 24 c 128,-1,16
 196 78 196 78 241 133 c 128,-1,17
 286 188 286 188 308 212 c 128,-1,18
 330 236 330 236 372 280 c 1,19,-1
 154 1470 l 1,0,-1
428 -72 m 0,20,21
 420 -124 420 -124 443 -158 c 128,-1,22
 466 -192 466 -192 512 -192 c 256,23,24
 558 -192 558 -192 591 -159 c 128,-1,25
 624 -126 624 -126 632 -70 c 0,26,27
 646 20 646 20 564 132 c 1,28,29
 446 34 446 34 428 -72 c 0,20,21
EndSplineSet
EndChar

StartChar: uni0195
Encoding: 405 405 343
Width: 1640
GlyphClass: 2
Flags: W
LayerCount: 2
Fore
SplineSet
18 0 m 1,0,-1
 268 1514 l 1,1,-1
 534 1514 l 1,2,-1
 450 1008 l 1,3,-1
 452 1008 l 1,4,5
 568 1112 568 1112 706 1112 c 0,6,7
 770 1112 770 1112 825 1093 c 128,-1,8
 880 1074 880 1074 925 1029 c 128,-1,9
 970 984 970 984 987 898 c 128,-1,10
 1004 812 1004 812 984 692 c 2,11,-1
 938 412 l 2,12,13
 922 318 922 318 949 265 c 128,-1,14
 976 212 976 212 1072 212 c 0,15,16
 1222 212 1222 212 1256 412 c 2,17,-1
 1366 1080 l 1,18,-1
 1638 1080 l 1,19,-1
 1520 360 l 2,20,21
 1506 276 1506 276 1470 208 c 128,-1,22
 1434 140 1434 140 1386 96 c 128,-1,23
 1338 52 1338 52 1277 22 c 128,-1,24
 1216 -8 1216 -8 1155 -20 c 128,-1,25
 1094 -32 1094 -32 1032 -32 c 0,26,27
 946 -32 946 -32 877 -14 c 128,-1,28
 808 4 808 4 749 45 c 128,-1,29
 690 86 690 86 666 168 c 128,-1,30
 642 250 642 250 662 362 c 2,31,-1
 710 660 l 2,32,33
 726 758 726 758 709 813 c 128,-1,34
 692 868 692 868 618 868 c 0,35,36
 534 868 534 868 468 790 c 128,-1,37
 402 712 402 712 384 606 c 2,38,-1
 284 0 l 1,39,-1
 18 0 l 1,0,-1
EndSplineSet
EndChar

StartChar: uni0196
Encoding: 406 406 344
Width: 698
GlyphClass: 2
Flags: W
LayerCount: 2
Fore
SplineSet
94 334 m 2,0,-1
 282 1470 l 1,1,-1
 572 1470 l 1,2,-1
 386 344 l 2,3,4
 376 278 376 278 394 250 c 128,-1,5
 412 222 412 222 472 222 c 0,6,7
 544 222 544 222 624 236 c 1,8,-1
 584 -12 l 1,9,10
 426 -32 426 -32 370 -32 c 0,11,12
 226 -32 226 -32 144 53 c 128,-1,13
 62 138 62 138 94 334 c 2,0,-1
EndSplineSet
EndChar

StartChar: uni0197
Encoding: 407 407 345
Width: 568
GlyphClass: 2
Flags: W
LayerCount: 2
Fore
SplineSet
20 618 m 1,0,-1
 58 850 l 1,1,-1
 186 850 l 1,2,-1
 288 1470 l 1,3,-1
 580 1470 l 1,4,-1
 478 850 l 1,5,-1
 604 850 l 1,6,-1
 566 618 l 1,7,-1
 438 618 l 1,8,-1
 336 0 l 1,9,-1
 44 0 l 1,10,-1
 146 618 l 1,11,-1
 20 618 l 1,0,-1
EndSplineSet
EndChar

StartChar: uni0198
Encoding: 408 408 346
Width: 1288
GlyphClass: 2
Flags: W
LayerCount: 2
Fore
SplineSet
36 0 m 1,0,-1
 278 1470 l 1,1,-1
 570 1470 l 1,2,-1
 472 872 l 1,3,-1
 476 872 l 1,4,-1
 954 1346 l 2,5,6
 1116 1502 1116 1502 1324 1502 c 0,7,8
 1436 1502 1436 1502 1522 1476 c 1,9,-1
 1480 1218 l 1,10,11
 1396 1246 1396 1246 1292 1246 c 0,12,13
 1208 1246 1208 1246 1168 1204 c 2,14,-1
 772 824 l 1,15,-1
 1204 0 l 1,16,-1
 854 0 l 1,17,-1
 554 614 l 1,18,-1
 406 470 l 1,19,-1
 328 0 l 1,20,-1
 36 0 l 1,0,-1
EndSplineSet
EndChar

StartChar: uni0199
Encoding: 409 409 347
Width: 1016
GlyphClass: 2
Flags: W
LayerCount: 2
Fore
SplineSet
18 0 m 1,0,-1
 222 1242 l 2,1,2
 250 1414 250 1414 367 1505 c 128,-1,3
 484 1596 484 1596 638 1596 c 0,4,5
 710 1596 710 1596 834 1584 c 1,6,-1
 792 1332 l 1,7,8
 720 1342 720 1342 648 1342 c 0,9,10
 592 1342 592 1342 542 1298 c 128,-1,11
 492 1254 492 1254 480 1184 c 2,12,-1
 402 716 l 1,13,-1
 778 1080 l 1,14,-1
 1114 1080 l 1,15,-1
 654 638 l 1,16,-1
 948 0 l 1,17,-1
 634 0 l 1,18,-1
 446 436 l 1,19,-1
 338 332 l 1,20,-1
 284 0 l 1,21,-1
 18 0 l 1,0,-1
EndSplineSet
EndChar

StartChar: uni019A
Encoding: 410 410 348
Width: 516
GlyphClass: 2
Flags: W
LayerCount: 2
Fore
SplineSet
6 744 m 1,0,-1
 44 980 l 1,1,-1
 192 980 l 1,2,-1
 282 1514 l 1,3,-1
 550 1514 l 1,4,-1
 462 980 l 1,5,-1
 608 980 l 1,6,-1
 568 744 l 1,7,-1
 422 744 l 1,8,-1
 300 0 l 1,9,-1
 30 0 l 1,10,-1
 154 744 l 1,11,-1
 6 744 l 1,0,-1
EndSplineSet
EndChar

StartChar: uni019B
Encoding: 411 411 349
Width: 1014
GlyphClass: 2
Flags: W
LayerCount: 2
Fore
SplineSet
-84 0 m 1,0,-1
 462 1032 l 1,1,-1
 458 1048 l 1,2,-1
 238 888 l 1,3,-1
 142 1068 l 1,4,-1
 374 1234 l 1,5,6
 348 1262 348 1262 264 1262 c 2,7,-1
 224 1262 l 1,8,-1
 264 1504 l 1,9,-1
 350 1504 l 2,10,11
 526 1504 526 1504 616 1396 c 1,12,-1
 828 1538 l 1,13,-1
 924 1360 l 1,14,-1
 694 1210 l 1,15,-1
 914 0 l 1,16,-1
 622 0 l 1,17,-1
 568 508 l 2,18,19
 554 690 554 690 552 744 c 1,20,-1
 546 744 l 1,21,22
 516 666 516 666 448 508 c 2,23,-1
 210 0 l 1,24,-1
 -84 0 l 1,0,-1
EndSplineSet
EndChar

StartChar: uni019C
Encoding: 412 412 350
Width: 1862
GlyphClass: 2
Flags: W
LayerCount: 2
Fore
SplineSet
120 534 m 2,0,-1
 274 1470 l 1,1,-1
 566 1470 l 1,2,-1
 404 496 l 2,3,4
 358 222 358 222 508 222 c 0,5,6
 608 222 608 222 686 326 c 128,-1,7
 764 430 764 430 786 568 c 2,8,-1
 936 1470 l 1,9,-1
 1228 1470 l 1,10,-1
 1064 484 l 2,11,12
 1050 404 1050 404 1057 347 c 128,-1,13
 1064 290 1064 290 1084 265 c 128,-1,14
 1104 240 1104 240 1124 231 c 128,-1,15
 1144 222 1144 222 1170 222 c 0,16,17
 1278 222 1278 222 1349 318 c 128,-1,18
 1420 414 1420 414 1444 568 c 2,19,-1
 1594 1470 l 1,20,-1
 1884 1470 l 1,21,-1
 1640 0 l 1,22,-1
 1362 0 l 1,23,-1
 1382 118 l 1,24,25
 1316 40 1316 40 1229 3 c 128,-1,26
 1142 -34 1142 -34 1062 -34 c 0,27,28
 934 -34 934 -34 872 12 c 128,-1,29
 810 58 810 58 788 152 c 1,30,31
 656 -32 656 -32 400 -32 c 0,32,33
 290 -32 290 -32 220 13 c 128,-1,34
 150 58 150 58 125 140 c 128,-1,35
 100 222 100 222 100 317 c 128,-1,36
 100 412 100 412 120 534 c 2,0,-1
EndSplineSet
EndChar

StartChar: uni019D
Encoding: 413 413 351
Width: 1368
GlyphClass: 2
Flags: W
LayerCount: 2
Fore
SplineSet
294 1468 m 1,0,-1
 592 1468 l 1,1,-1
 854 728 l 1,2,-1
 950 450 l 1,3,-1
 956 450 l 1,4,5
 982 762 982 762 1002 880 c 2,6,-1
 1098 1470 l 1,7,-1
 1390 1470 l 1,8,-1
 1148 0 l 1,9,-1
 852 0 l 1,10,-1
 582 728 l 1,11,-1
 488 1014 l 1,12,-1
 480 1014 l 1,13,14
 470 768 470 768 440 584 c 2,15,-1
 346 18 l 2,16,17
 324 -114 324 -114 274 -208 c 128,-1,18
 224 -302 224 -302 158 -348 c 128,-1,19
 92 -394 92 -394 32 -412 c 128,-1,20
 -28 -430 -28 -430 -86 -430 c 0,21,22
 -172 -430 -172 -430 -250 -412 c 1,23,-1
 -208 -166 l 1,24,25
 -170 -176 -170 -176 -104 -176 c 0,26,27
 -40 -176 -40 -176 -1 -131 c 128,-1,28
 38 -86 38 -86 54 18 c 2,29,-1
 294 1468 l 1,0,-1
EndSplineSet
EndChar

StartChar: uni019E
Encoding: 414 414 352
Width: 1066
GlyphClass: 2
Flags: W
LayerCount: 2
Fore
SplineSet
8 0 m 1,0,-1
 186 1080 l 1,1,-1
 444 1080 l 1,2,-1
 428 980 l 1,3,-1
 432 980 l 1,4,5
 540 1112 540 1112 710 1112 c 0,6,7
 1048 1112 1048 1112 980 692 c 2,8,-1
 794 -424 l 1,9,-1
 526 -424 l 1,10,-1
 704 658 l 2,11,12
 720 758 720 758 703 813 c 128,-1,13
 686 868 686 868 612 868 c 0,14,15
 526 868 526 868 461 796 c 128,-1,16
 396 724 396 724 378 614 c 2,17,-1
 276 0 l 1,18,-1
 8 0 l 1,0,-1
EndSplineSet
EndChar

StartChar: uni019F
Encoding: 415 415 353
Width: 1376
GlyphClass: 2
Flags: W
LayerCount: 2
Fore
SplineSet
86 734 m 256,0,1
 144 1080 144 1080 352 1291 c 128,-1,2
 560 1502 560 1502 844 1502 c 0,3,4
 1126 1502 1126 1502 1266 1291 c 128,-1,5
 1406 1080 1406 1080 1348 734 c 256,6,7
 1290 388 1290 388 1081 178 c 128,-1,8
 872 -32 872 -32 590 -32 c 0,9,10
 304 -32 304 -32 166 178 c 128,-1,11
 28 388 28 388 86 734 c 256,0,1
1014 604 m 1,12,-1
 374 604 l 1,13,14
 372 422 372 422 435 322 c 128,-1,15
 498 222 498 222 632 222 c 256,16,17
 766 222 766 222 865 324 c 128,-1,18
 964 426 964 426 1014 604 c 1,12,-1
412 840 m 1,19,-1
 1056 840 l 1,20,21
 1066 1030 1066 1030 1001 1138 c 128,-1,22
 936 1246 936 1246 802 1246 c 0,23,24
 664 1246 664 1246 564 1139 c 128,-1,25
 464 1032 464 1032 412 840 c 1,19,-1
EndSplineSet
EndChar

StartChar: uni01A2
Encoding: 418 418 356
Width: 1856
GlyphClass: 2
Flags: W
LayerCount: 2
Fore
SplineSet
86 734 m 0,0,1
 144 1080 144 1080 351 1291 c 128,-1,2
 558 1502 558 1502 844 1502 c 0,3,4
 904 1502 904 1502 1104 1462 c 128,-1,5
 1304 1422 1304 1422 1398 1422 c 0,6,7
 1648 1422 1648 1422 1882 1470 c 1,8,-1
 1638 0 l 1,9,-1
 1348 0 l 1,10,-1
 1544 1180 l 1,11,12
 1474 1164 1474 1164 1354 1164 c 0,13,14
 1288 1164 1288 1164 1202 1180 c 1,15,-1
 1028 132 l 1,16,17
 830 -32 830 -32 590 -32 c 0,18,19
 304 -32 304 -32 167 179 c 128,-1,20
 30 390 30 390 86 734 c 0,0,1
390 734 m 256,21,22
 350 498 350 498 412 360 c 128,-1,23
 474 222 474 222 632 222 c 0,24,25
 696 222 696 222 756 252 c 1,26,-1
 918 1222 l 1,27,28
 858 1246 858 1246 802 1246 c 0,29,30
 644 1246 644 1246 537 1108 c 128,-1,31
 430 970 430 970 390 734 c 256,21,22
EndSplineSet
EndChar

StartChar: uni01A3
Encoding: 419 419 357
Width: 1396
GlyphClass: 2
Flags: W
LayerCount: 2
Fore
SplineSet
46 538 m 0,0,1
 90 806 90 806 243 959 c 128,-1,2
 396 1112 396 1112 616 1112 c 0,3,4
 688 1112 688 1112 826 1084 c 128,-1,5
 964 1056 964 1056 1014 1056 c 0,6,7
 1184 1056 1184 1056 1384 1096 c 1,8,-1
 1202 0 l 1,9,-1
 936 0 l 1,10,-1
 1070 816 l 1,11,12
 1014 810 1014 810 972 810 c 0,13,14
 916 810 916 810 882 814 c 1,15,-1
 762 88 l 1,16,17
 628 -32 628 -32 426 -32 c 0,18,19
 202 -32 202 -32 102 121 c 128,-1,20
 2 274 2 274 46 538 c 0,0,1
322 538 m 0,21,22
 296 380 296 380 337 296 c 128,-1,23
 378 212 378 212 468 212 c 0,24,25
 480 212 480 212 516 228 c 1,26,-1
 622 862 l 1,27,28
 598 868 598 868 576 868 c 0,29,30
 484 868 484 868 416 784 c 128,-1,31
 348 700 348 700 322 538 c 0,21,22
EndSplineSet
EndChar

StartChar: uni01A5
Encoding: 421 421 359
Width: 1096
GlyphClass: 2
Flags: W
LayerCount: 2
Fore
SplineSet
372 540 m 0,0,1
 348 390 348 390 385 301 c 128,-1,2
 422 212 422 212 514 212 c 256,3,4
 606 212 606 212 673 298 c 128,-1,5
 740 384 740 384 766 540 c 0,6,7
 790 690 790 690 755 779 c 128,-1,8
 720 868 720 868 624 868 c 256,9,10
 528 868 528 868 462 778 c 128,-1,11
 396 688 396 688 372 540 c 0,0,1
-54 -424 m 1,12,-1
 212 1176 l 2,13,14
 240 1346 240 1346 356 1438 c 128,-1,15
 472 1530 472 1530 628 1530 c 0,16,17
 692 1530 692 1530 814 1520 c 1,18,-1
 774 1268 l 1,19,20
 716 1274 716 1274 638 1274 c 0,21,22
 582 1274 582 1274 533 1234 c 128,-1,23
 484 1194 484 1194 472 1122 c 2,24,-1
 450 990 l 1,25,26
 566 1112 566 1112 704 1112 c 0,27,28
 890 1112 890 1112 988 958 c 128,-1,29
 1086 804 1086 804 1044 540 c 0,30,31
 1020 390 1020 390 960 274 c 128,-1,32
 900 158 900 158 823 94 c 128,-1,33
 746 30 746 30 668 -1 c 128,-1,34
 590 -32 590 -32 516 -32 c 0,35,36
 356 -32 356 -32 300 86 c 1,37,-1
 216 -424 l 1,38,-1
 -54 -424 l 1,12,-1
EndSplineSet
EndChar

StartChar: uni01A6
Encoding: 422 422 360
Width: 1306
GlyphClass: 2
Flags: W
LayerCount: 2
Fore
SplineSet
434 666 m 1,0,-1
 712 666 l 2,1,2
 922 666 922 666 956 870 c 0,3,4
 986 1048 986 1048 774 1048 c 2,5,-1
 498 1048 l 1,6,-1
 434 666 l 1,0,-1
32 0 m 1,7,-1
 274 1470 l 1,8,-1
 566 1470 l 1,9,-1
 540 1304 l 1,10,-1
 866 1304 l 2,11,12
 1092 1304 1092 1304 1190 1186 c 128,-1,13
 1288 1068 1288 1068 1260 894 c 0,14,15
 1218 646 1218 646 1004 530 c 1,16,17
 1048 490 1048 490 1067 447 c 128,-1,18
 1086 404 1086 404 1089 374 c 128,-1,19
 1092 344 1092 344 1092 270 c 0,20,21
 1092 50 1092 50 1182 -174 c 1,22,-1
 854 -174 l 1,23,24
 786 -10 786 -10 782 242 c 1,25,-1
 776 318 l 2,26,27
 774 342 774 342 765 368 c 128,-1,28
 756 394 756 394 733 404 c 128,-1,29
 710 414 710 414 676 414 c 2,30,-1
 392 414 l 1,31,-1
 324 0 l 1,32,-1
 32 0 l 1,7,-1
EndSplineSet
EndChar

StartChar: uni01A7
Encoding: 423 423 361
Width: 1184
GlyphClass: 2
Flags: W
LayerCount: 2
Fore
SplineSet
16 410 m 0,0,1
 28 482 28 482 62 545 c 128,-1,2
 96 608 96 608 138 652 c 128,-1,3
 180 696 180 696 238 733 c 128,-1,4
 296 770 296 770 351 792 c 128,-1,5
 406 814 406 814 472 836 c 0,6,7
 494 844 494 844 538 857 c 128,-1,8
 582 870 582 870 604 877 c 128,-1,9
 626 884 626 884 663 897 c 128,-1,10
 700 910 700 910 720 919 c 128,-1,11
 740 928 740 928 769 942 c 128,-1,12
 798 956 798 956 814 971 c 128,-1,13
 830 986 830 986 848 1004 c 128,-1,14
 866 1022 866 1022 875 1042 c 128,-1,15
 884 1062 884 1062 888 1086 c 0,16,17
 900 1158 900 1158 849 1202 c 128,-1,18
 798 1246 798 1246 700 1246 c 0,19,20
 530 1246 530 1246 382 1082 c 1,21,-1
 148 1164 l 1,22,23
 240 1312 240 1312 392 1407 c 128,-1,24
 544 1502 544 1502 742 1502 c 0,25,26
 970 1502 970 1502 1096 1386 c 128,-1,27
 1222 1270 1222 1270 1192 1084 c 0,28,29
 1174 980 1174 980 1126 905 c 128,-1,30
 1078 830 1078 830 990 778 c 128,-1,31
 902 726 902 726 844 703 c 128,-1,32
 786 680 786 680 670 644 c 0,33,34
 644 636 644 636 630 632 c 0,35,36
 486 584 486 584 410 534 c 128,-1,37
 334 484 334 484 320 396 c 0,38,39
 308 322 308 322 360 271 c 128,-1,40
 412 220 412 220 514 220 c 0,41,42
 612 220 612 220 717 279 c 128,-1,43
 822 338 822 338 880 422 c 1,44,-1
 1118 336 l 1,45,46
 1020 166 1020 166 848 67 c 128,-1,47
 676 -32 676 -32 478 -32 c 0,48,49
 248 -32 248 -32 115 84 c 128,-1,50
 -18 200 -18 200 16 410 c 0,0,1
EndSplineSet
EndChar

StartChar: uni01A8
Encoding: 424 424 362
Width: 918
GlyphClass: 2
Flags: W
LayerCount: 2
Fore
SplineSet
4 306 m 0,0,1
 26 434 26 434 117 506 c 128,-1,2
 208 578 208 578 346 626 c 0,3,4
 362 632 362 632 399 644 c 128,-1,5
 436 656 436 656 451 661 c 128,-1,6
 466 666 466 666 494 677 c 128,-1,7
 522 688 522 688 536 697 c 128,-1,8
 550 706 550 706 566 718 c 128,-1,9
 582 730 582 730 591 745 c 128,-1,10
 600 760 600 760 604 778 c 0,11,12
 612 824 612 824 582 847 c 128,-1,13
 552 870 552 870 502 870 c 0,14,15
 374 870 374 870 252 744 c 1,16,-1
 90 856 l 1,17,18
 170 970 170 970 290 1041 c 128,-1,19
 410 1112 410 1112 546 1112 c 0,20,21
 708 1112 708 1112 806 1021 c 128,-1,22
 904 930 904 930 878 776 c 0,23,24
 842 564 842 564 544 466 c 0,25,26
 530 462 530 462 503 454 c 128,-1,27
 476 446 476 446 461 441 c 128,-1,28
 446 436 446 436 423 427 c 128,-1,29
 400 418 400 418 386 412 c 128,-1,30
 372 406 372 406 355 397 c 128,-1,31
 338 388 338 388 327 379 c 128,-1,32
 316 370 316 370 305 359 c 128,-1,33
 294 348 294 348 288 335 c 128,-1,34
 282 322 282 322 278 306 c 0,35,36
 272 264 272 264 301 237 c 128,-1,37
 330 210 330 210 382 210 c 0,38,39
 528 210 528 210 662 352 c 1,40,-1
 832 236 l 1,41,42
 752 118 752 118 621 43 c 128,-1,43
 490 -32 490 -32 342 -32 c 0,44,45
 144 -32 144 -32 62 65 c 128,-1,46
 -20 162 -20 162 4 306 c 0,0,1
EndSplineSet
EndChar

StartChar: uni01A9
Encoding: 425 425 363
Width: 1204
GlyphClass: 2
Flags: W
LayerCount: 2
Fore
SplineSet
30 0 m 1,0,-1
 62 192 l 1,1,-1
 644 740 l 1,2,-1
 242 1278 l 1,3,-1
 274 1470 l 1,4,-1
 1274 1470 l 1,5,-1
 1232 1212 l 1,6,-1
 644 1212 l 1,7,-1
 976 740 l 1,8,-1
 486 254 l 1,9,-1
 1088 254 l 1,10,-1
 1046 0 l 1,11,-1
 30 0 l 1,0,-1
EndSplineSet
EndChar

StartChar: uni01AA
Encoding: 426 426 364
Width: 856
GlyphClass: 2
Flags: W
LayerCount: 2
Fore
SplineSet
232 1180 m 0,0,1
 224 1132 224 1132 246 1105 c 128,-1,2
 268 1078 268 1078 304 1078 c 0,3,4
 360 1078 360 1078 404 1116 c 1,5,6
 430 1276 430 1276 342 1276 c 0,7,8
 302 1276 302 1276 270 1249 c 128,-1,9
 238 1222 238 1222 232 1180 c 0,0,1
-20 1166 m 0,10,11
 4 1316 4 1316 116 1409 c 128,-1,12
 228 1502 228 1502 386 1502 c 0,13,14
 552 1502 552 1502 624 1396 c 128,-1,15
 696 1290 696 1290 664 1096 c 2,16,-1
 476 -44 l 2,17,18
 454 -178 454 -178 564 -178 c 0,19,20
 626 -178 626 -178 718 -162 c 1,21,-1
 678 -412 l 1,22,23
 526 -430 526 -430 464 -430 c 256,24,25
 402 -430 402 -430 351 -412 c 128,-1,26
 300 -394 300 -394 258 -355 c 128,-1,27
 216 -316 216 -316 201 -241 c 128,-1,28
 186 -166 186 -166 204 -62 c 2,29,-1
 360 884 l 1,30,31
 314 848 314 848 224 848 c 0,32,33
 96 848 96 848 27 938 c 128,-1,34
 -42 1028 -42 1028 -20 1166 c 0,10,11
EndSplineSet
EndChar

StartChar: uni01AB
Encoding: 427 427 365
Width: 700
GlyphClass: 2
Flags: W
LayerCount: 2
Fore
SplineSet
72 838 m 1,0,-1
 112 1080 l 1,1,-1
 258 1080 l 1,2,-1
 310 1388 l 1,3,-1
 576 1388 l 1,4,-1
 526 1080 l 1,5,-1
 736 1080 l 1,6,-1
 696 838 l 1,7,-1
 486 838 l 1,8,-1
 406 362 l 2,9,10
 386 244 386 244 484 244 c 0,11,12
 532 244 532 244 606 254 c 1,13,-1
 572 44 l 2,14,15
 534 -188 534 -188 419 -309 c 128,-1,16
 304 -430 304 -430 136 -430 c 0,17,18
 36 -430 36 -430 -24 -416 c 1,19,-1
 18 -164 l 1,20,21
 82 -178 82 -178 146 -178 c 0,22,23
 198 -178 198 -178 244 -135 c 128,-1,24
 290 -92 290 -92 304 -4 c 2,25,-1
 308 12 l 1,26,27
 268 24 268 24 234 42 c 0,28,29
 100 122 100 122 136 346 c 2,30,-1
 218 838 l 1,31,-1
 72 838 l 1,0,-1
EndSplineSet
EndChar

StartChar: uni01AC
Encoding: 428 428 366
Width: 1264
GlyphClass: 2
Flags: W
LayerCount: 2
Fore
SplineSet
14 1104 m 0,0,1
 46 1294 46 1294 182 1382 c 128,-1,2
 318 1470 318 1470 490 1470 c 2,3,-1
 1400 1470 l 1,4,-1
 1358 1214 l 1,5,-1
 958 1214 l 1,6,-1
 756 0 l 1,7,-1
 462 0 l 1,8,-1
 664 1214 l 1,9,-1
 450 1214 l 2,10,11
 372 1214 372 1214 324 1177 c 128,-1,12
 276 1140 276 1140 268 1082 c 0,13,14
 258 1016 258 1016 258 970 c 1,15,-1
 6 970 l 1,16,17
 0 1018 0 1018 14 1104 c 0,0,1
EndSplineSet
EndChar

StartChar: uni01AD
Encoding: 429 429 367
Width: 704
GlyphClass: 2
Flags: W
LayerCount: 2
Fore
SplineSet
72 838 m 1,0,-1
 112 1080 l 1,1,-1
 258 1080 l 1,2,-1
 272 1162 l 2,3,4
 300 1334 300 1334 416 1425 c 128,-1,5
 532 1516 532 1516 690 1516 c 0,6,7
 760 1516 760 1516 882 1506 c 1,8,-1
 840 1252 l 1,9,10
 778 1262 778 1262 698 1262 c 0,11,12
 632 1262 632 1262 587 1223 c 128,-1,13
 542 1184 542 1184 532 1124 c 2,14,-1
 526 1080 l 1,15,-1
 738 1080 l 1,16,-1
 698 838 l 1,17,-1
 486 838 l 1,18,-1
 406 362 l 2,19,20
 386 244 386 244 486 244 c 2,21,-1
 602 244 l 1,22,-1
 562 0 l 1,23,-1
 412 0 l 2,24,25
 80 0 80 0 136 346 c 2,26,-1
 218 838 l 1,27,-1
 72 838 l 1,0,-1
EndSplineSet
EndChar

StartChar: uni01AE
Encoding: 430 430 368
Width: 1126
GlyphClass: 2
Flags: W
LayerCount: 2
Fore
SplineSet
124 1214 m 1,0,-1
 166 1470 l 1,1,-1
 1260 1470 l 1,2,-1
 1218 1214 l 1,3,-1
 818 1214 l 1,4,-1
 620 26 l 2,5,6
 586 -178 586 -178 718 -178 c 0,7,8
 758 -178 758 -178 822 -164 c 1,9,-1
 780 -414 l 1,10,11
 692 -430 692 -430 616 -430 c 0,12,13
 556 -430 556 -430 502 -411 c 128,-1,14
 448 -392 448 -392 397 -345 c 128,-1,15
 346 -298 346 -298 326 -203 c 128,-1,16
 306 -108 306 -108 328 26 c 2,17,-1
 526 1214 l 1,18,-1
 124 1214 l 1,0,-1
EndSplineSet
EndChar

StartChar: uni01B1
Encoding: 433 433 371
Width: 1416
GlyphClass: 2
Flags: W
LayerCount: 2
Fore
SplineSet
66 618 m 0,0,1
 100 818 100 818 219 966 c 128,-1,2
 338 1114 338 1114 534 1186 c 1,3,-1
 540 1214 l 1,4,-1
 194 1214 l 1,5,-1
 236 1470 l 1,6,-1
 798 1470 l 1,7,-1
 724 1022 l 1,8,9
 572 982 572 982 485 872 c 128,-1,10
 398 762 398 762 374 618 c 0,11,12
 348 458 348 458 421 344 c 128,-1,13
 494 230 494 230 652 230 c 0,14,15
 806 230 806 230 919 343 c 128,-1,16
 1032 456 1032 456 1058 618 c 0,17,18
 1080 756 1080 756 1031 867 c 128,-1,19
 982 978 982 978 844 1022 c 1,20,-1
 920 1470 l 1,21,-1
 1478 1470 l 1,22,-1
 1436 1214 l 1,23,-1
 1090 1214 l 1,24,-1
 1086 1186 l 1,25,26
 1258 1118 1258 1118 1329 967 c 128,-1,27
 1400 816 1400 816 1368 618 c 0,28,29
 1320 332 1320 332 1115 150 c 128,-1,30
 910 -32 910 -32 608 -32 c 0,31,32
 310 -32 310 -32 164 150 c 128,-1,33
 18 332 18 332 66 618 c 0,0,1
EndSplineSet
EndChar

StartChar: uni01B2
Encoding: 434 434 372
Width: 1378
GlyphClass: 2
Flags: W
LayerCount: 2
Fore
SplineSet
116 536 m 2,0,-1
 272 1470 l 1,1,-1
 564 1470 l 1,2,-1
 414 568 l 2,3,4
 382 370 382 370 423 296 c 128,-1,5
 464 222 464 222 570 222 c 0,6,7
 718 222 718 222 869 398 c 128,-1,8
 1020 574 1020 574 1064 838 c 0,9,10
 1098 1046 1098 1046 1066 1146 c 128,-1,11
 1034 1246 1034 1246 954 1246 c 0,12,13
 872 1246 872 1246 780 1216 c 1,14,-1
 824 1478 l 1,15,16
 944 1502 944 1502 1038 1502 c 0,17,18
 1258 1502 1258 1502 1341 1331 c 128,-1,19
 1424 1160 1424 1160 1370 842 c 0,20,21
 1334 620 1334 620 1220 422 c 128,-1,22
 1106 224 1106 224 922 96 c 128,-1,23
 738 -32 738 -32 528 -32 c 0,24,25
 266 -32 266 -32 167 108 c 128,-1,26
 68 248 68 248 116 536 c 2,0,-1
EndSplineSet
EndChar

StartChar: uni01B3
Encoding: 435 435 373
Width: 1274
GlyphClass: 2
Flags: W
LayerCount: 2
Fore
SplineSet
148 1470 m 1,0,-1
 478 1470 l 1,1,-1
 614 1038 l 2,2,3
 624 1006 624 1006 674 816 c 1,4,-1
 684 816 l 1,5,6
 706 852 706 852 754 929 c 128,-1,7
 802 1006 802 1006 824 1040 c 2,8,-1
 964 1262 l 2,9,10
 1042 1378 1042 1378 1110 1430 c 0,11,12
 1202 1502 1202 1502 1310 1502 c 0,13,14
 1392 1502 1392 1502 1460 1492 c 1,15,-1
 1418 1238 l 1,16,17
 1386 1248 1386 1248 1306 1248 c 0,18,19
 1292 1248 1292 1248 1275 1236 c 128,-1,20
 1258 1224 1258 1224 1233 1195 c 128,-1,21
 1208 1166 1208 1166 1198 1153 c 128,-1,22
 1188 1140 1188 1140 1160 1102 c 2,23,-1
 788 592 l 1,24,-1
 690 0 l 1,25,-1
 398 0 l 1,26,-1
 496 592 l 1,27,-1
 148 1470 l 1,0,-1
EndSplineSet
EndChar

StartChar: uni01B4
Encoding: 436 436 374
Width: 1016
GlyphClass: 2
Flags: W
LayerCount: 2
Fore
SplineSet
94 1080 m 1,0,-1
 388 1080 l 1,1,-1
 456 572 l 1,2,3
 476 348 476 348 478 334 c 1,4,-1
 484 334 l 1,5,6
 504 386 504 386 540 475 c 128,-1,7
 576 564 576 564 580 570 c 2,8,-1
 730 914 l 2,9,10
 808 1104 808 1104 1034 1104 c 0,11,12
 1090 1104 1090 1104 1190 1088 c 1,13,-1
 1146 830 l 1,14,15
 1080 848 1080 848 1050 848 c 0,16,17
 974 848 974 848 942 784 c 2,18,-1
 486 -104 l 2,19,20
 398 -274 398 -274 287 -349 c 128,-1,21
 176 -424 176 -424 30 -424 c 2,22,-1
 -52 -424 l 1,23,-1
 -12 -184 l 1,24,-1
 26 -184 l 2,25,26
 104 -184 104 -184 159 -151 c 128,-1,27
 214 -118 214 -118 254 -40 c 2,28,-1
 300 50 l 1,29,-1
 94 1080 l 1,0,-1
EndSplineSet
EndChar

StartChar: uni01B5
Encoding: 437 437 375
Width: 1168
GlyphClass: 2
Flags: W
LayerCount: 2
Fore
SplineSet
154 606 m 1,0,-1
 194 842 l 1,1,-1
 532 842 l 1,2,-1
 856 1214 l 1,3,-1
 208 1214 l 1,4,-1
 250 1470 l 1,5,-1
 1264 1470 l 1,6,-1
 1226 1250 l 1,7,-1
 872 842 l 1,8,-1
 1028 842 l 1,9,-1
 988 606 l 1,10,-1
 662 606 l 1,11,-1
 354 254 l 1,12,-1
 1082 254 l 1,13,-1
 1040 0 l 1,14,-1
 -52 0 l 1,15,-1
 -16 216 l 1,16,-1
 324 606 l 1,17,-1
 154 606 l 1,0,-1
EndSplineSet
EndChar

StartChar: uni01B6
Encoding: 438 438 376
Width: 938
GlyphClass: 2
Flags: W
LayerCount: 2
Fore
SplineSet
-58 0 m 1,0,-1
 -26 188 l 1,1,-1
 198 432 l 1,2,-1
 84 432 l 1,3,-1
 122 666 l 1,4,-1
 414 666 l 1,5,-1
 570 838 l 1,6,-1
 118 838 l 1,7,-1
 158 1080 l 1,8,-1
 966 1080 l 1,9,-1
 938 902 l 1,10,-1
 720 666 l 1,11,-1
 840 666 l 1,12,-1
 800 432 l 1,13,-1
 504 432 l 1,14,-1
 334 244 l 1,15,-1
 852 244 l 1,16,-1
 810 0 l 1,17,-1
 -58 0 l 1,0,-1
EndSplineSet
EndChar

StartChar: uni01B7
Encoding: 439 439 377
Width: 1364
GlyphClass: 2
Flags: W
LayerCount: 2
Fore
SplineSet
-10 36 m 1,0,-1
 258 132 l 1,1,2
 262 78 262 78 280 26 c 128,-1,3
 298 -26 298 -26 330 -72 c 128,-1,4
 362 -118 362 -118 421 -147 c 128,-1,5
 480 -176 480 -176 556 -176 c 0,6,7
 696 -176 696 -176 801 -75 c 128,-1,8
 906 26 906 26 932 184 c 0,9,10
 960 354 960 354 873 460 c 128,-1,11
 786 566 786 566 624 566 c 2,12,-1
 398 566 l 1,13,-1
 434 792 l 1,14,-1
 874 1214 l 1,15,-1
 256 1214 l 1,16,-1
 298 1470 l 1,17,-1
 1358 1470 l 1,18,-1
 1330 1298 l 1,19,-1
 814 814 l 1,20,-1
 834 810 l 2,21,22
 1048 766 1048 766 1162 600 c 128,-1,23
 1276 434 1276 434 1234 184 c 0,24,25
 1190 -80 1190 -80 991 -254 c 128,-1,26
 792 -428 792 -428 522 -428 c 0,27,28
 384 -428 384 -428 282 -388 c 128,-1,29
 180 -348 180 -348 122 -277 c 128,-1,30
 64 -206 64 -206 32 -130 c 128,-1,31
 0 -54 0 -54 -10 36 c 1,0,-1
EndSplineSet
EndChar

StartChar: uni01B8
Encoding: 440 440 378
Width: 1364
GlyphClass: 2
Flags: W
LayerCount: 2
Fore
SplineSet
4 184 m 0,0,1
 46 434 46 434 214 601 c 128,-1,2
 382 768 382 768 610 810 c 2,3,-1
 632 814 l 1,4,-1
 276 1298 l 1,5,-1
 304 1470 l 1,6,-1
 1366 1470 l 1,7,-1
 1322 1214 l 1,8,-1
 706 1214 l 1,9,-1
 1004 792 l 1,10,-1
 966 566 l 1,11,-1
 740 566 l 2,12,13
 580 566 580 566 457 460 c 128,-1,14
 334 354 334 354 306 184 c 0,15,16
 280 26 280 26 351 -75 c 128,-1,17
 422 -176 422 -176 562 -176 c 0,18,19
 638 -176 638 -176 707 -147 c 128,-1,20
 776 -118 776 -118 823 -72 c 128,-1,21
 870 -26 870 -26 904 26 c 128,-1,22
 938 78 938 78 960 132 c 1,23,-1
 1198 36 l 1,24,25
 1158 -54 1158 -54 1101 -130 c 128,-1,26
 1044 -206 1044 -206 962 -277 c 128,-1,27
 880 -348 880 -348 764 -388 c 128,-1,28
 648 -428 648 -428 510 -428 c 0,29,30
 244 -428 244 -428 102 -254 c 128,-1,31
 -40 -80 -40 -80 4 184 c 0,0,1
EndSplineSet
EndChar

StartChar: uni01B9
Encoding: 441 441 379
Width: 1124
GlyphClass: 2
Flags: W
LayerCount: 2
Fore
SplineSet
-18 80 m 0,0,1
 12 256 12 256 143 396 c 128,-1,2
 274 536 274 536 442 564 c 1,3,-1
 450 566 l 1,4,-1
 188 906 l 1,5,-1
 216 1080 l 1,6,-1
 1084 1080 l 1,7,-1
 1044 838 l 1,8,-1
 578 838 l 1,9,-1
 788 550 l 1,10,-1
 756 356 l 1,11,-1
 568 356 l 2,12,13
 442 356 442 356 360 276 c 128,-1,14
 278 196 278 196 260 80 c 0,15,16
 242 -32 242 -32 292 -109 c 128,-1,17
 342 -186 342 -186 448 -186 c 256,18,19
 554 -186 554 -186 629 -110 c 128,-1,20
 704 -34 704 -34 734 62 c 1,21,-1
 968 0 l 1,22,23
 902 -182 902 -182 753 -306 c 128,-1,24
 604 -430 604 -430 400 -430 c 0,25,26
 174 -430 174 -430 60 -282 c 128,-1,27
 -54 -134 -54 -134 -18 80 c 0,0,1
EndSplineSet
EndChar

StartChar: uni01BA
Encoding: 442 442 380
Width: 836
GlyphClass: 2
Flags: W
LayerCount: 2
Fore
SplineSet
-56 -114 m 0,0,1
 -42 -34 -42 -34 13 34 c 128,-1,2
 68 102 68 102 140 147 c 128,-1,3
 212 192 212 192 282 230 c 128,-1,4
 352 268 352 268 403 303 c 128,-1,5
 454 338 454 338 458 366 c 0,6,7
 466 412 466 412 409 439 c 128,-1,8
 352 466 352 466 256 466 c 2,9,-1
 190 466 l 1,10,-1
 214 612 l 1,11,-1
 484 838 l 1,12,-1
 106 838 l 1,13,-1
 146 1080 l 1,14,-1
 872 1080 l 1,15,-1
 842 892 l 1,16,-1
 520 626 l 1,17,-1
 558 622 l 2,18,19
 640 612 640 612 698 555 c 128,-1,20
 756 498 756 498 736 380 c 0,21,22
 724 308 724 308 669 246 c 128,-1,23
 614 184 614 184 543 139 c 128,-1,24
 472 94 472 94 401 55 c 128,-1,25
 330 16 330 16 279 -22 c 128,-1,26
 228 -60 228 -60 224 -94 c 0,27,28
 210 -174 210 -174 320 -174 c 0,29,30
 394 -174 394 -174 544 -142 c 1,31,-1
 502 -392 l 1,32,33
 350 -420 350 -420 236 -420 c 0,34,35
 86 -420 86 -420 3 -338 c 128,-1,36
 -80 -256 -80 -256 -56 -114 c 0,0,1
EndSplineSet
EndChar

StartChar: uni01BB
Encoding: 443 443 381
Width: 1076
GlyphClass: 2
Flags: W
LayerCount: 2
Fore
SplineSet
172 586 m 1,0,-1
 212 822 l 1,1,-1
 622 822 l 1,2,3
 746 942 746 942 768 1076 c 0,4,5
 782 1164 782 1164 742 1210 c 128,-1,6
 702 1256 702 1256 646 1256 c 0,7,8
 644 1256 644 1256 642 1256 c 0,9,10
 558 1254 558 1254 498 1194 c 128,-1,11
 438 1134 438 1134 384 1012 c 1,12,-1
 150 1088 l 1,13,14
 220 1270 220 1270 354 1386 c 128,-1,15
 488 1502 488 1502 690 1502 c 0,16,17
 890 1502 890 1502 994 1383 c 128,-1,18
 1098 1264 1098 1264 1066 1064 c 0,19,20
 1046 942 1046 942 958 822 c 1,21,-1
 1088 822 l 1,22,-1
 1048 586 l 1,23,-1
 724 586 l 1,24,25
 714 578 714 578 672 543 c 128,-1,26
 630 508 630 508 615 494 c 128,-1,27
 600 480 600 480 563 446 c 128,-1,28
 526 412 526 412 502 385 c 128,-1,29
 478 358 478 358 445 321 c 128,-1,30
 412 284 412 284 382 244 c 1,31,-1
 926 244 l 1,32,-1
 886 0 l 1,33,-1
 -12 0 l 1,34,35
 36 290 36 290 350 586 c 1,36,-1
 172 586 l 1,0,-1
EndSplineSet
EndChar

StartChar: uni01BC
Encoding: 444 444 382
Width: 1178
GlyphClass: 2
Flags: W
LayerCount: 2
Fore
SplineSet
30 294 m 1,0,-1
 280 378 l 1,1,2
 302 304 302 304 360 258 c 128,-1,3
 418 212 418 212 504 212 c 0,4,5
 608 212 608 212 684 281 c 128,-1,6
 760 350 760 350 778 464 c 0,7,8
 794 564 794 564 733 638 c 128,-1,9
 672 712 672 712 538 712 c 0,10,11
 416 712 416 712 246 674 c 1,12,-1
 410 1216 l 1,13,-1
 326 1216 l 1,14,-1
 368 1470 l 1,15,-1
 1178 1470 l 1,16,-1
 1136 1214 l 1,17,-1
 680 1214 l 1,18,-1
 598 952 l 1,19,20
 624 956 624 956 690 956 c 0,21,22
 900 956 900 956 1010 822 c 128,-1,23
 1120 688 1120 688 1084 472 c 0,24,25
 1068 380 1068 380 1025 294 c 128,-1,26
 982 208 982 208 909 134 c 128,-1,27
 836 60 836 60 723 14 c 128,-1,28
 610 -32 610 -32 478 -32 c 0,29,30
 294 -32 294 -32 176 61 c 128,-1,31
 58 154 58 154 30 294 c 1,0,-1
EndSplineSet
EndChar

StartChar: uni01BD
Encoding: 445 445 383
Width: 926
GlyphClass: 2
Flags: W
LayerCount: 2
Fore
SplineSet
16 240 m 1,0,-1
 252 338 l 1,1,2
 262 278 262 278 298 244 c 128,-1,3
 334 210 334 210 386 210 c 0,4,5
 446 210 446 210 493 248 c 128,-1,6
 540 286 540 286 550 350 c 0,7,8
 558 402 558 402 523 449 c 128,-1,9
 488 496 488 496 408 496 c 0,10,11
 318 496 318 496 160 468 c 1,12,-1
 278 840 l 1,13,-1
 222 840 l 1,14,-1
 262 1080 l 1,15,-1
 868 1080 l 1,16,-1
 828 838 l 1,17,-1
 512 838 l 1,18,-1
 478 738 l 1,19,-1
 520 740 l 2,20,21
 684 740 684 740 770 630 c 128,-1,22
 856 520 856 520 830 362 c 0,23,24
 818 290 818 290 783 223 c 128,-1,25
 748 156 748 156 691 98 c 128,-1,26
 634 40 634 40 544 4 c 128,-1,27
 454 -32 454 -32 346 -32 c 0,28,29
 88 -32 88 -32 16 240 c 1,0,-1
EndSplineSet
EndChar

StartChar: uni01BE
Encoding: 446 446 384
Width: 850
GlyphClass: 2
Flags: W
LayerCount: 2
Fore
SplineSet
76 838 m 1,0,-1
 116 1080 l 1,1,-1
 258 1080 l 1,2,-1
 308 1386 l 1,3,-1
 576 1386 l 1,4,-1
 526 1080 l 1,5,-1
 734 1080 l 1,6,-1
 694 838 l 1,7,-1
 486 838 l 1,8,-1
 480 812 l 2,9,10
 472 760 472 760 492 721 c 128,-1,11
 512 682 512 682 547 660 c 128,-1,12
 582 638 582 638 624 607 c 128,-1,13
 666 576 666 576 700 545 c 128,-1,14
 734 514 734 514 750 455 c 128,-1,15
 766 396 766 396 754 318 c 0,16,17
 744 254 744 254 715 197 c 128,-1,18
 686 140 686 140 639 86 c 128,-1,19
 592 32 592 32 512 0 c 128,-1,20
 432 -32 432 -32 330 -32 c 0,21,22
 82 -32 82 -32 -6 222 c 1,23,-1
 204 332 l 1,24,25
 232 272 232 272 266 242 c 128,-1,26
 300 212 300 212 362 212 c 0,27,28
 410 212 410 212 443 241 c 128,-1,29
 476 270 476 270 482 308 c 0,30,31
 488 348 488 348 467 378 c 128,-1,32
 446 408 446 408 411 427 c 128,-1,33
 376 446 376 446 335 474 c 128,-1,34
 294 502 294 502 260 536 c 128,-1,35
 226 570 226 570 211 635 c 128,-1,36
 196 700 196 700 210 786 c 2,37,-1
 218 838 l 1,38,-1
 76 838 l 1,0,-1
EndSplineSet
EndChar

StartChar: uni01BF
Encoding: 447 447 385
Width: 1078
GlyphClass: 2
Flags: W
LayerCount: 2
Fore
SplineSet
-54 -424 m 1,0,-1
 196 1080 l 1,1,-1
 456 1080 l 1,2,-1
 442 998 l 1,3,4
 556 1112 556 1112 722 1112 c 0,5,6
 920 1112 920 1112 1000 991 c 128,-1,7
 1080 870 1080 870 1050 684 c 0,8,9
 956 120 956 120 286 4 c 1,10,-1
 216 -424 l 1,11,-1
 -54 -424 l 1,0,-1
326 240 m 1,12,13
 392 252 392 252 461 282 c 128,-1,14
 530 312 530 312 595 361 c 128,-1,15
 660 410 660 410 708 485 c 128,-1,16
 756 560 756 560 772 650 c 0,17,18
 790 764 790 764 755 816 c 128,-1,19
 720 868 720 868 648 868 c 0,20,21
 580 868 580 868 511 827 c 128,-1,22
 442 786 442 786 406 724 c 1,23,-1
 326 240 l 1,12,13
EndSplineSet
EndChar

StartChar: uni01C0
Encoding: 448 448 386
Width: 520
GlyphClass: 2
Flags: W
LayerCount: 2
Fore
SplineSet
-26 -390 m 1,0,-1
 308 1620 l 1,1,-1
 562 1620 l 1,2,-1
 230 -390 l 1,3,-1
 -26 -390 l 1,0,-1
EndSplineSet
EndChar

StartChar: uni01C1
Encoding: 449 449 387
Width: 930
GlyphClass: 2
Flags: W
LayerCount: 2
Fore
SplineSet
-26 -390 m 1,0,-1
 308 1620 l 1,1,-1
 562 1620 l 1,2,-1
 230 -390 l 1,3,-1
 -26 -390 l 1,0,-1
386 -390 m 1,4,-1
 718 1620 l 1,5,-1
 972 1620 l 1,6,-1
 638 -390 l 1,7,-1
 386 -390 l 1,4,-1
EndSplineSet
EndChar

StartChar: uni01C2
Encoding: 450 450 388
Width: 740
GlyphClass: 2
Flags: W
LayerCount: 2
Fore
SplineSet
64 810 m 1,0,-1
 96 1006 l 1,1,-1
 320 1006 l 1,2,-1
 422 1620 l 1,3,-1
 678 1620 l 1,4,-1
 576 1006 l 1,5,-1
 794 1006 l 1,6,-1
 762 810 l 1,7,-1
 544 810 l 1,8,-1
 506 586 l 1,9,-1
 724 586 l 1,10,-1
 692 388 l 1,11,-1
 474 388 l 1,12,-1
 346 -390 l 1,13,-1
 88 -390 l 1,14,-1
 218 388 l 1,15,-1
 -6 388 l 1,16,-1
 26 586 l 1,17,-1
 250 586 l 1,18,-1
 288 810 l 1,19,-1
 64 810 l 1,0,-1
EndSplineSet
EndChar

StartChar: uni01DD
Encoding: 477 477 415
Width: 1052
GlyphClass: 2
Flags: W
LayerCount: 2
Fore
SplineSet
44 534 m 0,0,1
 52 588 52 588 66 640 c 1,2,-1
 746 640 l 1,3,4
 762 742 762 742 712 813 c 128,-1,5
 662 884 662 884 556 884 c 0,6,7
 478 884 478 884 416 844 c 128,-1,8
 354 804 354 804 314 742 c 1,9,-1
 106 826 l 1,10,11
 176 946 176 946 303 1029 c 128,-1,12
 430 1112 430 1112 602 1112 c 0,13,14
 818 1112 818 1112 930 955 c 128,-1,15
 1042 798 1042 798 1000 536 c 0,16,17
 956 272 956 272 793 120 c 128,-1,18
 630 -32 630 -32 424 -32 c 0,19,20
 226 -32 226 -32 114 125 c 128,-1,21
 2 282 2 282 44 534 c 0,0,1
300 446 m 1,22,23
 282 342 282 342 324 267 c 128,-1,24
 366 192 366 192 460 192 c 256,25,26
 556 192 556 192 625 267 c 128,-1,27
 694 342 694 342 714 446 c 1,28,-1
 300 446 l 1,22,23
EndSplineSet
EndChar

StartChar: uni01E4
Encoding: 484 484 422
Width: 1418
GlyphClass: 2
Flags: W
LayerCount: 2
Fore
SplineSet
86 736 m 0,0,1
 120 944 120 944 222 1115 c 128,-1,2
 324 1286 324 1286 497 1394 c 128,-1,3
 670 1502 670 1502 882 1502 c 0,4,5
 996 1502 996 1502 1086 1463 c 128,-1,6
 1176 1424 1176 1424 1230 1361 c 128,-1,7
 1284 1298 1284 1298 1314 1241 c 128,-1,8
 1344 1184 1344 1184 1360 1128 c 1,9,-1
 1094 1046 l 1,10,11
 1094 1048 1094 1048 1085 1067 c 128,-1,12
 1076 1086 1076 1086 1072 1091 c 128,-1,13
 1068 1096 1068 1096 1057 1116 c 128,-1,14
 1046 1136 1046 1136 1020 1170 c 0,15,16
 1006 1186 1006 1186 994 1194 c 128,-1,17
 982 1202 982 1202 964 1214 c 128,-1,18
 946 1226 946 1226 928 1231 c 128,-1,19
 910 1236 910 1236 887 1241 c 128,-1,20
 864 1246 864 1246 838 1246 c 0,21,22
 670 1246 670 1246 548 1109 c 128,-1,23
 426 972 426 972 388 736 c 0,24,25
 350 504 350 504 425 363 c 128,-1,26
 500 222 500 222 650 222 c 0,27,28
 808 222 808 222 906 324 c 1,29,-1
 596 324 l 1,30,-1
 626 506 l 1,31,-1
 1004 506 l 1,32,33
 1016 550 1016 550 1016 552 c 2,34,-1
 1022 594 l 1,35,-1
 702 594 l 1,36,-1
 742 838 l 1,37,-1
 1346 838 l 1,38,-1
 1290 506 l 1,39,-1
 1398 506 l 1,40,-1
 1368 324 l 1,41,-1
 1260 324 l 1,42,-1
 1206 0 l 1,43,-1
 1006 0 l 1,44,-1
 1000 112 l 1,45,46
 860 -32 860 -32 604 -32 c 0,47,48
 334 -32 334 -32 181 174 c 128,-1,49
 28 380 28 380 86 736 c 0,0,1
EndSplineSet
EndChar

StartChar: uni01E5
Encoding: 485 485 423
Width: 1076
GlyphClass: 2
Flags: W
LayerCount: 2
Fore
SplineSet
64 608 m 0,0,1
 102 834 102 834 247 973 c 128,-1,2
 392 1112 392 1112 576 1112 c 0,3,4
 658 1112 658 1112 709 1073 c 128,-1,5
 760 1034 760 1034 772 992 c 1,6,-1
 786 1080 l 1,7,-1
 1056 1080 l 1,8,-1
 916 228 l 2,9,10
 900 132 900 132 882 62 c 1,11,-1
 996 62 l 1,12,-1
 970 -104 l 1,13,-1
 832 -104 l 1,14,15
 760 -264 760 -264 642 -347 c 128,-1,16
 524 -430 524 -430 334 -430 c 0,17,18
 72 -430 72 -430 -42 -216 c 1,19,-1
 156 -82 l 1,20,21
 226 -202 226 -202 374 -202 c 0,22,23
 472 -202 472 -202 556 -104 c 1,24,-1
 256 -104 l 1,25,-1
 284 62 l 1,26,-1
 618 62 l 1,27,28
 628 98 628 98 636 148 c 2,29,-1
 646 210 l 1,30,31
 608 166 608 166 540 137 c 128,-1,32
 472 108 472 108 412 108 c 0,33,34
 228 108 228 108 127 242 c 128,-1,35
 26 376 26 376 64 608 c 0,0,1
342 608 m 0,36,37
 322 484 322 484 366 418 c 128,-1,38
 410 352 410 352 482 352 c 0,39,40
 556 352 556 352 621 422 c 128,-1,41
 686 492 686 492 706 612 c 256,42,43
 726 732 726 732 686 800 c 128,-1,44
 646 868 646 868 566 868 c 256,45,46
 486 868 486 868 424 797 c 128,-1,47
 362 726 362 726 342 608 c 0,36,37
EndSplineSet
EndChar

StartChar: uni01EF
Encoding: 495 495 433
Width: 1124
GlyphClass: 2
Flags: W
LayerCount: 2
Fore
SplineSet
334 1574 m 1,0,-1
 594 1574 l 1,1,-1
 702 1388 l 1,2,-1
 874 1574 l 1,3,-1
 1132 1574 l 1,4,-1
 790 1242 l 1,5,-1
 560 1242 l 1,6,-1
 334 1574 l 1,0,-1
-24 0 m 1,7,-1
 228 62 l 1,8,9
 226 -34 226 -34 275 -110 c 128,-1,10
 324 -186 324 -186 428 -186 c 0,11,12
 534 -186 534 -186 612 -110 c 128,-1,13
 690 -34 690 -34 708 80 c 0,14,15
 728 196 728 196 674 276 c 128,-1,16
 620 356 620 356 492 356 c 2,17,-1
 302 356 l 1,18,-1
 334 550 l 1,19,-1
 640 838 l 1,20,-1
 176 838 l 1,21,-1
 216 1080 l 1,22,-1
 1084 1080 l 1,23,-1
 1056 906 l 1,24,-1
 678 564 l 1,25,-1
 750 546 l 1,26,27
 874 502 874 502 943 373 c 128,-1,28
 1012 244 1012 244 984 80 c 0,29,30
 948 -134 948 -134 785 -282 c 128,-1,31
 622 -430 622 -430 398 -430 c 0,32,33
 194 -430 194 -430 88 -306 c 128,-1,34
 -18 -182 -18 -182 -24 0 c 1,7,-1
EndSplineSet
EndChar

StartChar: uni01F6
Encoding: 502 502 440
Width: 1914
GlyphClass: 2
Flags: W
LayerCount: 2
Fore
SplineSet
36 0 m 1,0,-1
 278 1470 l 1,1,-1
 570 1470 l 1,2,-1
 474 882 l 1,3,-1
 978 882 l 1,4,-1
 1076 1470 l 1,5,-1
 1370 1470 l 1,6,-1
 1198 424 l 2,7,8
 1162 212 1162 212 1324 212 c 0,9,10
 1390 212 1390 212 1443 265 c 128,-1,11
 1496 318 1496 318 1508 394 c 2,12,-1
 1622 1080 l 1,13,-1
 1914 1080 l 1,14,-1
 1794 358 l 2,15,16
 1762 164 1762 164 1615 66 c 128,-1,17
 1468 -32 1468 -32 1282 -32 c 0,18,19
 1194 -32 1194 -32 1121 -12 c 128,-1,20
 1048 8 1048 8 988 51 c 128,-1,21
 928 94 928 94 901 173 c 128,-1,22
 874 252 874 252 892 360 c 2,23,-1
 936 628 l 1,24,-1
 432 628 l 1,25,-1
 328 0 l 1,26,-1
 36 0 l 1,0,-1
EndSplineSet
EndChar

StartChar: uni01F7
Encoding: 503 503 441
Width: 1246
GlyphClass: 2
Flags: W
LayerCount: 2
Fore
SplineSet
-32 -422 m 1,0,-1
 280 1470 l 1,1,-1
 572 1470 l 1,2,-1
 554 1356 l 1,3,4
 736 1502 736 1502 916 1502 c 0,5,6
 1132 1502 1132 1502 1216 1367 c 128,-1,7
 1300 1232 1300 1232 1258 984 c 0,8,9
 1230 814 1230 814 1132 652 c 128,-1,10
 1034 490 1034 490 898 367 c 128,-1,11
 762 244 762 244 618 153 c 128,-1,12
 474 62 474 62 330 2 c 1,13,-1
 260 -422 l 1,14,-1
 -32 -422 l 1,0,-1
376 288 m 1,15,16
 576 388 576 388 749 577 c 128,-1,17
 922 766 922 766 956 970 c 0,18,19
 1002 1246 1002 1246 814 1246 c 0,20,21
 742 1246 742 1246 658 1196 c 128,-1,22
 574 1146 574 1146 506 1068 c 1,23,-1
 376 288 l 1,15,16
EndSplineSet
EndChar

StartChar: Aringacute
Encoding: 506 506 444
Width: 1314
GlyphClass: 2
Flags: W
LayerCount: 2
Fore
SplineSet
-102 0 m 1,0,-1
 640 1444 l 1,1,2
 620 1458 620 1458 604 1476 c 0,3,4
 530 1556 530 1556 548 1678 c 0,5,6
 568 1794 568 1794 666 1878 c 0,7,8
 720 1924 720 1924 786 1944 c 1,9,-1
 994 2206 l 1,10,-1
 1320 2206 l 1,11,-1
 1022 1932 l 1,12,13
 1060 1912 1060 1912 1090 1876 c 0,14,15
 1158 1792 1158 1792 1138 1678 c 0,16,17
 1118 1558 1118 1558 1020 1478 c 0,18,19
 994 1456 994 1456 968 1442 c 1,20,-1
 1228 0 l 1,21,-1
 920 0 l 1,22,-1
 872 328 l 1,23,-1
 364 328 l 1,24,-1
 206 0 l 1,25,-1
 -102 0 l 1,0,-1
474 568 m 1,26,-1
 838 568 l 1,27,-1
 798 880 l 2,28,29
 776 1066 776 1066 762 1180 c 1,30,-1
 752 1180 l 1,31,32
 686 1024 686 1024 620 880 c 2,33,-1
 474 568 l 1,26,-1
740 1678 m 0,34,35
 732 1634 732 1634 756 1603 c 128,-1,36
 780 1572 780 1572 828 1572 c 0,37,38
 870 1572 870 1572 904 1601 c 128,-1,39
 938 1630 938 1630 946 1678 c 0,40,41
 954 1724 954 1724 930 1754 c 128,-1,42
 906 1784 906 1784 862 1784 c 0,43,44
 816 1784 816 1784 782 1754 c 128,-1,45
 748 1724 748 1724 740 1678 c 0,34,35
EndSplineSet
EndChar

StartChar: aringacute
Encoding: 507 507 445
Width: 1022
GlyphClass: 2
Flags: W
LayerCount: 2
Fore
SplineSet
4 294 m 0,0,1
 28 442 28 442 151 539 c 128,-1,2
 274 636 274 636 484 668 c 0,3,4
 658 696 658 696 688 706 c 1,5,-1
 698 760 l 2,6,7
 710 828 710 828 671 859 c 128,-1,8
 632 890 632 890 562 890 c 0,9,10
 404 890 404 890 266 758 c 1,11,-1
 130 902 l 1,12,13
 330 1112 330 1112 596 1112 c 0,14,15
 830 1112 830 1112 908 994 c 128,-1,16
 986 876 986 876 950 658 c 2,17,-1
 840 0 l 1,18,-1
 580 0 l 1,19,-1
 598 112 l 1,20,21
 558 50 558 50 480 9 c 128,-1,22
 402 -32 402 -32 310 -32 c 0,23,24
 144 -32 144 -32 62 58 c 128,-1,25
 -20 148 -20 148 4 294 c 0,0,1
384 1460 m 0,26,27
 404 1576 404 1576 498 1660 c 0,28,29
 550 1706 550 1706 616 1726 c 1,30,-1
 818 1988 l 1,31,-1
 1132 1988 l 1,32,-1
 844 1714 l 1,33,34
 880 1694 880 1694 908 1658 c 0,35,36
 974 1574 974 1574 954 1460 c 0,37,38
 934 1340 934 1340 838 1260 c 128,-1,39
 742 1180 742 1180 624 1180 c 0,40,41
 508 1180 508 1180 436 1259 c 128,-1,42
 364 1338 364 1338 384 1460 c 0,26,27
280 320 m 0,43,44
 272 272 272 272 303 238 c 128,-1,45
 334 204 334 204 390 204 c 0,46,47
 478 204 478 204 553 269 c 128,-1,48
 628 334 628 334 646 442 c 2,49,-1
 658 514 l 1,50,51
 556 488 556 488 494 480 c 0,52,53
 302 450 302 450 280 320 c 0,43,44
568 1460 m 0,54,55
 560 1416 560 1416 584 1386 c 128,-1,56
 608 1356 608 1356 652 1356 c 0,57,58
 694 1356 694 1356 727 1384 c 128,-1,59
 760 1412 760 1412 768 1460 c 0,60,61
 776 1506 776 1506 754 1536 c 128,-1,62
 732 1566 732 1566 688 1566 c 0,63,64
 646 1566 646 1566 611 1536 c 128,-1,65
 576 1506 576 1506 568 1460 c 0,54,55
EndSplineSet
EndChar

StartChar: uni021C
Encoding: 540 540 478
Width: 1122
GlyphClass: 2
Flags: W
LayerCount: 2
Fore
SplineSet
-60 -130 m 1,0,1
 82 -166 82 -166 258 -166 c 0,2,3
 424 -166 424 -166 542 -70 c 128,-1,4
 660 26 660 26 686 184 c 0,5,6
 716 360 716 360 651 441 c 128,-1,7
 586 522 586 522 478 522 c 0,8,9
 364 522 364 522 226 470 c 1,10,-1
 270 730 l 1,11,-1
 502 778 l 2,12,13
 618 798 618 798 701 864 c 128,-1,14
 784 930 784 930 802 1038 c 0,15,16
 816 1128 816 1128 767 1185 c 128,-1,17
 718 1242 718 1242 618 1242 c 0,18,19
 538 1242 538 1242 483 1204 c 128,-1,20
 428 1166 428 1166 374 1086 c 1,21,-1
 162 1198 l 1,22,23
 242 1344 242 1344 379 1423 c 128,-1,24
 516 1502 516 1502 668 1502 c 0,25,26
 916 1502 916 1502 1032 1384 c 128,-1,27
 1148 1266 1148 1266 1116 1074 c 0,28,29
 1090 914 1090 914 1004 811 c 128,-1,30
 918 708 918 708 814 662 c 1,31,-1
 814 660 l 1,32,33
 916 618 916 618 968 491 c 128,-1,34
 1020 364 1020 364 990 178 c 0,35,36
 942 -112 942 -112 728 -270 c 128,-1,37
 514 -428 514 -428 218 -428 c 0,38,39
 84 -428 84 -428 -104 -394 c 1,40,-1
 -60 -130 l 1,0,1
EndSplineSet
EndChar

StartChar: uni021D
Encoding: 541 541 479
Width: 848
GlyphClass: 2
Flags: W
LayerCount: 2
Fore
SplineSet
-80 -158 m 1,0,1
 48 -186 48 -186 166 -186 c 0,2,3
 272 -186 272 -186 345 -124 c 128,-1,4
 418 -62 418 -62 438 56 c 0,5,6
 456 166 456 166 415 228 c 128,-1,7
 374 290 374 290 302 290 c 0,8,9
 242 290 242 290 132 256 c 1,10,-1
 172 498 l 1,11,-1
 346 534 l 2,12,13
 420 550 420 550 472 600 c 128,-1,14
 524 650 524 650 536 720 c 0,15,16
 548 788 548 788 524 828 c 128,-1,17
 500 868 500 868 454 868 c 0,18,19
 346 868 346 868 288 736 c 1,20,-1
 94 814 l 1,21,22
 136 940 136 940 245 1026 c 128,-1,23
 354 1112 354 1112 510 1112 c 0,24,25
 670 1112 670 1112 755 1007 c 128,-1,26
 840 902 840 902 816 760 c 0,27,28
 780 538 780 538 590 428 c 1,29,30
 658 398 658 398 697 296 c 128,-1,31
 736 194 736 194 716 64 c 0,32,33
 676 -180 676 -180 523 -305 c 128,-1,34
 370 -430 370 -430 128 -430 c 0,35,36
 24 -430 24 -430 -122 -408 c 1,37,-1
 -80 -158 l 1,0,1
EndSplineSet
EndChar

StartChar: uni0220
Encoding: 544 544 482
Width: 1334
GlyphClass: 2
Flags: W
LayerCount: 2
Fore
SplineSet
36 0 m 1,0,-1
 278 1470 l 1,1,-1
 556 1470 l 1,2,-1
 532 1318 l 1,3,-1
 534 1318 l 1,4,5
 726 1502 726 1502 946 1502 c 0,6,7
 1368 1502 1368 1502 1280 966 c 2,8,-1
 1048 -424 l 1,9,-1
 754 -424 l 1,10,-1
 982 952 l 2,11,12
 1030 1246 1030 1246 828 1246 c 0,13,14
 704 1246 704 1246 601 1137 c 128,-1,15
 498 1028 498 1028 472 870 c 2,16,-1
 328 0 l 1,17,-1
 36 0 l 1,0,-1
EndSplineSet
EndChar

StartChar: uni0221
Encoding: 545 545 483
Width: 1378
GlyphClass: 2
Flags: W
LayerCount: 2
Fore
SplineSet
894 -132 m 1,0,1
 902 -234 902 -234 992 -234 c 0,2,3
 1030 -234 1030 -234 1053 -214 c 128,-1,4
 1076 -194 1076 -194 1080 -166 c 0,5,6
 1084 -140 1084 -140 1063 -116 c 128,-1,7
 1042 -92 1042 -92 1002 -92 c 0,8,9
 942 -92 942 -92 894 -132 c 1,0,1
46 540 m 0,10,11
 90 808 90 808 238 960 c 128,-1,12
 386 1112 386 1112 580 1112 c 0,13,14
 658 1112 658 1112 711 1079 c 128,-1,15
 764 1046 764 1046 788 1000 c 1,16,-1
 874 1514 l 1,17,-1
 1144 1514 l 1,18,-1
 922 166 l 2,19,20
 910 90 910 90 910 82 c 1,21,22
 972 114 972 114 1044 114 c 0,23,24
 1170 114 1170 114 1239 35 c 128,-1,25
 1308 -44 1308 -44 1288 -158 c 0,26,27
 1266 -286 1266 -286 1178 -358 c 128,-1,28
 1090 -430 1090 -430 960 -430 c 0,29,30
 840 -430 840 -430 758 -344 c 1,31,32
 734 -376 734 -376 704 -440 c 1,33,-1
 498 -348 l 1,34,35
 590 -190 590 -190 636 -134 c 1,36,37
 628 -82 628 -82 638 72 c 1,38,-1
 644 104 l 1,39,40
 614 58 614 58 543 13 c 128,-1,41
 472 -32 472 -32 388 -32 c 256,42,43
 304 -32 304 -32 235 -1 c 128,-1,44
 166 30 166 30 113 96 c 128,-1,45
 60 162 60 162 41 276 c 128,-1,46
 22 390 22 390 46 540 c 0,10,11
322 540 m 0,47,48
 296 380 296 380 336 296 c 128,-1,49
 376 212 376 212 466 212 c 0,50,51
 558 212 558 212 624 299 c 128,-1,52
 690 386 690 386 716 540 c 0,53,54
 740 688 740 688 706 778 c 128,-1,55
 672 868 672 868 576 868 c 256,56,57
 480 868 480 868 414 781 c 128,-1,58
 348 694 348 694 322 540 c 0,47,48
EndSplineSet
EndChar

StartChar: uni0222
Encoding: 546 546 484
Width: 1418
GlyphClass: 2
Flags: W
LayerCount: 2
Fore
SplineSet
48 496 m 0,0,1
 68 616 68 616 149 731 c 128,-1,2
 230 846 230 846 370 926 c 1,3,4
 290 982 290 982 248 1058 c 128,-1,5
 206 1134 206 1134 228 1268 c 0,6,7
 248 1388 248 1388 298 1470 c 1,8,-1
 586 1470 l 1,9,10
 556 1408 556 1408 536 1286 c 0,11,12
 520 1188 520 1188 585 1110 c 128,-1,13
 650 1032 650 1032 788 1032 c 256,14,15
 926 1032 926 1032 1015 1110 c 128,-1,16
 1104 1188 1104 1188 1120 1286 c 0,17,18
 1136 1382 1136 1382 1130 1470 c 1,19,-1
 1420 1470 l 1,20,21
 1442 1388 1442 1388 1422 1268 c 0,22,23
 1400 1132 1400 1132 1336 1057 c 128,-1,24
 1272 982 1272 982 1174 926 c 1,25,26
 1286 848 1286 848 1326 733 c 128,-1,27
 1366 618 1366 618 1346 496 c 0,28,29
 1330 402 1330 402 1279 312 c 128,-1,30
 1228 222 1228 222 1140 143 c 128,-1,31
 1052 64 1052 64 915 16 c 128,-1,32
 778 -32 778 -32 612 -32 c 256,33,34
 446 -32 446 -32 322 16 c 128,-1,35
 198 64 198 64 138 144 c 128,-1,36
 78 224 78 224 55 313 c 128,-1,37
 32 402 32 402 48 496 c 0,0,1
352 496 m 0,38,39
 330 368 330 368 415 295 c 128,-1,40
 500 222 500 222 654 222 c 0,41,42
 804 222 804 222 912 295 c 128,-1,43
 1020 368 1020 368 1042 496 c 0,44,45
 1062 622 1062 622 976 698 c 128,-1,46
 890 774 890 774 744 774 c 256,47,48
 598 774 598 774 485 698 c 128,-1,49
 372 622 372 622 352 496 c 0,38,39
EndSplineSet
EndChar

StartChar: uni0223
Encoding: 547 547 485
Width: 1048
GlyphClass: 2
Flags: W
LayerCount: 2
Fore
SplineSet
40 498 m 0,0,1
 64 644 64 644 134 755 c 128,-1,2
 204 866 204 866 308 922 c 1,3,4
 164 1034 164 1034 206 1272 c 0,5,6
 222 1374 222 1374 272 1476 c 1,7,-1
 538 1476 l 1,8,9
 496 1352 496 1352 486 1292 c 0,10,11
 442 1032 442 1032 602 1032 c 256,12,13
 762 1032 762 1032 804 1292 c 0,14,15
 812 1346 812 1346 812 1476 c 1,16,-1
 1076 1476 l 1,17,18
 1094 1376 1094 1376 1076 1272 c 0,19,20
 1036 1028 1036 1028 862 922 c 1,21,22
 948 866 948 866 980 755 c 128,-1,23
 1012 644 1012 644 988 498 c 0,24,25
 976 424 976 424 951 353 c 128,-1,26
 926 282 926 282 878 210 c 128,-1,27
 830 138 830 138 770 86 c 128,-1,28
 710 34 710 34 620 1 c 128,-1,29
 530 -32 530 -32 426 -32 c 0,30,31
 298 -32 298 -32 209 16 c 128,-1,32
 120 64 120 64 82 146 c 128,-1,33
 44 228 44 228 34 316 c 128,-1,34
 24 404 24 404 40 498 c 0,0,1
318 498 m 0,35,36
 296 368 296 368 336 290 c 128,-1,37
 376 212 376 212 466 212 c 0,38,39
 558 212 558 212 624 291 c 128,-1,40
 690 370 690 370 712 498 c 0,41,42
 732 624 732 624 692 704 c 128,-1,43
 652 784 652 784 560 784 c 0,44,45
 470 784 470 784 404 704 c 128,-1,46
 338 624 338 624 318 498 c 0,35,36
EndSplineSet
EndChar

StartChar: uni0224
Encoding: 548 548 486
Width: 1174
GlyphClass: 2
Flags: W
LayerCount: 2
Fore
SplineSet
-52 0 m 1,0,-1
 -16 216 l 1,1,-1
 856 1214 l 1,2,-1
 208 1214 l 1,3,-1
 250 1470 l 1,4,-1
 1264 1470 l 1,5,-1
 1226 1250 l 1,6,-1
 354 254 l 1,7,-1
 836 254 l 2,8,9
 1184 254 1184 254 1120 -146 c 0,10,11
 1096 -290 1096 -290 1012 -424 c 1,12,-1
 750 -424 l 1,13,14
 832 -306 832 -306 852 -186 c 0,15,16
 864 -114 864 -114 834 -57 c 128,-1,17
 804 0 804 0 720 0 c 2,18,-1
 -52 0 l 1,0,-1
EndSplineSet
EndChar

StartChar: uni0225
Encoding: 549 549 487
Width: 922
GlyphClass: 2
Flags: W
LayerCount: 2
Fore
SplineSet
-58 0 m 1,0,-1
 -26 188 l 1,1,-1
 570 838 l 1,2,-1
 118 838 l 1,3,-1
 158 1082 l 1,4,-1
 966 1082 l 1,5,-1
 936 904 l 1,6,-1
 334 244 l 1,7,-1
 656 244 l 2,8,9
 988 244 988 244 924 -142 c 0,10,11
 892 -330 892 -330 838 -424 c 1,12,-1
 602 -424 l 1,13,14
 660 -336 660 -336 684 -196 c 0,15,16
 700 -102 700 -102 672 -51 c 128,-1,17
 644 0 644 0 554 0 c 2,18,-1
 -58 0 l 1,0,-1
EndSplineSet
EndChar

StartChar: uni0234
Encoding: 564 564 502
Width: 780
GlyphClass: 2
Flags: W
LayerCount: 2
Fore
SplineSet
296 -132 m 1,0,1
 296 -172 296 -172 321 -203 c 128,-1,2
 346 -234 346 -234 388 -234 c 0,3,4
 428 -234 428 -234 453 -214 c 128,-1,5
 478 -194 478 -194 484 -166 c 256,6,7
 488 -138 488 -138 465 -115 c 128,-1,8
 442 -92 442 -92 404 -92 c 0,9,10
 348 -92 348 -92 296 -132 c 1,0,1
-98 -348 m 1,11,12
 4 -180 4 -180 38 -134 c 1,13,14
 18 -38 18 -38 42 96 c 2,15,-1
 276 1514 l 1,16,-1
 544 1514 l 1,17,-1
 322 166 l 2,18,19
 312 110 312 110 310 80 c 1,20,21
 380 114 380 114 446 114 c 0,22,23
 574 114 574 114 641 35 c 128,-1,24
 708 -44 708 -44 690 -158 c 0,25,26
 668 -286 668 -286 579 -358 c 128,-1,27
 490 -430 490 -430 360 -430 c 0,28,29
 240 -430 240 -430 156 -344 c 1,30,31
 130 -382 130 -382 102 -440 c 1,32,-1
 -98 -348 l 1,11,12
EndSplineSet
EndChar

StartChar: uni0235
Encoding: 565 565 503
Width: 1352
GlyphClass: 2
Flags: W
LayerCount: 2
Fore
SplineSet
866 -132 m 1,0,1
 868 -176 868 -176 894 -205 c 128,-1,2
 920 -234 920 -234 962 -234 c 0,3,4
 998 -234 998 -234 1024 -214 c 128,-1,5
 1050 -194 1050 -194 1054 -164 c 0,6,7
 1058 -138 1058 -138 1037 -115 c 128,-1,8
 1016 -92 1016 -92 974 -92 c 0,9,10
 920 -92 920 -92 866 -132 c 1,0,1
8 0 m 1,11,-1
 186 1080 l 1,12,-1
 444 1080 l 1,13,-1
 426 974 l 1,14,-1
 428 974 l 1,15,16
 536 1112 536 1112 710 1112 c 0,17,18
 1048 1112 1048 1112 980 692 c 2,19,-1
 890 152 l 2,20,21
 886 136 886 136 882 118 c 256,22,23
 880 100 880 100 878 82 c 1,24,25
 944 114 944 114 1018 114 c 0,26,27
 1142 114 1142 114 1211 35 c 128,-1,28
 1280 -44 1280 -44 1260 -158 c 0,29,30
 1238 -286 1238 -286 1148 -358 c 128,-1,31
 1058 -430 1058 -430 928 -430 c 0,32,33
 812 -430 812 -430 730 -342 c 1,34,35
 678 -436 678 -436 676 -440 c 2,36,-1
 470 -348 l 1,37,38
 520 -248 520 -248 612 -134 c 1,39,40
 590 -38 590 -38 612 98 c 2,41,-1
 704 658 l 2,42,43
 720 758 720 758 703 813 c 128,-1,44
 686 868 686 868 612 868 c 0,45,46
 526 868 526 868 461 796 c 128,-1,47
 396 724 396 724 378 614 c 2,48,-1
 276 0 l 1,49,-1
 8 0 l 1,11,-1
EndSplineSet
EndChar

StartChar: uni0236
Encoding: 566 566 504
Width: 848
GlyphClass: 2
Flags: W
LayerCount: 2
Fore
SplineSet
350 -132 m 1,0,1
 348 -166 348 -166 374 -200 c 128,-1,2
 400 -234 400 -234 442 -234 c 0,3,4
 482 -234 482 -234 507 -214 c 128,-1,5
 532 -194 532 -194 538 -166 c 0,6,7
 542 -142 542 -142 521 -117 c 128,-1,8
 500 -92 500 -92 460 -92 c 0,9,10
 402 -92 402 -92 350 -132 c 1,0,1
72 838 m 1,11,-1
 112 1080 l 1,12,-1
 258 1080 l 1,13,-1
 310 1388 l 1,14,-1
 576 1388 l 1,15,-1
 526 1080 l 1,16,-1
 738 1080 l 1,17,-1
 698 838 l 1,18,-1
 486 838 l 1,19,-1
 360 82 l 1,20,21
 428 114 428 114 498 114 c 0,22,23
 626 114 626 114 693 35 c 128,-1,24
 760 -44 760 -44 742 -158 c 0,25,26
 720 -286 720 -286 632 -358 c 128,-1,27
 544 -430 544 -430 414 -430 c 0,28,29
 294 -430 294 -430 210 -344 c 1,30,31
 178 -386 178 -386 156 -440 c 1,32,-1
 -44 -348 l 1,33,34
 46 -196 46 -196 94 -134 c 1,35,36
 74 -42 74 -42 96 98 c 2,37,-1
 218 838 l 1,38,-1
 72 838 l 1,11,-1
EndSplineSet
EndChar

StartChar: uni0237
Encoding: 567 567 505
Width: 510
GlyphClass: 2
Flags: W
LayerCount: 2
Fore
SplineSet
-144 -162 m 1,0,-1
 -112 -162 l 2,1,2
 -50 -162 -50 -162 -14 -118 c 128,-1,3
 22 -74 22 -74 38 26 c 2,4,-1
 214 1080 l 1,5,-1
 486 1080 l 1,6,-1
 310 14 l 2,7,8
 276 -196 276 -196 168 -303 c 128,-1,9
 60 -410 60 -410 -110 -410 c 2,10,-1
 -186 -410 l 1,11,-1
 -144 -162 l 1,0,-1
EndSplineSet
EndChar

StartChar: uni0238
Encoding: 568 568 506
Width: 1700
GlyphClass: 3
Flags: W
LayerCount: 2
Fore
SplineSet
46 540 m 0,0,1
 90 810 90 810 240 961 c 128,-1,2
 390 1112 390 1112 578 1112 c 0,3,4
 656 1112 656 1112 710 1078 c 128,-1,5
 764 1044 764 1044 788 1000 c 1,6,-1
 874 1514 l 1,7,-1
 1142 1514 l 1,8,-1
 1058 1006 l 1,9,10
 1174 1112 1174 1112 1306 1112 c 0,11,12
 1496 1112 1496 1112 1595 961 c 128,-1,13
 1694 810 1694 810 1648 540 c 0,14,15
 1622 386 1622 386 1564 270 c 128,-1,16
 1506 154 1506 154 1430 91 c 128,-1,17
 1354 28 1354 28 1275 -2 c 128,-1,18
 1196 -32 1196 -32 1120 -32 c 0,19,20
 1034 -32 1034 -32 981 8 c 128,-1,21
 928 48 928 48 908 102 c 1,22,-1
 892 0 l 1,23,-1
 622 0 l 1,24,-1
 640 104 l 1,25,26
 600 48 600 48 529 8 c 128,-1,27
 458 -32 458 -32 386 -32 c 0,28,29
 306 -32 306 -32 240 -3 c 128,-1,30
 174 26 174 26 118 89 c 128,-1,31
 62 152 62 152 41 269 c 128,-1,32
 20 386 20 386 46 540 c 0,0,1
322 540 m 0,33,34
 294 376 294 376 335 294 c 128,-1,35
 376 212 376 212 466 212 c 0,36,37
 560 212 560 212 625 297 c 128,-1,38
 690 382 690 382 714 528 c 2,39,-1
 714 534 l 2,40,41
 740 686 740 686 706 777 c 128,-1,42
 672 868 672 868 574 868 c 0,43,44
 480 868 480 868 414 783 c 128,-1,45
 348 698 348 698 322 540 c 0,33,34
974 526 m 2,46,47
 950 386 950 386 992 299 c 128,-1,48
 1034 212 1034 212 1120 212 c 256,49,50
 1208 212 1208 212 1277 295 c 128,-1,51
 1346 378 1346 378 1372 540 c 0,52,53
 1398 692 1398 692 1359 780 c 128,-1,54
 1320 868 1320 868 1230 868 c 0,55,56
 1134 868 1134 868 1067 775 c 128,-1,57
 1000 682 1000 682 976 534 c 2,58,-1
 974 526 l 2,46,47
EndSplineSet
EndChar

StartChar: uni0239
Encoding: 569 569 507
Width: 1702
GlyphClass: 3
Flags: W
LayerCount: 2
Fore
SplineSet
46 540 m 0,0,1
 90 808 90 808 238 960 c 128,-1,2
 386 1112 386 1112 578 1112 c 0,3,4
 720 1112 720 1112 786 990 c 1,5,-1
 802 1080 l 1,6,-1
 1070 1080 l 1,7,-1
 1056 994 l 1,8,9
 1166 1112 1166 1112 1306 1112 c 0,10,11
 1498 1112 1498 1112 1595 959 c 128,-1,12
 1692 806 1692 806 1648 540 c 0,13,14
 1622 388 1622 388 1565 273 c 128,-1,15
 1508 158 1508 158 1433 94 c 128,-1,16
 1358 30 1358 30 1279 -1 c 128,-1,17
 1200 -32 1200 -32 1120 -32 c 0,18,19
 962 -32 962 -32 908 100 c 1,20,-1
 822 -424 l 1,21,-1
 552 -424 l 1,22,-1
 640 100 l 1,23,24
 600 48 600 48 531 8 c 128,-1,25
 462 -32 462 -32 382 -32 c 256,26,27
 302 -32 302 -32 234 -2 c 128,-1,28
 166 28 166 28 112 93 c 128,-1,29
 58 158 58 158 39 273 c 128,-1,30
 20 388 20 388 46 540 c 0,0,1
320 540 m 0,31,32
 294 382 294 382 334 297 c 128,-1,33
 374 212 374 212 460 212 c 0,34,35
 558 212 558 212 624 297 c 128,-1,36
 690 382 690 382 716 540 c 2,37,-1
 718 552 l 2,38,39
 742 692 742 692 703 780 c 128,-1,40
 664 868 664 868 568 868 c 0,41,42
 476 868 476 868 410 779 c 128,-1,43
 344 690 344 690 320 540 c 0,31,32
976 546 m 2,44,45
 950 392 950 392 991 302 c 128,-1,46
 1032 212 1032 212 1120 212 c 256,47,48
 1208 212 1208 212 1277 296 c 128,-1,49
 1346 380 1346 380 1372 540 c 0,50,51
 1398 692 1398 692 1360 780 c 128,-1,52
 1322 868 1322 868 1230 868 c 0,53,54
 1142 868 1142 868 1071 779 c 128,-1,55
 1000 690 1000 690 978 554 c 2,56,-1
 976 546 l 2,44,45
EndSplineSet
EndChar

StartChar: uni023A
Encoding: 570 570 508
Width: 1314
GlyphClass: 2
Flags: W
LayerCount: 2
Fore
SplineSet
474 568 m 1,0,-1
 496 568 l 1,1,-1
 792 936 l 1,2,3
 788 968 788 968 782 1016 c 0,4,5
 768 1122 768 1122 762 1180 c 1,6,-1
 752 1180 l 1,7,8
 716 1096 716 1096 620 880 c 2,9,-1
 474 568 l 1,0,-1
694 568 m 1,10,-1
 838 568 l 1,11,-1
 818 724 l 1,12,-1
 694 568 l 1,10,-1
-102 0 m 1,13,-1
 652 1470 l 1,14,-1
 964 1470 l 1,15,-1
 1010 1210 l 1,16,-1
 1304 1576 l 1,17,-1
 1498 1576 l 1,18,-1
 1046 1010 l 1,19,-1
 1228 0 l 1,20,-1
 920 0 l 1,21,-1
 872 328 l 1,22,-1
 502 328 l 1,23,-1
 84 -196 l 1,24,-1
 -116 -196 l 1,25,-1
 42 0 l 1,26,-1
 -102 0 l 1,13,-1
EndSplineSet
EndChar

StartChar: uni023B
Encoding: 571 571 509
Width: 1308
GlyphClass: 2
Flags: W
LayerCount: 2
Fore
SplineSet
86 736 m 0,0,1
 142 1074 142 1074 355 1288 c 128,-1,2
 568 1502 568 1502 864 1502 c 0,3,4
 952 1502 952 1502 1042 1476 c 1,5,-1
 1090 1572 l 1,6,-1
 1302 1572 l 1,7,-1
 1200 1376 l 1,8,9
 1244 1338 1244 1338 1284 1266 c 128,-1,10
 1324 1194 1324 1194 1336 1128 c 1,11,-1
 1072 1044 l 1,12,13
 1068 1056 1068 1056 1048 1094 c 1,14,-1
 592 230 l 1,15,16
 626 222 626 222 652 222 c 0,17,18
 762 222 762 222 856 296 c 128,-1,19
 950 370 950 370 998 462 c 1,20,-1
 1248 376 l 1,21,22
 1210 312 1210 312 1161 252 c 128,-1,23
 1112 192 1112 192 1032 122 c 128,-1,24
 952 52 952 52 843 10 c 128,-1,25
 734 -32 734 -32 610 -32 c 0,26,27
 530 -32 530 -32 464 -16 c 1,28,-1
 422 -102 l 1,29,-1
 206 -102 l 1,30,-1
 292 60 l 1,31,32
 156 160 156 160 102 333 c 128,-1,33
 48 506 48 506 86 736 c 0,0,1
438 334 m 1,34,-1
 912 1232 l 1,35,36
 872 1246 872 1246 822 1246 c 0,37,38
 652 1246 652 1246 538 1100 c 128,-1,39
 424 954 424 954 388 736 c 0,40,41
 346 474 346 474 438 334 c 1,34,-1
EndSplineSet
EndChar

StartChar: uni023C
Encoding: 572 572 510
Width: 984
GlyphClass: 2
Flags: W
LayerCount: 2
Fore
SplineSet
46 540 m 0,0,1
 88 790 88 790 243 951 c 128,-1,2
 398 1112 398 1112 626 1112 c 0,3,4
 680 1112 680 1112 734 1098 c 1,5,-1
 790 1210 l 1,6,-1
 978 1210 l 1,7,-1
 874 1008 l 1,8,9
 912 974 912 974 940 905 c 128,-1,10
 968 836 968 836 970 770 c 1,11,-1
 748 708 l 1,12,13
 740 734 740 734 734 746 c 1,14,-1
 456 214 l 2,15,16
 460 212 460 212 474 212 c 0,17,18
 610 212 610 212 700 390 c 1,19,-1
 920 324 l 1,20,21
 902 272 902 272 860 213 c 128,-1,22
 818 154 818 154 757 98 c 128,-1,23
 696 42 696 42 609 5 c 128,-1,24
 522 -32 522 -32 430 -32 c 0,25,26
 378 -32 378 -32 332 -24 c 1,27,-1
 290 -106 l 1,28,-1
 102 -106 l 1,29,-1
 182 44 l 1,30,31
 82 122 82 122 52 258 c 128,-1,32
 22 394 22 394 46 540 c 0,0,1
332 330 m 1,33,-1
 610 864 l 1,34,35
 590 866 590 866 582 866 c 0,36,37
 484 866 484 866 416 773 c 128,-1,38
 348 680 348 680 324 540 c 0,39,40
 306 426 306 426 332 330 c 1,33,-1
EndSplineSet
EndChar

StartChar: uni023D
Encoding: 573 573 511
Width: 1082
GlyphClass: 2
Flags: W
LayerCount: 2
Fore
SplineSet
20 704 m 1,0,-1
 60 940 l 1,1,-1
 200 940 l 1,2,-1
 288 1470 l 1,3,-1
 580 1470 l 1,4,-1
 492 940 l 1,5,-1
 830 940 l 1,6,-1
 792 704 l 1,7,-1
 454 704 l 1,8,-1
 380 254 l 1,9,-1
 1012 254 l 1,10,-1
 970 0 l 1,11,-1
 46 0 l 1,12,-1
 162 704 l 1,13,-1
 20 704 l 1,0,-1
EndSplineSet
EndChar

StartChar: uni023E
Encoding: 574 574 512
Width: 1130
GlyphClass: 2
Flags: W
LayerCount: 2
Fore
SplineSet
818 1214 m 1,0,-1
 792 1066 l 1,1,-1
 898 1214 l 1,2,-1
 818 1214 l 1,0,-1
124 1214 m 1,3,-1
 166 1470 l 1,4,-1
 1080 1470 l 1,5,-1
 1150 1572 l 1,6,-1
 1340 1572 l 1,7,-1
 1256 1452 l 1,8,-1
 1218 1214 l 1,9,-1
 1088 1214 l 1,10,-1
 734 712 l 1,11,-1
 616 0 l 1,12,-1
 324 0 l 1,13,-1
 352 172 l 1,14,-1
 156 -108 l 1,15,-1
 -36 -108 l 1,16,-1
 412 526 l 1,17,-1
 526 1214 l 1,18,-1
 124 1214 l 1,3,-1
EndSplineSet
EndChar

StartChar: uni023F
Encoding: 575 575 513
Width: 918
GlyphClass: 2
Flags: W
LayerCount: 2
Fore
SplineSet
-22 234 m 1,0,-1
 184 352 l 1,1,2
 260 198 260 198 420 198 c 0,3,4
 474 198 474 198 520 226 c 128,-1,5
 566 254 566 254 574 296 c 0,6,7
 578 326 578 326 566 350 c 128,-1,8
 554 374 554 374 523 393 c 128,-1,9
 492 412 492 412 463 423 c 128,-1,10
 434 434 434 434 386 452 c 128,-1,11
 338 470 338 470 312 482 c 0,12,13
 202 528 202 528 148 595 c 128,-1,14
 94 662 94 662 114 788 c 0,15,16
 138 938 138 938 274 1025 c 128,-1,17
 410 1112 410 1112 562 1112 c 0,18,19
 706 1112 706 1112 805 1041 c 128,-1,20
 904 970 904 970 944 856 c 1,21,-1
 748 744 l 1,22,23
 704 814 704 814 656 849 c 128,-1,24
 608 884 608 884 522 884 c 0,25,26
 470 884 470 884 433 856 c 128,-1,27
 396 828 396 828 388 782 c 0,28,29
 382 744 382 744 419 709 c 128,-1,30
 456 674 456 674 514 656 c 128,-1,31
 572 638 572 638 615 621 c 128,-1,32
 658 604 658 604 710 572 c 128,-1,33
 762 540 762 540 793 504 c 128,-1,34
 824 468 824 468 841 414 c 128,-1,35
 858 360 858 360 848 296 c 0,36,37
 824 150 824 150 698 59 c 128,-1,38
 572 -32 572 -32 378 -32 c 0,39,40
 314 -32 314 -32 242 -10 c 1,41,42
 244 -22 244 -22 249 -57 c 128,-1,43
 254 -92 254 -92 257 -103 c 128,-1,44
 260 -114 260 -114 268 -141 c 128,-1,45
 276 -168 276 -168 287 -178 c 128,-1,46
 298 -188 298 -188 316 -203 c 128,-1,47
 334 -218 334 -218 360 -223 c 128,-1,48
 386 -228 386 -228 420 -228 c 0,49,50
 502 -228 502 -228 552 -216 c 1,51,-1
 518 -416 l 1,52,53
 436 -430 436 -430 372 -430 c 0,54,55
 288 -430 288 -430 227 -403 c 128,-1,56
 166 -376 166 -376 131 -338 c 128,-1,57
 96 -300 96 -300 75 -241 c 128,-1,58
 54 -182 54 -182 48 -136 c 128,-1,59
 42 -90 42 -90 40 -28 c 0,60,61
 34 142 34 142 -22 234 c 1,0,-1
EndSplineSet
EndChar

StartChar: uni0240
Encoding: 576 576 514
Width: 938
GlyphClass: 2
Flags: W
LayerCount: 2
Fore
SplineSet
-58 0 m 1,0,-1
 -26 188 l 1,1,-1
 570 838 l 1,2,-1
 118 838 l 1,3,-1
 158 1080 l 1,4,-1
 966 1080 l 1,5,-1
 938 902 l 1,6,-1
 280 186 l 1,7,8
 332 166 332 166 373 120 c 128,-1,9
 414 74 414 74 441 24 c 128,-1,10
 468 -26 468 -26 496 -75 c 128,-1,11
 524 -124 524 -124 563 -155 c 128,-1,12
 602 -186 602 -186 652 -186 c 0,13,14
 744 -186 744 -186 786 -176 c 1,15,-1
 746 -414 l 1,16,17
 688 -430 688 -430 598 -430 c 256,18,19
 508 -430 508 -430 444 -389 c 128,-1,20
 380 -348 380 -348 343 -289 c 128,-1,21
 306 -230 306 -230 273 -168 c 128,-1,22
 240 -106 240 -106 193 -57 c 128,-1,23
 146 -8 146 -8 84 0 c 1,24,-1
 -58 0 l 1,0,-1
EndSplineSet
EndChar

StartChar: uni0241
Encoding: 577 577 515
Width: 1162
GlyphClass: 2
Flags: W
LayerCount: 2
Fore
SplineSet
188 1116 m 1,0,1
 254 1284 254 1284 404 1393 c 128,-1,2
 554 1502 554 1502 748 1502 c 0,3,4
 946 1502 946 1502 1058 1384 c 128,-1,5
 1170 1266 1170 1266 1140 1076 c 0,6,7
 1126 988 1126 988 1080 915 c 128,-1,8
 1034 842 1034 842 978 793 c 128,-1,9
 922 744 922 744 867 697 c 128,-1,10
 812 650 812 650 769 592 c 128,-1,11
 726 534 726 534 714 464 c 2,12,-1
 638 0 l 1,13,-1
 346 0 l 1,14,-1
 426 490 l 2,15,16
 440 574 440 574 484 645 c 128,-1,17
 528 716 528 716 583 765 c 128,-1,18
 638 814 638 814 691 860 c 128,-1,19
 744 906 744 906 787 964 c 128,-1,20
 830 1022 830 1022 840 1086 c 0,21,22
 852 1158 852 1158 814 1203 c 128,-1,23
 776 1248 776 1248 710 1248 c 0,24,25
 630 1248 630 1248 559 1193 c 128,-1,26
 488 1138 488 1138 438 1036 c 1,27,-1
 188 1116 l 1,0,1
EndSplineSet
EndChar

StartChar: uni0250
Encoding: 592 592 516
Width: 1022
GlyphClass: 2
Flags: W
LayerCount: 2
Fore
SplineSet
360 568 m 1,0,1
 438 586 438 586 522 602 c 0,2,3
 618 620 618 620 670 656 c 128,-1,4
 722 692 722 692 734 760 c 0,5,6
 742 812 742 812 713 844 c 128,-1,7
 684 876 684 876 628 876 c 0,8,9
 540 876 540 876 465 811 c 128,-1,10
 390 746 390 746 374 656 c 2,11,-1
 360 568 l 1,0,1
64 422 m 2,12,-1
 172 1080 l 1,13,-1
 436 1080 l 1,14,-1
 418 972 l 1,15,16
 456 1024 456 1024 533 1068 c 128,-1,17
 610 1112 610 1112 706 1112 c 0,18,19
 872 1112 872 1112 955 1022 c 128,-1,20
 1038 932 1038 932 1014 786 c 0,21,22
 988 628 988 628 852 532 c 128,-1,23
 716 436 716 436 498 408 c 0,24,25
 404 394 404 394 328 376 c 1,26,-1
 318 310 l 2,27,28
 308 254 308 254 349 222 c 128,-1,29
 390 190 390 190 454 190 c 0,30,31
 608 190 608 190 750 324 c 1,32,-1
 886 178 l 1,33,34
 788 76 788 76 666 22 c 128,-1,35
 544 -32 544 -32 418 -32 c 0,36,37
 186 -32 186 -32 107 85 c 128,-1,38
 28 202 28 202 64 422 c 2,12,-1
EndSplineSet
EndChar

StartChar: uni0251
Encoding: 593 593 517
Width: 1080
GlyphClass: 2
Flags: W
LayerCount: 2
Fore
SplineSet
322 540 m 0,0,1
 294 376 294 376 335 294 c 128,-1,2
 376 212 376 212 462 212 c 0,3,4
 534 212 534 212 605 289 c 128,-1,5
 676 366 676 366 704 540 c 0,6,7
 728 688 728 688 696 778 c 128,-1,8
 664 868 664 868 568 868 c 0,9,10
 476 868 476 868 412 781 c 128,-1,11
 348 694 348 694 322 540 c 0,0,1
46 540 m 0,12,13
 90 808 90 808 235 960 c 128,-1,14
 380 1112 380 1112 574 1112 c 0,15,16
 708 1112 708 1112 780 1002 c 1,17,-1
 792 1080 l 1,18,-1
 1062 1080 l 1,19,-1
 882 0 l 1,20,-1
 620 0 l 1,21,-1
 636 108 l 1,22,23
 596 50 596 50 526 9 c 128,-1,24
 456 -32 456 -32 382 -32 c 0,25,26
 300 -32 300 -32 232 -1 c 128,-1,27
 164 30 164 30 111 96 c 128,-1,28
 58 162 58 162 40 276 c 128,-1,29
 22 390 22 390 46 540 c 0,12,13
EndSplineSet
EndChar

StartChar: uni0252
Encoding: 594 594 518
Width: 1080
GlyphClass: 2
Flags: W
LayerCount: 2
Fore
SplineSet
14 0 m 1,0,-1
 192 1080 l 1,1,-1
 460 1080 l 1,2,-1
 446 1004 l 1,3,4
 564 1112 564 1112 694 1112 c 0,5,6
 886 1112 886 1112 979 959 c 128,-1,7
 1072 806 1072 806 1028 540 c 0,8,9
 1002 388 1002 388 944 272 c 128,-1,10
 886 156 886 156 812 92 c 128,-1,11
 738 28 738 28 661 -2 c 128,-1,12
 584 -32 584 -32 508 -32 c 0,13,14
 424 -32 424 -32 369 11 c 128,-1,15
 314 54 314 54 294 106 c 1,16,-1
 276 0 l 1,17,-1
 14 0 l 1,0,-1
368 540 m 0,18,19
 342 386 342 386 380 299 c 128,-1,20
 418 212 418 212 506 212 c 256,21,22
 594 212 594 212 659 296 c 128,-1,23
 724 380 724 380 750 540 c 0,24,25
 776 696 776 696 741 782 c 128,-1,26
 706 868 706 868 612 868 c 256,27,28
 518 868 518 868 455 778 c 128,-1,29
 392 688 392 688 368 540 c 0,18,19
EndSplineSet
EndChar

StartChar: uni0253
Encoding: 595 595 519
Width: 1094
GlyphClass: 2
Flags: W
LayerCount: 2
Fore
SplineSet
370 544 m 0,0,1
 344 388 344 388 383 300 c 128,-1,2
 422 212 422 212 514 212 c 256,3,4
 606 212 606 212 671 296 c 128,-1,5
 736 380 736 380 764 542 c 0,6,7
 788 690 788 690 751 779 c 128,-1,8
 714 868 714 868 624 868 c 0,9,10
 530 868 530 868 462 780 c 128,-1,11
 394 692 394 692 370 544 c 0,0,1
16 0 m 1,12,-1
 220 1234 l 2,13,14
 248 1398 248 1398 362 1485 c 128,-1,15
 476 1572 476 1572 628 1572 c 0,16,17
 684 1572 684 1572 806 1562 c 1,18,-1
 764 1306 l 1,19,20
 642 1318 642 1318 636 1318 c 0,21,22
 580 1318 580 1318 535 1282 c 128,-1,23
 490 1246 490 1246 480 1180 c 2,24,-1
 450 1004 l 1,25,26
 568 1112 568 1112 704 1112 c 0,27,28
 892 1112 892 1112 990 960 c 128,-1,29
 1088 808 1088 808 1044 542 c 0,30,31
 1020 394 1020 394 962 279 c 128,-1,32
 904 164 904 164 828 98 c 128,-1,33
 752 32 752 32 673 0 c 128,-1,34
 594 -32 594 -32 516 -32 c 0,35,36
 432 -32 432 -32 377 10 c 128,-1,37
 322 52 322 52 294 106 c 1,38,-1
 276 0 l 1,39,-1
 16 0 l 1,12,-1
EndSplineSet
EndChar

StartChar: uni0254
Encoding: 596 596 520
Width: 984
GlyphClass: 2
Flags: W
LayerCount: 2
Fore
SplineSet
-14 324 m 1,0,-1
 228 390 l 1,1,2
 232 320 232 320 274 266 c 128,-1,3
 316 212 316 212 392 212 c 0,4,5
 482 212 482 212 555 296 c 128,-1,6
 628 380 628 380 656 538 c 0,7,8
 680 680 680 680 642 774 c 128,-1,9
 604 868 604 868 500 868 c 0,10,11
 434 868 434 868 384 819 c 128,-1,12
 334 770 334 770 306 704 c 1,13,-1
 88 770 l 1,14,15
 134 900 134 900 258 1006 c 128,-1,16
 382 1112 382 1112 546 1112 c 0,17,18
 758 1112 758 1112 868 958 c 128,-1,19
 978 804 978 804 934 538 c 0,20,21
 890 278 890 278 730 123 c 128,-1,22
 570 -32 570 -32 356 -32 c 0,23,24
 196 -32 196 -32 95 76 c 128,-1,25
 -6 184 -6 184 -14 324 c 1,0,-1
EndSplineSet
EndChar

StartChar: uni0255
Encoding: 597 597 521
Width: 986
GlyphClass: 2
Flags: W
LayerCount: 2
Fore
SplineSet
460 194 m 1,0,1
 500 158 500 158 552 158 c 256,2,3
 606 158 606 158 639 178 c 128,-1,4
 672 198 672 198 678 228 c 0,5,6
 682 256 682 256 661 273 c 128,-1,7
 640 290 640 290 606 290 c 0,8,9
 526 290 526 290 460 194 c 1,0,1
50 560 m 0,10,11
 88 792 88 792 242 952 c 128,-1,12
 396 1112 396 1112 624 1112 c 0,13,14
 710 1112 710 1112 779 1078 c 128,-1,15
 848 1044 848 1044 887 990 c 128,-1,16
 926 936 926 936 945 880 c 128,-1,17
 964 824 964 824 966 770 c 1,18,-1
 728 702 l 1,19,20
 712 868 712 868 584 868 c 0,21,22
 486 868 486 868 417 774 c 128,-1,23
 348 680 348 680 324 540 c 0,24,25
 304 420 304 420 330 328 c 1,26,27
 384 392 384 392 470 438 c 128,-1,28
 556 484 556 484 648 484 c 0,29,30
 766 484 766 484 836 417 c 128,-1,31
 906 350 906 350 886 232 c 0,32,33
 864 104 864 104 767 36 c 128,-1,34
 670 -32 670 -32 516 -32 c 0,35,36
 420 -32 420 -32 346 -16 c 1,37,38
 312 -84 312 -84 302 -128 c 1,39,-1
 80 -74 l 1,40,41
 108 8 108 8 150 78 c 1,42,43
 -2 242 -2 242 50 560 c 0,10,11
EndSplineSet
EndChar

StartChar: uni0256
Encoding: 598 598 522
Width: 1092
GlyphClass: 2
Flags: W
LayerCount: 2
Fore
SplineSet
46 540 m 0,0,1
 92 812 92 812 241 962 c 128,-1,2
 390 1112 390 1112 580 1112 c 0,3,4
 722 1112 722 1112 788 1002 c 1,5,-1
 874 1514 l 1,6,-1
 1144 1514 l 1,7,-1
 884 -52 l 2,8,9
 864 -178 864 -178 974 -178 c 0,10,11
 1038 -178 1038 -178 1126 -162 c 1,12,-1
 1084 -412 l 1,13,14
 938 -430 938 -430 878 -430 c 0,15,16
 742 -430 742 -430 664 -346 c 128,-1,17
 586 -262 586 -262 616 -70 c 2,18,-1
 646 104 l 1,19,20
 606 48 606 48 535 8 c 128,-1,21
 464 -32 464 -32 388 -32 c 0,22,23
 304 -32 304 -32 235 -1 c 128,-1,24
 166 30 166 30 113 96 c 128,-1,25
 60 162 60 162 41 276 c 128,-1,26
 22 390 22 390 46 540 c 0,0,1
322 540 m 256,27,28
 296 384 296 384 334 298 c 128,-1,29
 372 212 372 212 468 212 c 0,30,31
 560 212 560 212 626 301 c 128,-1,32
 692 390 692 390 716 540 c 0,33,34
 740 688 740 688 706 778 c 128,-1,35
 672 868 672 868 576 868 c 0,36,37
 482 868 482 868 415 782 c 128,-1,38
 348 696 348 696 322 540 c 256,27,28
EndSplineSet
EndChar

StartChar: uni0257
Encoding: 599 599 523
Width: 1092
GlyphClass: 2
Flags: W
LayerCount: 2
Fore
SplineSet
46 542 m 0,0,1
 90 808 90 808 238 960 c 128,-1,2
 386 1112 386 1112 580 1112 c 0,3,4
 726 1112 726 1112 788 1002 c 1,5,-1
 824 1216 l 2,6,7
 852 1388 852 1388 969 1480 c 128,-1,8
 1086 1572 1086 1572 1240 1572 c 0,9,10
 1298 1572 1298 1572 1428 1562 c 1,11,-1
 1386 1308 l 1,12,13
 1338 1316 1338 1316 1248 1316 c 0,14,15
 1190 1316 1190 1316 1144 1273 c 128,-1,16
 1098 1230 1098 1230 1086 1160 c 2,17,-1
 894 0 l 1,18,-1
 632 0 l 1,19,-1
 650 108 l 1,20,21
 612 52 612 52 540 10 c 128,-1,22
 468 -32 468 -32 386 -32 c 256,23,24
 304 -32 304 -32 235 0 c 128,-1,25
 166 32 166 32 113 97 c 128,-1,26
 60 162 60 162 41 277 c 128,-1,27
 22 392 22 392 46 542 c 0,0,1
324 542 m 0,28,29
 298 380 298 380 336 296 c 128,-1,30
 374 212 374 212 468 212 c 0,31,32
 556 212 556 212 623 299 c 128,-1,33
 690 386 690 386 716 542 c 0,34,35
 740 690 740 690 706 779 c 128,-1,36
 672 868 672 868 574 868 c 0,37,38
 478 868 478 868 413 780 c 128,-1,39
 348 692 348 692 324 542 c 0,28,29
EndSplineSet
EndChar

StartChar: uni0258
Encoding: 600 600 524
Width: 1052
GlyphClass: 2
Flags: W
LayerCount: 2
Fore
SplineSet
34 440 m 1,0,1
 36 492 36 492 46 544 c 0,2,3
 88 798 88 798 251 955 c 128,-1,4
 414 1112 414 1112 614 1112 c 0,5,6
 820 1112 820 1112 932 960 c 128,-1,7
 1044 808 1044 808 1000 544 c 256,8,9
 956 280 956 280 792 124 c 128,-1,10
 628 -32 628 -32 412 -32 c 0,11,12
 240 -32 240 -32 141 51 c 128,-1,13
 42 134 42 134 10 254 c 1,14,-1
 248 340 l 1,15,16
 266 276 266 276 316 236 c 128,-1,17
 366 196 366 196 442 196 c 0,18,19
 546 196 546 196 619 267 c 128,-1,20
 692 338 692 338 710 440 c 1,21,-1
 34 440 l 1,0,1
334 636 m 1,22,-1
 740 636 l 1,23,24
 754 738 754 738 713 813 c 128,-1,25
 672 888 672 888 576 888 c 256,26,27
 480 888 480 888 416 814 c 128,-1,28
 352 740 352 740 334 636 c 1,22,-1
EndSplineSet
EndChar

StartChar: uni025A
Encoding: 602 602 526
Width: 1256
GlyphClass: 2
Flags: W
LayerCount: 2
Fore
SplineSet
36 462 m 1,0,-1
 738 760 l 1,1,2
 694 884 694 884 570 884 c 0,3,4
 420 884 420 884 316 742 c 1,5,-1
 104 826 l 1,6,7
 178 948 178 948 305 1030 c 128,-1,8
 432 1112 432 1112 610 1112 c 0,9,10
 742 1112 742 1112 839 1047 c 128,-1,11
 936 982 936 982 978 872 c 1,12,-1
 1146 946 l 1,13,14
 1152 872 1152 872 1188 825 c 128,-1,15
 1224 778 1224 778 1272 778 c 0,16,17
 1334 778 1334 778 1370 792 c 1,18,-1
 1332 566 l 1,19,20
 1270 546 1270 546 1210 546 c 256,21,22
 1150 546 1150 546 1105 575 c 128,-1,23
 1060 604 1060 604 1044 650 c 1,24,-1
 1014 638 l 1,25,26
 1012 586 1012 586 1002 536 c 0,27,28
 960 282 960 282 801 125 c 128,-1,29
 642 -32 642 -32 426 -32 c 0,30,31
 314 -32 314 -32 229 17 c 128,-1,32
 144 66 144 66 103 142 c 128,-1,33
 62 218 62 218 44 301 c 128,-1,34
 26 384 26 384 36 462 c 1,0,-1
304 342 m 1,35,36
 308 272 308 272 354 232 c 128,-1,37
 400 192 400 192 464 192 c 0,38,39
 530 192 530 192 585 234 c 128,-1,40
 640 276 640 276 674 346 c 0,41,42
 712 416 712 416 726 508 c 0,43,44
 726 514 726 514 728 520 c 1,45,-1
 304 342 l 1,35,36
EndSplineSet
EndChar

StartChar: uni025B
Encoding: 603 603 527
Width: 966
GlyphClass: 2
Flags: W
LayerCount: 2
Fore
SplineSet
10 322 m 0,0,1
 24 408 24 408 75 471 c 128,-1,2
 126 534 126 534 192 568 c 1,3,-1
 194 570 l 1,4,5
 102 662 102 662 124 794 c 0,6,7
 148 936 148 936 276 1024 c 128,-1,8
 404 1112 404 1112 586 1112 c 0,9,10
 874 1112 874 1112 966 828 c 1,11,-1
 728 734 l 1,12,13
 706 792 706 792 657 830 c 128,-1,14
 608 868 608 868 548 868 c 0,15,16
 412 868 412 868 394 770 c 0,17,18
 386 724 386 724 422 692 c 128,-1,19
 458 660 458 660 526 660 c 2,20,-1
 664 660 l 1,21,-1
 628 446 l 1,22,-1
 492 446 l 2,23,24
 398 446 398 446 347 411 c 128,-1,25
 296 376 296 376 286 324 c 0,26,27
 276 266 276 266 328 239 c 128,-1,28
 380 212 380 212 444 212 c 0,29,30
 514 212 514 212 580 248 c 128,-1,31
 646 284 646 284 688 338 c 1,32,-1
 884 240 l 1,33,34
 814 120 814 120 686 44 c 128,-1,35
 558 -32 558 -32 402 -32 c 0,36,37
 208 -32 208 -32 95 62 c 128,-1,38
 -18 156 -18 156 10 322 c 0,0,1
EndSplineSet
EndChar

StartChar: uni025C
Encoding: 604 604 528
Width: 966
GlyphClass: 2
Flags: W
LayerCount: 2
Fore
SplineSet
-28 240 m 1,0,-1
 202 338 l 1,1,2
 226 284 226 284 280 248 c 128,-1,3
 334 212 334 212 406 212 c 0,4,5
 466 212 466 212 527 239 c 128,-1,6
 588 266 588 266 598 324 c 0,7,8
 606 376 606 376 569 411 c 128,-1,9
 532 446 532 446 436 446 c 2,10,-1
 300 446 l 1,11,-1
 336 660 l 1,12,-1
 472 660 l 2,13,14
 538 660 538 660 584 692 c 128,-1,15
 630 724 630 724 638 770 c 0,16,17
 654 868 654 868 518 868 c 0,18,19
 456 868 456 868 394 830 c 128,-1,20
 332 792 332 792 292 734 c 1,21,-1
 84 828 l 1,22,23
 272 1112 272 1112 560 1112 c 0,24,25
 742 1112 742 1112 841 1024 c 128,-1,26
 940 936 940 936 916 794 c 0,27,28
 894 660 894 660 772 570 c 1,29,-1
 774 568 l 1,30,31
 828 534 828 534 858 471 c 128,-1,32
 888 408 888 408 874 322 c 0,33,34
 846 156 846 156 702 62 c 128,-1,35
 558 -32 558 -32 368 -32 c 0,36,37
 210 -32 210 -32 107 44 c 128,-1,38
 4 120 4 120 -28 240 c 1,0,-1
EndSplineSet
EndChar

StartChar: uni025D
Encoding: 605 605 529
Width: 1176
GlyphClass: 2
Flags: W
LayerCount: 2
Fore
SplineSet
-28 240 m 1,0,-1
 202 338 l 1,1,2
 222 288 222 288 277 250 c 128,-1,3
 332 212 332 212 408 212 c 256,4,5
 484 212 484 212 537 243 c 128,-1,6
 590 274 590 274 600 328 c 0,7,8
 608 380 608 380 567 413 c 128,-1,9
 526 446 526 446 434 446 c 2,10,-1
 300 446 l 1,11,-1
 336 660 l 1,12,-1
 470 660 l 2,13,14
 538 660 538 660 584 692 c 128,-1,15
 630 724 630 724 638 770 c 0,16,17
 654 868 654 868 520 868 c 0,18,19
 394 868 394 868 292 734 c 1,20,-1
 84 828 l 1,21,22
 124 884 124 884 164 928 c 128,-1,23
 204 972 204 972 263 1017 c 128,-1,24
 322 1062 322 1062 397 1087 c 128,-1,25
 472 1112 472 1112 562 1112 c 0,26,27
 792 1112 792 1112 884 980 c 1,28,-1
 1046 1074 l 1,29,30
 1054 1000 1054 1000 1094 949 c 128,-1,31
 1134 898 1134 898 1182 898 c 0,32,33
 1240 898 1240 898 1278 914 c 1,34,-1
 1242 686 l 1,35,36
 1180 666 1180 666 1120 666 c 256,37,38
 1060 666 1060 666 1010 696 c 128,-1,39
 960 726 960 726 946 770 c 1,40,-1
 906 748 l 2,41,42
 904 744 904 744 898 727 c 128,-1,43
 892 710 892 710 890 704 c 0,44,45
 850 622 850 622 774 570 c 1,46,-1
 774 568 l 1,47,48
 826 534 826 534 858 473 c 128,-1,49
 890 412 890 412 876 326 c 0,50,51
 848 160 848 160 705 64 c 128,-1,52
 562 -32 562 -32 366 -32 c 0,53,54
 206 -32 206 -32 104 45 c 128,-1,55
 2 122 2 122 -28 240 c 1,0,-1
EndSplineSet
EndChar

StartChar: uni025E
Encoding: 606 606 530
Width: 1044
GlyphClass: 2
Flags: W
LayerCount: 2
Fore
SplineSet
46 540 m 0,0,1
 60 630 60 630 90 710 c 128,-1,2
 120 790 120 790 169 864 c 128,-1,3
 218 938 218 938 285 993 c 128,-1,4
 352 1048 352 1048 447 1080 c 128,-1,5
 542 1112 542 1112 652 1112 c 0,6,7
 812 1112 812 1112 920 1033 c 128,-1,8
 1028 954 1028 954 1002 796 c 0,9,10
 978 654 978 654 872 574 c 1,11,12
 906 550 906 550 926 525 c 128,-1,13
 946 500 946 500 960 448 c 128,-1,14
 974 396 974 396 962 328 c 0,15,16
 948 248 948 248 912 185 c 128,-1,17
 876 122 876 122 827 82 c 128,-1,18
 778 42 778 42 714 16 c 128,-1,19
 650 -10 650 -10 588 -21 c 128,-1,20
 526 -32 526 -32 462 -32 c 0,21,22
 320 -32 320 -32 225 15 c 128,-1,23
 130 62 130 62 88 145 c 128,-1,24
 46 228 46 228 36 326 c 128,-1,25
 26 424 26 424 46 540 c 0,0,1
324 540 m 0,26,27
 294 358 294 358 350 285 c 128,-1,28
 406 212 406 212 506 212 c 0,29,30
 666 212 666 212 684 328 c 0,31,32
 692 376 692 376 652 411 c 128,-1,33
 612 446 612 446 536 446 c 2,34,-1
 462 446 l 1,35,-1
 498 670 l 1,36,-1
 574 670 l 2,37,38
 632 670 632 670 673 699 c 128,-1,39
 714 728 714 728 722 776 c 256,40,41
 730 824 730 824 699 847 c 128,-1,42
 668 870 668 870 614 870 c 0,43,44
 522 870 522 870 438 793 c 128,-1,45
 354 716 354 716 324 540 c 0,26,27
EndSplineSet
EndChar

StartChar: uni025F
Encoding: 607 607 531
Width: 518
GlyphClass: 2
Flags: W
LayerCount: 2
Fore
SplineSet
-56 476 m 1,0,-1
 -16 710 l 1,1,-1
 154 710 l 1,2,-1
 216 1080 l 1,3,-1
 486 1080 l 1,4,-1
 426 710 l 1,5,-1
 588 710 l 1,6,-1
 550 476 l 1,7,-1
 386 476 l 1,8,-1
 310 14 l 2,9,10
 276 -196 276 -196 168 -303 c 128,-1,11
 60 -410 60 -410 -110 -410 c 2,12,-1
 -182 -410 l 1,13,-1
 -142 -162 l 1,14,-1
 -112 -162 l 2,15,16
 -48 -162 -48 -162 -12 -118 c 128,-1,17
 24 -74 24 -74 42 26 c 2,18,-1
 116 476 l 1,19,-1
 -56 476 l 1,0,-1
EndSplineSet
EndChar

StartChar: uni0260
Encoding: 608 608 532
Width: 1106
GlyphClass: 2
Flags: W
LayerCount: 2
Fore
SplineSet
56 562 m 0,0,1
 98 814 98 814 244 963 c 128,-1,2
 390 1112 390 1112 576 1112 c 0,3,4
 716 1112 716 1112 770 988 c 1,5,-1
 808 1216 l 2,6,7
 836 1390 836 1390 954 1481 c 128,-1,8
 1072 1572 1072 1572 1228 1572 c 0,9,10
 1296 1572 1296 1572 1424 1562 c 1,11,-1
 1382 1308 l 1,12,13
 1320 1318 1320 1318 1238 1318 c 0,14,15
 1182 1318 1182 1318 1132 1274 c 128,-1,16
 1082 1230 1082 1230 1070 1162 c 2,17,-1
 906 164 l 2,18,19
 858 -130 858 -130 721 -280 c 128,-1,20
 584 -430 584 -430 332 -430 c 0,21,22
 76 -430 76 -430 -42 -216 c 1,23,-1
 156 -82 l 1,24,25
 230 -202 230 -202 372 -202 c 0,26,27
 462 -202 462 -202 528 -135 c 128,-1,28
 594 -68 594 -68 614 42 c 2,29,-1
 630 114 l 1,30,31
 592 68 592 68 526 40 c 128,-1,32
 460 12 460 12 402 12 c 0,33,34
 210 12 210 12 112 160 c 128,-1,35
 14 308 14 308 56 562 c 0,0,1
334 564 m 0,36,37
 308 406 308 406 348 331 c 128,-1,38
 388 256 388 256 468 256 c 0,39,40
 554 256 554 256 615 335 c 128,-1,41
 676 414 676 414 700 564 c 0,42,43
 724 704 724 704 689 786 c 128,-1,44
 654 868 654 868 568 868 c 0,45,46
 484 868 484 868 422 792 c 128,-1,47
 360 716 360 716 334 564 c 0,36,37
EndSplineSet
EndChar

StartChar: uni0262
Encoding: 610 610 534
Width: 1028
GlyphClass: 2
Flags: W
LayerCount: 2
Fore
SplineSet
46 534 m 0,0,1
 90 798 90 798 244 955 c 128,-1,2
 398 1112 398 1112 626 1112 c 0,3,4
 914 1112 914 1112 990 816 c 1,5,-1
 752 720 l 1,6,7
 736 778 736 778 695 823 c 128,-1,8
 654 868 654 868 586 868 c 0,9,10
 488 868 488 868 418 781 c 128,-1,11
 348 694 348 694 322 534 c 0,12,13
 296 382 296 382 340 298 c 128,-1,14
 384 214 384 214 480 214 c 0,15,16
 612 214 612 214 670 366 c 1,17,-1
 680 412 l 1,18,-1
 476 412 l 1,19,-1
 512 628 l 1,20,-1
 970 628 l 1,21,-1
 866 0 l 1,22,-1
 662 0 l 1,23,-1
 668 66 l 1,24,25
 630 26 630 26 561 -3 c 128,-1,26
 492 -32 492 -32 424 -32 c 0,27,28
 222 -32 222 -32 111 115 c 128,-1,29
 0 262 0 262 46 534 c 0,0,1
EndSplineSet
EndChar

StartChar: uni0263
Encoding: 611 611 535
Width: 1012
GlyphClass: 2
Flags: W
LayerCount: 2
Fore
SplineSet
100 1080 m 1,0,-1
 392 1080 l 1,1,-1
 450 244 l 1,2,-1
 452 244 l 1,3,-1
 488 324 l 1,4,-1
 788 1080 l 1,5,-1
 1084 1080 l 1,6,-1
 618 126 l 1,7,8
 666 82 666 82 689 14 c 128,-1,9
 712 -54 712 -54 700 -124 c 0,10,11
 678 -258 678 -258 579 -344 c 128,-1,12
 480 -430 480 -430 342 -430 c 0,13,14
 208 -430 208 -430 133 -346 c 128,-1,15
 58 -262 58 -262 80 -124 c 0,16,17
 104 16 104 16 244 122 c 1,18,-1
 100 1080 l 1,0,-1
304 -122 m 0,19,20
 296 -166 296 -166 316 -198 c 128,-1,21
 336 -230 336 -230 374 -230 c 0,22,23
 416 -230 416 -230 446 -198 c 128,-1,24
 476 -166 476 -166 484 -122 c 0,25,26
 490 -86 490 -86 472 -41 c 128,-1,27
 454 4 454 4 418 30 c 1,28,29
 372 4 372 4 341 -39 c 128,-1,30
 310 -82 310 -82 304 -122 c 0,19,20
EndSplineSet
Substitution2: "'sups' Superscript lookup 5 subtable" uni02E0
Substitution2: "'aalt' Access All Alternates lookup 0 subtable" uni02E0
EndChar

StartChar: uni0264
Encoding: 612 612 536
Width: 928
GlyphClass: 2
Flags: W
LayerCount: 2
Fore
SplineSet
470 590 m 1,0,1
 356 462 356 462 338 354 c 0,2,3
 328 294 328 294 345 253 c 128,-1,4
 362 212 362 212 408 212 c 0,5,6
 450 212 450 212 480 253 c 128,-1,7
 510 294 510 294 520 354 c 0,8,9
 540 472 540 472 470 590 c 1,0,1
60 848 m 1,10,-1
 98 1088 l 1,11,12
 196 1112 196 1112 260 1112 c 0,13,14
 420 1112 420 1112 536 992 c 1,15,16
 678 1112 678 1112 858 1112 c 0,17,18
 924 1112 924 1112 1004 1090 c 1,19,-1
 964 846 l 1,20,21
 898 866 898 866 820 866 c 0,22,23
 752 866 752 866 670 804 c 1,24,25
 720 710 720 710 742 661 c 128,-1,26
 764 612 764 612 779 527 c 128,-1,27
 794 442 794 442 778 350 c 0,28,29
 750 180 750 180 642 74 c 128,-1,30
 534 -32 534 -32 366 -32 c 0,31,32
 194 -32 194 -32 126 76 c 128,-1,33
 58 184 58 184 84 350 c 0,34,35
 104 476 104 476 172 583 c 128,-1,36
 240 690 240 690 344 804 c 1,37,38
 276 866 276 866 206 866 c 0,39,40
 182 866 182 866 60 848 c 1,10,-1
EndSplineSet
EndChar

StartChar: uni0265
Encoding: 613 613 537
Width: 1052
GlyphClass: 2
Flags: W
LayerCount: 2
Fore
SplineSet
58 388 m 2,0,-1
 172 1080 l 1,1,-1
 442 1080 l 1,2,-1
 334 418 l 2,3,4
 300 212 300 212 432 212 c 0,5,6
 510 212 510 212 577 292 c 128,-1,7
 644 372 644 372 662 474 c 2,8,-1
 762 1080 l 1,9,-1
 1030 1080 l 1,10,-1
 782 -424 l 1,11,-1
 514 -424 l 1,12,-1
 594 70 l 1,13,-1
 592 70 l 1,14,15
 488 -32 488 -32 336 -32 c 0,16,17
 274 -32 274 -32 221 -12 c 128,-1,18
 168 8 168 8 122 52 c 128,-1,19
 76 96 76 96 57 182 c 128,-1,20
 38 268 38 268 58 388 c 2,0,-1
EndSplineSet
EndChar

StartChar: uni0266
Encoding: 614 614 538
Width: 1052
GlyphClass: 2
Flags: W
LayerCount: 2
Fore
SplineSet
18 0 m 1,0,-1
 218 1220 l 2,1,2
 246 1390 246 1390 363 1481 c 128,-1,3
 480 1572 480 1572 632 1572 c 0,4,5
 722 1572 722 1572 824 1564 c 1,6,-1
 782 1310 l 1,7,8
 708 1318 708 1318 642 1318 c 0,9,10
 584 1318 584 1318 536 1278 c 128,-1,11
 488 1238 488 1238 478 1166 c 2,12,-1
 452 1010 l 1,13,-1
 454 1010 l 1,14,15
 576 1112 576 1112 706 1112 c 0,16,17
 772 1112 772 1112 828 1092 c 128,-1,18
 884 1072 884 1072 928 1025 c 128,-1,19
 972 978 972 978 988 894 c 128,-1,20
 1004 810 1004 810 984 692 c 2,21,-1
 870 0 l 1,22,-1
 602 0 l 1,23,-1
 710 660 l 2,24,25
 744 868 744 868 618 868 c 0,26,27
 534 868 534 868 468 790 c 128,-1,28
 402 712 402 712 384 606 c 2,29,-1
 284 0 l 1,30,-1
 18 0 l 1,0,-1
EndSplineSet
Substitution2: "'sups' Superscript lookup 5 subtable" uni02B1
Substitution2: "'aalt' Access All Alternates lookup 0 subtable" uni02B1
EndChar

StartChar: uni0267
Encoding: 615 615 539
Width: 1054
GlyphClass: 2
Flags: W
LayerCount: 2
Fore
SplineSet
18 0 m 1,0,-1
 218 1220 l 2,1,2
 246 1390 246 1390 363 1481 c 128,-1,3
 480 1572 480 1572 632 1572 c 0,4,5
 722 1572 722 1572 824 1564 c 1,6,-1
 782 1310 l 1,7,8
 736 1318 736 1318 642 1318 c 0,9,10
 586 1318 586 1318 537 1276 c 128,-1,11
 488 1234 488 1234 476 1164 c 2,12,-1
 452 1010 l 1,13,-1
 454 1010 l 1,14,15
 576 1112 576 1112 706 1112 c 0,16,17
 770 1112 770 1112 823 1094 c 128,-1,18
 876 1076 876 1076 923 1032 c 128,-1,19
 970 988 970 988 987 901 c 128,-1,20
 1004 814 1004 814 984 692 c 2,21,-1
 868 -14 l 2,22,23
 832 -230 832 -230 725 -329 c 128,-1,24
 618 -428 618 -428 434 -428 c 0,25,26
 356 -428 356 -428 248 -414 c 1,27,-1
 288 -170 l 1,28,29
 364 -184 364 -184 420 -184 c 0,30,31
 502 -184 502 -184 543 -146 c 128,-1,32
 584 -108 584 -108 602 4 c 2,33,-1
 710 660 l 2,34,35
 744 868 744 868 618 868 c 0,36,37
 534 868 534 868 468 790 c 128,-1,38
 402 712 402 712 384 606 c 2,39,-1
 284 0 l 1,40,-1
 18 0 l 1,0,-1
EndSplineSet
EndChar

